<svg width="132" height="132" viewBox="0 0 132 132" fill="none" xmlns="http://www.w3.org/2000/svg">
<circle cx="66" cy="66" r="64.64" fill="#E2E8F0" stroke="#E2E8F0" stroke-width="1.28"/>
<path fill-rule="evenodd" clip-rule="evenodd" d="M113.738 109.221C102.027 122.165 85.096 130.297 66.2661 130.297C47.2735 130.297 30.2132 122.024 18.4922 108.885C26.0789 99.4957 44.4769 92.875 65.9817 92.875C87.7426 92.875 106.322 99.6543 113.738 109.221ZM84.0837 36.3731C79.2827 31.5721 72.7713 28.875 65.9817 28.875C59.1922 28.875 52.6807 31.5721 47.8798 36.3731C43.0789 41.174 40.3817 47.6855 40.3817 54.475C40.3817 61.2645 43.0789 67.776 47.8798 72.5769C52.6807 77.3779 59.1922 80.075 65.9817 80.075C72.7713 80.075 79.2827 77.3779 84.0837 72.5769C88.8846 67.776 91.5817 61.2645 91.5817 54.475C91.5817 47.6855 88.8846 41.174 84.0837 36.3731Z" fill="white"/>
</svg>
