<svg width="16" height="16" viewBox="0 0 16 16" fill="none" xmlns="http://www.w3.org/2000/svg">
<path d="M12 1.33325V2.66659M4 1.33325V2.66659" stroke="#64748B" stroke-linecap="round" stroke-linejoin="round"/>
<path d="M7.99961 8.6665H8.00559M7.99961 11.3332H8.00559M10.6633 8.6665H10.6693M5.33594 8.6665H5.34192M5.33594 11.3332H5.34192" stroke="#64748B" stroke-width="1.33333" stroke-linecap="round" stroke-linejoin="round"/>
<path d="M2.33594 5.33325H13.6693" stroke="#64748B" stroke-linecap="round" stroke-linejoin="round"/>
<path d="M1.66797 8.16216C1.66797 5.25729 1.66797 3.80486 2.50271 2.90243C3.33746 2 4.68096 2 7.36797 2H8.63464C11.3216 2 12.6651 2 13.4999 2.90243C14.3346 3.80486 14.3346 5.25729 14.3346 8.16216V8.5045C14.3346 11.4094 14.3346 12.8618 13.4999 13.7642C12.6651 14.6667 11.3216 14.6667 8.63464 14.6667H7.36797C4.68096 14.6667 3.33746 14.6667 2.50271 13.7642C1.66797 12.8618 1.66797 11.4094 1.66797 8.5045V8.16216Z" stroke="#64748B" stroke-linecap="round" stroke-linejoin="round"/>
<path d="M2 5.33325H14" stroke="#64748B" stroke-linecap="round" stroke-linejoin="round"/>
</svg>
