<svg width="251" height="268" viewBox="0 0 251 268" fill="none" xmlns="http://www.w3.org/2000/svg">
<path d="M227.4 121.901C227.4 145.35 219.568 168.128 205.146 186.618C190.725 205.108 170.541 218.251 147.797 223.961C125.054 229.671 101.055 227.621 79.61 218.137C58.1648 208.652 40.502 192.276 29.4253 171.608C18.3486 150.94 14.4928 127.164 18.4698 104.055C22.4468 80.9453 34.0287 59.8264 51.3772 44.0501C68.7257 28.2739 90.8467 18.7444 114.229 16.9741C137.611 15.2039 160.915 21.2944 180.441 34.2789L122.173 121.901H227.4Z" fill="#6CC360"/>
<path d="M225.807 140.174C229.463 119.441 226.816 98.0882 218.208 78.8757C209.6 59.6632 195.427 43.4745 177.521 32.4023L122.179 121.901L225.807 140.174Z" fill="#EA6E7A"/>
<rect x="0.277344" y="247.803" width="24" height="16" fill="#6CC360"/>
<path d="M32.9493 253.355C32.9493 251.371 34.5493 250.027 36.9333 250.027C39.1413 250.027 40.5653 251.259 40.6933 253.259H39.1093C39.0293 252.107 38.2133 251.435 36.9173 251.435C35.4613 251.435 34.5173 252.171 34.5173 253.307C34.5173 254.235 35.0453 254.795 36.1333 255.051L38.0373 255.499C39.9253 255.931 40.8853 256.955 40.8853 258.587C40.8853 260.667 39.2693 261.995 36.8053 261.995C34.4533 261.995 32.8853 260.763 32.7893 258.779H34.3893C34.4213 259.883 35.3493 260.587 36.8053 260.587C38.3413 260.587 39.3173 259.867 39.3173 258.715C39.3173 257.803 38.8213 257.227 37.7173 256.971L35.8133 256.539C33.9253 256.107 32.9493 255.019 32.9493 253.355ZM44.8877 261.995C43.2077 261.995 42.2157 261.051 42.2157 259.627C42.2157 258.187 43.2877 257.291 45.1277 257.147L47.5917 256.955V256.731C47.5917 255.419 46.8077 254.955 45.7517 254.955C44.4877 254.955 43.7677 255.515 43.7677 256.459H42.4557C42.4557 254.827 43.7997 253.755 45.8157 253.755C47.7517 253.755 49.0637 254.779 49.0637 256.891V261.803H47.7837L47.6237 260.539C47.2237 261.435 46.1517 261.995 44.8877 261.995ZM45.3197 260.827C46.7437 260.827 47.6077 259.899 47.6077 258.427V258.011L45.6077 258.171C44.2797 258.299 43.7357 258.811 43.7357 259.579C43.7357 260.411 44.3437 260.827 45.3197 260.827ZM53.2296 261.803H51.7256V255.243H50.1896V253.979H51.7256V251.531H53.2296V253.979H54.7656V255.243H53.2296V261.803ZM56.8513 252.123C56.3073 252.123 55.8593 251.675 55.8593 251.131C55.8593 250.571 56.3073 250.139 56.8513 250.139C57.3953 250.139 57.8433 250.571 57.8433 251.131C57.8433 251.675 57.3953 252.123 56.8513 252.123ZM56.1153 261.803V253.979H57.6193V261.803H56.1153ZM59.1628 259.531H60.6028C60.6028 260.331 61.2108 260.811 62.2028 260.811C63.2588 260.811 63.8668 260.379 63.8668 259.659C63.8668 259.131 63.6108 258.811 62.7948 258.603L61.4188 258.283C60.0268 257.947 59.3708 257.259 59.3708 256.107C59.3708 254.667 60.5868 253.755 62.3148 253.755C64.0268 253.755 65.1468 254.715 65.1788 256.203H63.7388C63.7068 255.419 63.1788 254.923 62.2668 254.923C61.3228 254.923 60.7948 255.339 60.7948 256.059C60.7948 256.587 61.1788 256.939 61.9468 257.131L63.3228 257.467C64.6508 257.787 65.3068 258.395 65.3068 259.563C65.3068 261.051 64.0268 261.995 62.1708 261.995C60.3308 261.995 59.1628 261.019 59.1628 259.531ZM72.2707 261.803V255.243H68.7987V261.803H67.2947V255.243H66.1427V253.979H67.2947V252.731C67.2947 250.811 68.3347 250.027 69.6947 250.027C69.9827 250.027 70.3347 250.043 70.6227 250.091V251.387H69.9507C69.0387 251.387 68.7987 251.883 68.7987 252.731V253.979H73.7747V261.803H72.2707ZM73.0227 252.059C72.4787 252.059 72.0627 251.643 72.0627 251.099C72.0627 250.555 72.4787 250.139 73.0227 250.139C73.5507 250.139 73.9667 250.555 73.9667 251.099C73.9667 251.643 73.5507 252.059 73.0227 252.059ZM79.2882 261.995C76.9842 261.995 75.4002 260.331 75.4002 257.899C75.4002 255.451 76.9522 253.755 79.2242 253.755C81.4482 253.755 82.9042 255.291 82.9042 257.611V258.171L76.8562 258.187C76.9682 259.835 77.8322 260.747 79.3202 260.747C80.4882 260.747 81.2562 260.267 81.5122 259.371H82.9202C82.5362 261.051 81.2242 261.995 79.2882 261.995ZM79.2242 255.019C77.9122 255.019 77.0802 255.803 76.8882 257.179H81.4002C81.4002 255.883 80.5522 255.019 79.2242 255.019ZM87.7201 261.995C85.4481 261.995 84.0721 260.299 84.0721 257.915C84.0721 255.515 85.4641 253.755 87.7841 253.755C88.9841 253.755 89.9921 254.283 90.5201 255.243V250.027H92.0081V261.803H90.6641L90.5361 260.379C90.0241 261.451 88.9681 261.995 87.7201 261.995ZM88.0241 260.635C89.5601 260.635 90.5041 259.499 90.5041 257.867C90.5041 256.267 89.5601 255.115 88.0241 255.115C86.4881 255.115 85.5921 256.267 85.5921 257.867C85.5921 259.483 86.4881 260.635 88.0241 260.635Z" fill="#23A512"/>
<rect x="117.277" y="247.803" width="24" height="16" fill="#EA6E7A"/>
<path d="M156.564 261.803H154.996V250.235H156.564L162.484 259.179V250.235H164.052V261.803H162.484L156.564 252.859V261.803ZM165.978 257.883C165.978 255.467 167.706 253.771 170.058 253.771C172.394 253.771 174.122 255.467 174.122 257.883C174.122 260.299 172.394 261.995 170.058 261.995C167.706 261.995 165.978 260.299 165.978 257.883ZM167.498 257.883C167.498 259.515 168.538 260.651 170.058 260.651C171.562 260.651 172.618 259.515 172.618 257.883C172.618 256.251 171.562 255.115 170.058 255.115C168.538 255.115 167.498 256.251 167.498 257.883ZM177.917 261.803H176.413V255.243H174.877V253.979H176.413V251.531H177.917V253.979H179.453V255.243H177.917V261.803ZM184.762 253.355C184.762 251.371 186.362 250.027 188.746 250.027C190.954 250.027 192.378 251.259 192.506 253.259H190.922C190.842 252.107 190.026 251.435 188.73 251.435C187.274 251.435 186.33 252.171 186.33 253.307C186.33 254.235 186.858 254.795 187.946 255.051L189.85 255.499C191.738 255.931 192.698 256.955 192.698 258.587C192.698 260.667 191.082 261.995 188.618 261.995C186.266 261.995 184.698 260.763 184.602 258.779H186.202C186.234 259.883 187.162 260.587 188.618 260.587C190.154 260.587 191.13 259.867 191.13 258.715C191.13 257.803 190.634 257.227 189.53 256.971L187.626 256.539C185.738 256.107 184.762 255.019 184.762 253.355ZM196.7 261.995C195.02 261.995 194.028 261.051 194.028 259.627C194.028 258.187 195.1 257.291 196.94 257.147L199.404 256.955V256.731C199.404 255.419 198.62 254.955 197.564 254.955C196.3 254.955 195.58 255.515 195.58 256.459H194.268C194.268 254.827 195.612 253.755 197.628 253.755C199.564 253.755 200.876 254.779 200.876 256.891V261.803H199.596L199.436 260.539C199.036 261.435 197.964 261.995 196.7 261.995ZM197.132 260.827C198.556 260.827 199.42 259.899 199.42 258.427V258.011L197.42 258.171C196.092 258.299 195.548 258.811 195.548 259.579C195.548 260.411 196.156 260.827 197.132 260.827ZM205.042 261.803H203.538V255.243H202.002V253.979H203.538V251.531H205.042V253.979H206.578V255.243H205.042V261.803ZM208.664 252.123C208.12 252.123 207.672 251.675 207.672 251.131C207.672 250.571 208.12 250.139 208.664 250.139C209.208 250.139 209.656 250.571 209.656 251.131C209.656 251.675 209.208 252.123 208.664 252.123ZM207.928 261.803V253.979H209.432V261.803H207.928ZM210.975 259.531H212.415C212.415 260.331 213.023 260.811 214.015 260.811C215.071 260.811 215.679 260.379 215.679 259.659C215.679 259.131 215.423 258.811 214.607 258.603L213.231 258.283C211.839 257.947 211.183 257.259 211.183 256.107C211.183 254.667 212.399 253.755 214.127 253.755C215.839 253.755 216.959 254.715 216.991 256.203H215.551C215.519 255.419 214.991 254.923 214.079 254.923C213.135 254.923 212.607 255.339 212.607 256.059C212.607 256.587 212.991 256.939 213.759 257.131L215.135 257.467C216.463 257.787 217.119 258.395 217.119 259.563C217.119 261.051 215.839 261.995 213.983 261.995C212.143 261.995 210.975 261.019 210.975 259.531ZM224.083 261.803V255.243H220.611V261.803H219.107V255.243H217.955V253.979H219.107V252.731C219.107 250.811 220.147 250.027 221.507 250.027C221.795 250.027 222.147 250.043 222.435 250.091V251.387H221.763C220.851 251.387 220.611 251.883 220.611 252.731V253.979H225.587V261.803H224.083ZM224.835 252.059C224.291 252.059 223.875 251.643 223.875 251.099C223.875 250.555 224.291 250.139 224.835 250.139C225.363 250.139 225.779 250.555 225.779 251.099C225.779 251.643 225.363 252.059 224.835 252.059ZM231.101 261.995C228.797 261.995 227.213 260.331 227.213 257.899C227.213 255.451 228.765 253.755 231.037 253.755C233.261 253.755 234.717 255.291 234.717 257.611V258.171L228.669 258.187C228.781 259.835 229.645 260.747 231.133 260.747C232.301 260.747 233.069 260.267 233.325 259.371H234.733C234.349 261.051 233.037 261.995 231.101 261.995ZM231.037 255.019C229.725 255.019 228.893 255.803 228.701 257.179H233.213C233.213 255.883 232.365 255.019 231.037 255.019ZM239.533 261.995C237.261 261.995 235.885 260.299 235.885 257.915C235.885 255.515 237.277 253.755 239.597 253.755C240.797 253.755 241.805 254.283 242.333 255.243V250.027H243.821V261.803H242.477L242.349 260.379C241.837 261.451 240.781 261.995 239.533 261.995ZM239.837 260.635C241.373 260.635 242.317 259.499 242.317 257.867C242.317 256.267 241.373 255.115 239.837 255.115C238.301 255.115 237.405 256.267 237.405 257.867C237.405 259.483 238.301 260.635 239.837 260.635Z" fill="#EA6E7A"/>
<path d="M64.4201 153.902L69.9876 142.882V142.793H63.5252V140.811H72.4421V142.838L66.881 153.902H64.4201ZM78.8805 154.081C78.0282 154.081 77.2654 153.922 76.5922 153.602C75.9189 153.278 75.3841 152.835 74.9877 152.272C74.5957 151.71 74.3869 151.066 74.3613 150.342H76.6625C76.7051 150.879 76.9373 151.318 77.3592 151.659C77.7811 151.995 78.2882 152.164 78.8805 152.164C79.345 152.164 79.7583 152.057 80.1206 151.844C80.4828 151.631 80.7683 151.335 80.9771 150.956C81.1859 150.576 81.2882 150.144 81.2839 149.658C81.2882 149.164 81.1838 148.725 80.9707 148.341C80.7576 147.958 80.4657 147.657 80.095 147.44C79.7243 147.218 79.2981 147.108 78.8166 147.108C78.4245 147.103 78.0389 147.176 77.6596 147.325C77.2804 147.474 76.9799 147.67 76.7583 147.913L74.617 147.561L75.301 140.811H82.8947V142.793H77.2633L76.8862 146.264H76.9629C77.2058 145.978 77.5488 145.742 77.992 145.554C78.4352 145.363 78.921 145.267 79.4494 145.267C80.242 145.267 80.9494 145.454 81.5716 145.829C82.1937 146.2 82.6838 146.711 83.0417 147.363C83.3997 148.015 83.5787 148.761 83.5787 149.6C83.5787 150.466 83.3784 151.237 82.9778 151.914C82.5815 152.588 82.0297 153.118 81.3223 153.506C80.6191 153.89 79.8052 154.081 78.8805 154.081ZM92.7193 151.448V150.757C92.7193 150.25 92.8258 149.784 93.0389 149.358C93.2562 148.931 93.5716 148.588 93.9849 148.328C94.3983 148.069 94.899 147.939 95.487 147.939C96.0922 147.939 96.5993 148.069 97.0083 148.328C97.4174 148.584 97.7264 148.925 97.9352 149.351C98.1483 149.777 98.2548 150.246 98.2548 150.757V151.448C98.2548 151.955 98.1483 152.422 97.9352 152.848C97.7221 153.274 97.4089 153.617 96.9956 153.877C96.5865 154.137 96.0836 154.267 95.487 154.267C94.8904 154.267 94.3855 154.137 93.9721 153.877C93.5588 153.617 93.2456 153.274 93.0325 152.848C92.8237 152.422 92.7193 151.955 92.7193 151.448ZM94.3876 150.757V151.448C94.3876 151.784 94.4686 152.093 94.6305 152.375C94.7924 152.656 95.0779 152.797 95.487 152.797C95.9004 152.797 96.1838 152.658 96.3372 152.381C96.4949 152.1 96.5737 151.789 96.5737 151.448V150.757C96.5737 150.417 96.4991 150.105 96.35 149.824C96.2008 149.539 95.9132 149.396 95.487 149.396C95.0865 149.396 94.8031 149.539 94.6369 149.824C94.4707 150.105 94.3876 150.417 94.3876 150.757ZM86.0652 143.956V143.266C86.0652 142.755 86.1738 142.286 86.3912 141.86C86.6085 141.434 86.9238 141.093 87.3372 140.837C87.7505 140.577 88.2512 140.447 88.8393 140.447C89.4402 140.447 89.9451 140.577 90.3542 140.837C90.7676 141.093 91.0787 141.434 91.2875 141.86C91.4963 142.286 91.6007 142.755 91.6007 143.266V143.956C91.6007 144.468 91.4941 144.936 91.2811 145.363C91.0723 145.784 90.7612 146.123 90.3478 146.379C89.9345 146.635 89.4316 146.762 88.8393 146.762C88.2385 146.762 87.7314 146.635 87.318 146.379C86.9089 146.123 86.5978 145.782 86.3848 145.356C86.1717 144.93 86.0652 144.463 86.0652 143.956ZM87.7463 143.266V143.956C87.7463 144.297 87.8251 144.608 87.9828 144.89C88.1447 145.167 88.4302 145.305 88.8393 145.305C89.2484 145.305 89.5297 145.167 89.6831 144.89C89.8407 144.608 89.9196 144.297 89.9196 143.956V143.266C89.9196 142.925 89.845 142.614 89.6958 142.333C89.5467 142.047 89.2612 141.904 88.8393 141.904C88.4345 141.904 88.1511 142.047 87.9892 142.333C87.8272 142.618 87.7463 142.929 87.7463 143.266ZM86.7939 153.902L95.7939 140.811H97.3919L88.3919 153.902H86.7939Z" fill="white"/>
<path d="M165.699 100.898V99.1854L170.243 94.7301C170.678 94.2912 171.04 93.9013 171.33 93.5604C171.62 93.2195 171.837 92.8892 171.982 92.5696C172.127 92.25 172.199 91.9091 172.199 91.5469C172.199 91.1335 172.105 90.7798 171.918 90.4858C171.73 90.1875 171.473 89.9574 171.145 89.7955C170.816 89.6335 170.444 89.5526 170.026 89.5526C169.596 89.5526 169.218 89.642 168.895 89.821C168.571 89.9957 168.319 90.245 168.14 90.5689C167.966 90.8928 167.878 91.2784 167.878 91.7259H165.622C165.622 90.8949 165.811 90.1726 166.191 89.5589C166.57 88.9453 167.092 88.4702 167.757 88.1335C168.426 87.7969 169.193 87.6286 170.058 87.6286C170.936 87.6286 171.707 87.7926 172.372 88.1207C173.037 88.4489 173.552 88.8984 173.919 89.4695C174.289 90.0405 174.475 90.6925 174.475 91.4254C174.475 91.9155 174.381 92.397 174.194 92.87C174.006 93.343 173.676 93.8672 173.203 94.4425C172.734 95.0178 172.076 95.7145 171.228 96.5327L168.971 98.8274V98.9169H174.673V100.898H165.699ZM181.429 101.077C180.577 101.077 179.814 100.918 179.141 100.598C178.468 100.274 177.933 99.831 177.537 99.2685C177.145 98.706 176.936 98.0625 176.91 97.3381H179.211C179.254 97.875 179.486 98.3139 179.908 98.6548C180.33 98.9915 180.837 99.1598 181.429 99.1598C181.894 99.1598 182.307 99.0533 182.669 98.8402C183.032 98.6271 183.317 98.331 183.526 97.9517C183.735 97.5724 183.837 97.1399 183.833 96.6541C183.837 96.1598 183.733 95.7209 183.52 95.3374C183.306 94.9538 183.015 94.6534 182.644 94.4361C182.273 94.2145 181.847 94.1037 181.365 94.1037C180.973 94.0994 180.588 94.1719 180.208 94.321C179.829 94.4702 179.529 94.6662 179.307 94.9091L177.166 94.5575L177.85 87.8075H185.444V89.7891H179.812L179.435 93.2599H179.512C179.755 92.9744 180.098 92.7379 180.541 92.5504C180.984 92.3587 181.47 92.2628 181.998 92.2628C182.791 92.2628 183.498 92.4503 184.12 92.8253C184.743 93.196 185.233 93.7074 185.591 94.3594C185.949 95.0114 186.127 95.7571 186.127 96.5966C186.127 97.4616 185.927 98.233 185.527 98.9105C185.13 99.5838 184.578 100.114 183.871 100.502C183.168 100.886 182.354 101.077 181.429 101.077ZM195.268 98.4439V97.7536C195.268 97.2464 195.375 96.7798 195.588 96.3537C195.805 95.9276 196.12 95.5845 196.534 95.3246C196.947 95.0646 197.448 94.9347 198.036 94.9347C198.641 94.9347 199.148 95.0646 199.557 95.3246C199.966 95.5803 200.275 95.9212 200.484 96.3473C200.697 96.7734 200.804 97.2422 200.804 97.7536V98.4439C200.804 98.951 200.697 99.4176 200.484 99.8438C200.271 100.27 199.958 100.613 199.544 100.873C199.135 101.133 198.632 101.263 198.036 101.263C197.439 101.263 196.934 101.133 196.521 100.873C196.108 100.613 195.794 100.27 195.581 99.8438C195.373 99.4176 195.268 98.951 195.268 98.4439ZM196.936 97.7536V98.4439C196.936 98.7805 197.017 99.0895 197.179 99.3707C197.341 99.652 197.627 99.7926 198.036 99.7926C198.449 99.7926 198.733 99.6541 198.886 99.3771C199.044 99.0959 199.123 98.7848 199.123 98.4439V97.7536C199.123 97.4126 199.048 97.1016 198.899 96.8203C198.75 96.5348 198.462 96.392 198.036 96.392C197.635 96.392 197.352 96.5348 197.186 96.8203C197.02 97.1016 196.936 97.4126 196.936 97.7536ZM188.614 90.9524V90.2621C188.614 89.7507 188.723 89.282 188.94 88.8558C189.157 88.4297 189.473 88.0888 189.886 87.8331C190.299 87.5732 190.8 87.4432 191.388 87.4432C191.989 87.4432 192.494 87.5732 192.903 87.8331C193.316 88.0888 193.627 88.4297 193.836 88.8558C194.045 89.282 194.15 89.7507 194.15 90.2621V90.9524C194.15 91.4638 194.043 91.9325 193.83 92.3587C193.621 92.7805 193.31 93.1193 192.897 93.375C192.483 93.6307 191.98 93.7585 191.388 93.7585C190.787 93.7585 190.28 93.6307 189.867 93.375C189.458 93.1193 189.147 92.7784 188.934 92.3523C188.721 91.9261 188.614 91.4595 188.614 90.9524ZM190.295 90.2621V90.9524C190.295 91.2933 190.374 91.6044 190.532 91.8857C190.694 92.1626 190.979 92.3011 191.388 92.3011C191.797 92.3011 192.078 92.1626 192.232 91.8857C192.39 91.6044 192.468 91.2933 192.468 90.9524V90.2621C192.468 89.9212 192.394 89.6101 192.245 89.3288C192.096 89.0433 191.81 88.9006 191.388 88.9006C190.983 88.9006 190.7 89.0433 190.538 89.3288C190.376 89.6143 190.295 89.9254 190.295 90.2621ZM189.343 100.898L198.343 87.8075H199.941L190.941 100.898H189.343Z" fill="white"/>
</svg>
