<svg width="1293" height="536" viewBox="0 0 1293 536" fill="none" xmlns="http://www.w3.org/2000/svg">
<path d="M95.6133 115.5L207.113 71L186.113 213.5L353.113 138.5L439.113 227C492.613 199.667 601.513 146.1 609.113 150.5C616.713 154.9 681.28 220.667 712.613 253L833.613 150.5H1016.61L1201.61 346.5L1006.61 308.5L876.113 415.5L647.113 403.5L447.613 450L329.113 356.5L105.613 381.5" stroke="#B0C4DF" stroke-width="2"/>
<g filter="url(#filter0_d_2253_1443)">
<circle cx="615.002" cy="147.888" r="38.8884" fill="white"/>
</g>
<g clip-path="url(#clip0_2253_1443)">
<path d="M627.92 147.888V147.918C627.92 148.461 627.764 148.968 627.495 149.397L627.502 149.385C627.233 149.822 626.848 150.176 626.39 150.406L626.374 150.413C626.482 150.816 626.544 151.278 626.544 151.756V151.774C626.536 153.271 625.999 154.716 625.026 155.853L625.033 155.844C623.947 157.144 622.555 158.153 620.981 158.78L620.912 158.804C619.277 159.49 617.377 159.889 615.383 159.889L615.23 159.888H615.238L615.092 159.889C613.101 159.889 611.204 159.49 609.475 158.768L609.571 158.804C607.98 158.18 606.571 157.168 605.47 155.86L605.457 155.844C604.488 154.71 603.953 153.268 603.947 151.775V151.768C603.948 151.297 604.002 150.842 604.108 150.402L604.1 150.442C603.627 150.212 603.228 149.856 602.944 149.413L602.937 149.402C602.649 148.951 602.496 148.426 602.497 147.89C602.497 147.113 602.811 146.409 603.32 145.899C603.573 145.636 603.876 145.427 604.211 145.285C604.547 145.142 604.908 145.069 605.272 145.069H605.322H605.319H605.358C606.157 145.069 606.877 145.412 607.377 145.958L607.379 145.96C609.529 144.488 612.069 143.688 614.675 143.662H614.683L616.329 136.272C616.358 136.15 616.434 136.044 616.54 135.976L616.542 135.975C616.595 135.938 616.656 135.912 616.72 135.9C616.785 135.888 616.851 135.889 616.914 135.904L616.911 135.903L622.145 137.052C622.319 136.699 622.58 136.413 622.902 136.214L622.911 136.209C623.23 136.009 623.618 135.89 624.034 135.89C624.619 135.89 625.15 136.125 625.535 136.507C625.92 136.876 626.159 137.395 626.159 137.97V138.006V138.004V138.034C626.159 138.612 625.92 139.134 625.535 139.506L625.534 139.507C625.338 139.706 625.103 139.864 624.845 139.971C624.587 140.078 624.31 140.133 624.03 140.131C623.469 140.132 622.931 139.91 622.533 139.514C622.337 139.325 622.182 139.098 622.076 138.847C621.97 138.596 621.916 138.326 621.916 138.053V138.015V138.017L617.178 136.967L615.703 143.661C618.45 143.681 620.996 144.526 623.11 145.961L623.063 145.931C623.325 145.657 623.641 145.439 623.99 145.29C624.339 145.142 624.715 145.065 625.094 145.066C625.874 145.066 626.58 145.383 627.091 145.896C627.6 146.392 627.916 147.085 627.916 147.851V147.89V147.888H627.92ZM608.431 150.71V150.742C608.431 151.318 608.667 151.839 609.048 152.213C609.237 152.411 609.464 152.568 609.716 152.675C609.967 152.783 610.238 152.838 610.511 152.837H610.547H610.545C611.109 152.837 611.65 152.612 612.049 152.214C612.448 151.815 612.673 151.274 612.673 150.709V150.675C612.673 150.1 612.434 149.581 612.049 149.213L612.048 149.212C611.856 149.017 611.627 148.862 611.375 148.756C611.122 148.65 610.851 148.595 610.577 148.595H610.543H610.545C609.986 148.6 609.451 148.823 609.055 149.219C608.66 149.614 608.436 150.149 608.431 150.708V150.71ZM619.92 155.746C619.97 155.699 620.009 155.641 620.036 155.578C620.063 155.514 620.077 155.446 620.077 155.377C620.077 155.309 620.063 155.24 620.036 155.177C620.009 155.114 619.97 155.056 619.92 155.008C619.875 154.963 619.822 154.928 619.764 154.903C619.705 154.879 619.642 154.866 619.579 154.866H619.565H619.558C619.424 154.866 619.295 154.917 619.197 155.008C618.723 155.45 618.137 155.753 617.503 155.884L617.48 155.888C615.969 156.271 614.385 156.267 612.876 155.874L612.94 155.888C612.296 155.759 611.7 155.454 611.219 155.006L611.221 155.008C611.123 154.917 610.994 154.866 610.86 154.866H610.841C610.778 154.866 610.715 154.879 610.656 154.903C610.598 154.928 610.545 154.963 610.5 155.008C610.45 155.052 610.41 155.106 610.382 155.167C610.355 155.228 610.34 155.294 610.34 155.36V155.374C610.34 155.52 610.401 155.652 610.5 155.746C610.969 156.188 611.534 156.515 612.15 156.703L612.18 156.711C612.728 156.911 613.297 157.05 613.875 157.125L613.918 157.13C614.362 157.173 614.792 157.194 615.208 157.194C615.624 157.194 616.054 157.173 616.498 157.13C617.111 157.051 617.713 156.905 618.294 156.693L618.236 156.712C618.866 156.526 619.443 156.196 619.921 155.746L619.919 155.748L619.92 155.746ZM619.878 152.838H619.912C620.487 152.838 621.006 152.599 621.374 152.214L621.375 152.213C621.756 151.839 621.992 151.318 621.992 150.742V150.708V150.71C621.988 150.151 621.764 149.616 621.369 149.221C620.973 148.825 620.438 148.601 619.879 148.596H619.846C619.27 148.596 618.749 148.832 618.375 149.213C618.177 149.402 618.02 149.629 617.913 149.881C617.806 150.132 617.751 150.403 617.751 150.676V150.712V150.71C617.752 151.275 617.976 151.816 618.375 152.215C618.774 152.613 619.315 152.838 619.879 152.838H619.878Z" fill="#EA5A47"/>
</g>
<g filter="url(#filter1_d_2253_1443)">
<circle cx="875.486" cy="411.111" r="38.8884" fill="white"/>
</g>
<g clip-path="url(#clip1_2253_1443)">
<path d="M856.338 410.871C856.337 414.258 857.222 417.565 858.905 420.48L856.177 430.44L866.369 427.767C869.188 429.302 872.347 430.106 875.557 430.106H875.565C886.161 430.106 894.787 421.484 894.791 410.886C894.793 405.751 892.795 400.921 889.165 397.288C885.535 393.656 880.708 391.654 875.564 391.651C864.967 391.651 856.342 400.273 856.338 410.871" fill="url(#paint0_linear_2253_1443)"/>
<path d="M855.654 410.864C855.652 414.372 856.569 417.798 858.312 420.817L855.486 431.134L866.044 428.366C868.953 429.952 872.229 430.788 875.561 430.789H875.57C886.546 430.789 895.482 421.857 895.486 410.88C895.488 405.56 893.418 400.557 889.658 396.794C885.898 393.031 880.898 390.957 875.57 390.955C864.592 390.955 855.658 399.886 855.654 410.864ZM861.941 420.297L861.547 419.672C859.89 417.037 859.015 413.992 859.016 410.865C859.02 401.741 866.445 394.317 875.576 394.317C879.998 394.319 884.154 396.043 887.279 399.17C890.405 402.298 892.125 406.456 892.124 410.878C892.12 420.002 884.694 427.427 875.57 427.427H875.564C872.593 427.425 869.679 426.627 867.138 425.12L866.534 424.761L860.268 426.404L861.941 420.297Z" fill="url(#paint1_linear_2253_1443)"/>
<path d="M870.589 402.542C870.217 401.714 869.824 401.697 869.47 401.683C869.179 401.67 868.848 401.671 868.516 401.671C868.184 401.671 867.645 401.796 867.189 402.294C866.733 402.792 865.447 403.995 865.447 406.444C865.447 408.892 867.231 411.258 867.479 411.591C867.728 411.922 870.922 417.107 875.98 419.102C880.184 420.76 881.039 420.43 881.951 420.347C882.864 420.264 884.896 419.143 885.31 417.981C885.725 416.819 885.725 415.824 885.601 415.615C885.476 415.408 885.145 415.284 884.647 415.035C884.149 414.786 881.703 413.582 881.246 413.416C880.79 413.25 880.459 413.167 880.127 413.665C879.795 414.163 878.842 415.284 878.551 415.615C878.261 415.948 877.971 415.989 877.473 415.741C876.975 415.491 875.373 414.966 873.471 413.271C871.992 411.952 870.993 410.323 870.703 409.825C870.412 409.327 870.672 409.057 870.921 408.809C871.145 408.587 871.419 408.228 871.668 407.938C871.916 407.647 871.999 407.44 872.165 407.108C872.331 406.776 872.248 406.485 872.124 406.236C871.999 405.987 871.032 403.526 870.589 402.542Z" fill="white"/>
</g>
<g filter="url(#filter2_d_2253_1443)">
<circle cx="448.002" cy="433.443" r="38.8884" fill="white"/>
</g>
<g clip-path="url(#clip2_2253_1443)">
<path d="M468.802 434.444V430.631C468.802 427.404 465.575 425.645 462.936 425.645C461.099 425.789 459.354 426.507 457.949 427.698C457.344 427.059 456.616 426.549 455.81 426.196C455.004 425.843 454.136 425.655 453.256 425.644C451.401 425.707 449.631 426.436 448.27 427.698C447.774 427.007 447.109 426.456 446.339 426.096C445.568 425.736 444.719 425.581 443.871 425.644C442.995 425.576 442.119 425.764 441.348 426.184C440.577 426.605 439.945 427.24 439.527 428.013L435.658 436.79L431.36 426.944C431.131 426.419 430.703 426.006 430.17 425.795C429.637 425.584 429.043 425.592 428.516 425.818C428.249 425.932 428.008 426.099 427.806 426.308C427.605 426.517 427.447 426.764 427.343 427.035C427.239 427.306 427.19 427.595 427.199 427.885C427.209 428.175 427.276 428.46 427.398 428.724L432.724 440.31C432.724 440.31 433.604 442.364 435.363 442.364C435.903 442.444 436.455 442.344 436.932 442.078C437.41 441.813 437.786 441.398 438.004 440.897C438.409 440.286 441.489 433.812 443.344 429.886C443.416 429.735 443.538 429.612 443.688 429.539C443.839 429.466 444.01 429.446 444.174 429.483C444.337 429.52 444.483 429.611 444.588 429.742C444.693 429.873 444.75 430.035 444.75 430.203V439.937C444.742 440.542 444.963 441.128 445.369 441.578C445.776 442.027 446.337 442.306 446.94 442.359C447.261 442.38 447.582 442.335 447.885 442.227C448.188 442.119 448.465 441.95 448.699 441.731C448.934 441.511 449.121 441.246 449.249 440.951C449.377 440.656 449.443 440.338 449.443 440.017V431.95C449.458 431.299 449.727 430.679 450.193 430.224C450.659 429.769 451.284 429.514 451.936 429.514C452.587 429.514 453.213 429.769 453.679 430.224C454.144 430.679 454.414 431.299 454.428 431.95V440.017C454.428 440.64 454.676 441.236 455.116 441.676C455.556 442.117 456.153 442.364 456.775 442.364C457.397 442.364 457.994 442.117 458.434 441.676C458.874 441.236 459.122 440.64 459.122 440.017V431.95C459.122 431.289 459.384 430.655 459.852 430.187C460.32 429.72 460.954 429.457 461.615 429.457C462.276 429.457 462.911 429.72 463.378 430.187C463.846 430.655 464.109 431.289 464.109 431.95V440.017C464.109 440.64 464.356 441.236 464.796 441.676C465.236 442.117 465.833 442.364 466.455 442.364C467.078 442.364 467.674 442.117 468.115 441.676C468.555 441.236 468.802 440.64 468.802 440.017V434.444Z" fill="#162235"/>
</g>
<g filter="url(#filter3_d_2253_1443)">
<circle cx="1197" cy="360.888" r="38.8884" fill="white"/>
</g>
<path fill-rule="evenodd" clip-rule="evenodd" d="M1212.6 373.615C1213.68 372.882 1214.58 371.899 1215.21 370.749C1215.84 369.6 1216.19 368.316 1216.22 367.006C1216.22 362.181 1211.52 358.267 1205.73 358.267C1199.94 358.267 1195.24 362.181 1195.24 367.006C1195.24 371.83 1199.94 375.745 1205.73 375.745C1206.89 375.746 1208.04 375.585 1209.16 375.266L1209.46 375.22C1209.66 375.224 1209.85 375.28 1210.02 375.382L1212.32 376.708L1212.52 376.773C1212.57 376.773 1212.61 376.764 1212.65 376.747C1212.7 376.729 1212.73 376.703 1212.77 376.671C1212.8 376.638 1212.83 376.599 1212.84 376.557C1212.86 376.514 1212.87 376.469 1212.87 376.423L1212.81 376.168L1212.34 374.406L1212.3 374.182C1212.3 374.07 1212.33 373.96 1212.38 373.861C1212.43 373.762 1212.51 373.677 1212.6 373.612V373.615ZM1193.99 348.62C1187.03 348.62 1181.4 353.314 1181.4 359.108C1181.44 360.68 1181.86 362.219 1182.62 363.598C1183.37 364.977 1184.45 366.155 1185.75 367.034C1185.86 367.112 1185.95 367.214 1186.01 367.333C1186.07 367.452 1186.1 367.584 1186.1 367.718L1186.06 367.985L1185.49 370.101L1185.42 370.407C1185.42 370.518 1185.47 370.625 1185.55 370.703C1185.62 370.782 1185.73 370.827 1185.84 370.827L1186.09 370.749L1188.84 369.157C1189.04 369.034 1189.27 368.968 1189.51 368.964L1189.88 369.019C1191.21 369.402 1192.6 369.596 1193.99 369.596L1194.68 369.578C1194.4 368.75 1194.26 367.882 1194.25 367.008C1194.25 361.727 1199.39 357.444 1205.73 357.444L1206.42 357.461C1205.47 352.451 1200.26 348.62 1193.99 348.62H1193.99ZM1202.23 365.61C1201.96 365.61 1201.69 365.528 1201.46 365.375C1201.23 365.221 1201.05 365.002 1200.94 364.747C1200.84 364.491 1200.81 364.21 1200.86 363.938C1200.92 363.667 1201.05 363.418 1201.24 363.222C1201.44 363.026 1201.69 362.893 1201.96 362.839C1202.23 362.785 1202.51 362.813 1202.77 362.919C1203.03 363.025 1203.24 363.204 1203.4 363.434C1203.55 363.664 1203.63 363.935 1203.63 364.211C1203.63 364.395 1203.6 364.577 1203.53 364.747C1203.46 364.917 1203.35 365.071 1203.22 365.201C1203.09 365.331 1202.94 365.434 1202.77 365.504C1202.6 365.574 1202.42 365.61 1202.23 365.61ZM1209.23 365.61C1208.95 365.611 1208.68 365.529 1208.45 365.376C1208.22 365.222 1208.04 365.004 1207.93 364.748C1207.83 364.493 1207.8 364.211 1207.85 363.94C1207.91 363.668 1208.04 363.419 1208.24 363.223C1208.43 363.027 1208.68 362.894 1208.95 362.839C1209.22 362.785 1209.5 362.813 1209.76 362.919C1210.02 363.024 1210.23 363.204 1210.39 363.434C1210.54 363.664 1210.62 363.935 1210.62 364.211C1210.62 364.582 1210.48 364.937 1210.22 365.2C1209.95 365.462 1209.6 365.61 1209.23 365.61ZM1189.79 357.428C1189.46 357.428 1189.13 357.329 1188.86 357.145C1188.58 356.96 1188.37 356.698 1188.24 356.391C1188.11 356.084 1188.08 355.746 1188.14 355.421C1188.21 355.095 1188.37 354.796 1188.6 354.561C1188.84 354.327 1189.14 354.167 1189.46 354.102C1189.79 354.038 1190.13 354.071 1190.43 354.199C1190.74 354.326 1191 354.542 1191.19 354.818C1191.37 355.095 1191.47 355.419 1191.47 355.752C1191.47 355.972 1191.43 356.19 1191.34 356.394C1191.26 356.597 1191.13 356.782 1190.98 356.938C1190.82 357.094 1190.64 357.218 1190.43 357.302C1190.23 357.386 1190.01 357.429 1189.79 357.429V357.428ZM1198.18 357.428C1197.85 357.428 1197.52 357.329 1197.25 357.145C1196.97 356.96 1196.76 356.698 1196.63 356.391C1196.5 356.084 1196.47 355.746 1196.53 355.421C1196.6 355.095 1196.76 354.796 1196.99 354.561C1197.23 354.327 1197.53 354.167 1197.85 354.102C1198.18 354.038 1198.52 354.071 1198.82 354.199C1199.13 354.326 1199.39 354.542 1199.58 354.818C1199.76 355.095 1199.86 355.419 1199.86 355.752C1199.86 355.972 1199.82 356.19 1199.73 356.394C1199.65 356.597 1199.52 356.782 1199.37 356.938C1199.21 357.094 1199.03 357.218 1198.82 357.302C1198.62 357.386 1198.4 357.429 1198.18 357.429V357.428Z" fill="#E33FFE"/>
<g filter="url(#filter4_d_2253_1443)">
<circle cx="715.002" cy="251.888" r="38.8884" fill="white"/>
</g>
<g clip-path="url(#clip3_2253_1443)">
<path d="M720.109 248.53C721.655 249.634 723.548 250.284 725.593 250.284V246.351C725.206 246.351 724.82 246.311 724.442 246.23V249.327C722.397 249.327 720.503 248.677 718.957 247.572V255.6C718.957 259.615 715.7 262.87 711.683 262.87C710.184 262.87 708.79 262.418 707.633 261.641C708.954 262.991 710.796 263.828 712.834 263.828C716.852 263.828 720.109 260.573 720.109 256.557V248.53H720.109ZM721.53 244.562C720.74 243.699 720.221 242.584 720.109 241.352V240.846H719.017C719.292 242.412 720.229 243.751 721.53 244.562ZM710.174 258.559C709.732 257.981 709.494 257.273 709.495 256.546C709.495 254.709 710.985 253.22 712.823 253.22C713.165 253.22 713.506 253.272 713.832 253.376V249.354C713.451 249.302 713.066 249.28 712.681 249.288V252.418C712.354 252.315 712.013 252.262 711.671 252.262C709.833 252.262 708.343 253.751 708.343 255.588C708.343 256.887 709.088 258.011 710.174 258.559Z" fill="#FF004F"/>
<path d="M718.957 247.572C720.503 248.677 722.396 249.326 724.442 249.326V246.23C723.3 245.987 722.289 245.391 721.53 244.562C720.229 243.75 719.292 242.412 719.017 240.846H716.15V256.557C716.144 258.389 714.657 259.872 712.823 259.872C711.742 259.872 710.782 259.357 710.174 258.559C709.088 258.011 708.343 256.887 708.343 255.588C708.343 253.752 709.833 252.262 711.671 252.262C712.023 252.262 712.362 252.317 712.681 252.418V249.288C708.734 249.37 705.56 252.593 705.56 256.557C705.56 258.536 706.35 260.33 707.633 261.641C708.79 262.418 710.184 262.871 711.683 262.871C715.7 262.871 718.957 259.615 718.957 255.6L718.957 247.572Z" fill="black"/>
<path d="M724.442 246.23V245.393C723.413 245.395 722.403 245.107 721.53 244.562C722.303 245.408 723.321 245.991 724.442 246.23M719.018 240.846C718.991 240.696 718.971 240.546 718.957 240.394V239.888H714.999V255.6C714.992 257.431 713.505 258.914 711.671 258.914C711.151 258.915 710.638 258.793 710.174 258.559C710.782 259.357 711.742 259.872 712.823 259.872C714.657 259.872 716.144 258.389 716.151 256.557V240.846L719.018 240.846ZM712.681 249.288V248.397C712.35 248.352 712.017 248.329 711.683 248.329C707.665 248.329 704.408 251.584 704.408 255.6C704.408 258.117 705.688 260.336 707.633 261.641C706.35 260.33 705.56 258.536 705.56 256.557C705.56 252.593 708.734 249.37 712.681 249.288Z" fill="#00F2EA"/>
</g>
<g filter="url(#filter5_d_2253_1443)">
<circle cx="1023" cy="144.888" r="38.8884" fill="white"/>
</g>
<g clip-path="url(#clip4_2253_1443)">
<path fill-rule="evenodd" clip-rule="evenodd" d="M1023 129.514C1014.51 129.514 1007.63 136.398 1007.63 144.888C1007.63 153.379 1014.51 160.263 1023 160.263C1031.49 160.263 1038.38 153.379 1038.38 144.888C1038.38 136.398 1031.49 129.514 1023 129.514ZM1023.18 153.88C1018.23 153.88 1014.21 149.857 1014.21 144.888C1014.21 139.92 1018.23 135.897 1023.18 135.897C1025.6 135.897 1027.63 136.79 1029.18 138.24L1026.65 140.774V140.769C1025.71 139.87 1024.52 139.408 1023.18 139.408C1020.22 139.408 1017.82 141.914 1017.82 144.883C1017.82 147.849 1020.22 150.363 1023.18 150.363C1025.87 150.363 1027.69 148.823 1028.07 146.709H1023.18V143.202H1031.62C1031.73 143.804 1031.79 144.432 1031.79 145.091C1031.79 150.228 1028.36 153.88 1023.18 153.88Z" fill="#3B59C4"/>
</g>
<g filter="url(#filter6_d_2253_1443)">
<circle cx="220.002" cy="69.8884" r="38.8884" fill="white"/>
</g>
<g clip-path="url(#clip5_2253_1443)">
<path d="M231.472 64.083C231.334 63.5742 231.066 63.1104 230.693 62.7378C230.32 62.3651 229.857 62.0965 229.348 61.9589C227.485 61.4509 219.99 61.4509 219.99 61.4509C219.99 61.4509 212.494 61.4663 210.631 61.9742C210.123 62.1119 209.659 62.3805 209.286 62.7532C208.913 63.1259 208.645 63.5897 208.507 64.0984C207.944 67.4076 207.725 72.4501 208.523 75.6269C208.66 76.1356 208.929 76.5994 209.302 76.9721C209.674 77.3447 210.138 77.6133 210.647 77.751C212.509 78.2589 220.005 78.2589 220.005 78.2589C220.005 78.2589 227.501 78.2589 229.363 77.751C229.872 77.6133 230.336 77.3447 230.708 76.9721C231.081 76.5994 231.35 76.1356 231.487 75.6269C232.081 72.313 232.265 67.2736 231.472 64.083Z" fill="#FF0000"/>
<path d="M217.604 73.4551L223.822 69.8534L217.604 66.2517V73.4551Z" fill="white"/>
</g>
<g filter="url(#filter7_d_2253_1443)">
<circle cx="1003" cy="310.888" r="38.8884" fill="white"/>
</g>
<path d="M989.652 303.488C989.652 303.288 989.652 303.113 989.577 302.938C989.5 302.754 989.38 302.592 989.227 302.463L985.952 298.913V298.388H996.102L1003.95 313.863L1010.83 298.388H1020.5V298.913L1017.7 301.313C1017.7 301.313 1017.5 301.513 1017.43 301.638C1017.38 301.763 1017.35 301.888 1017.38 302.038V319.738C1017.38 319.863 1017.38 320.013 1017.43 320.138C1017.48 320.263 1017.58 320.363 1017.7 320.463L1020.43 322.863V323.388H1006.7V322.863L1009.53 320.388C1009.8 320.138 1009.8 320.063 1009.8 319.688V305.363L1001.95 323.313H1000.9L991.752 305.363V317.413C991.677 317.913 991.852 318.438 992.252 318.788L995.927 322.813V323.338H985.502V322.813L989.177 318.788C989.377 318.613 989.527 318.388 989.602 318.138C989.677 317.888 989.702 317.638 989.652 317.388V303.488Z" fill="#0F172A"/>
<g filter="url(#filter8_d_2253_1443)">
<circle cx="364.002" cy="130.888" r="38.8884" fill="white"/>
</g>
<path d="M364.002 114.271C360.715 114.271 357.502 115.246 354.769 117.072C352.037 118.898 349.907 121.493 348.649 124.53C347.391 127.566 347.062 130.907 347.703 134.131C348.344 137.355 349.927 140.316 352.251 142.64C354.575 144.964 357.536 146.547 360.76 147.188C363.983 147.829 367.325 147.5 370.361 146.242C373.398 144.984 375.993 142.854 377.819 140.122C379.645 137.389 380.62 134.176 380.62 130.889C380.62 126.482 378.869 122.255 375.753 119.138C372.636 116.022 368.409 114.271 364.002 114.271ZM363.895 126.675C363.631 126.675 363.377 126.78 363.19 126.967C363.003 127.154 362.898 127.408 362.898 127.672V133.773C362.898 134.891 362.454 135.963 361.664 136.753C360.873 137.543 359.802 137.987 358.684 137.987C357.566 137.987 356.495 137.543 355.704 136.753C354.914 135.963 354.47 134.891 354.47 133.773V130.996H357.687V133.655C357.687 133.919 357.792 134.173 357.979 134.36C358.166 134.547 358.42 134.652 358.684 134.652C358.948 134.652 359.202 134.547 359.389 134.36C359.576 134.173 359.681 133.919 359.681 133.655V127.72C359.738 126.642 360.207 125.628 360.99 124.886C361.772 124.143 362.81 123.729 363.889 123.729C364.968 123.729 366.006 124.143 366.789 124.886C367.571 125.628 368.04 126.642 368.097 127.72V128.907L366.222 129.512L364.892 128.907V127.72C364.897 127.585 364.875 127.451 364.827 127.325C364.779 127.2 364.706 127.085 364.614 126.987C364.521 126.89 364.409 126.812 364.286 126.759C364.162 126.705 364.03 126.677 363.895 126.675ZM373.308 133.797C373.251 134.875 372.782 135.889 372 136.631C371.217 137.374 370.179 137.787 369.1 137.787C368.021 137.787 366.983 137.374 366.2 136.631C365.418 135.889 364.949 134.875 364.892 133.797V131.055L366.222 131.661L368.097 131.055V133.773C368.097 134.038 368.202 134.291 368.389 134.478C368.576 134.665 368.83 134.771 369.094 134.771C369.359 134.771 369.612 134.665 369.799 134.478C369.986 134.291 370.091 134.038 370.091 133.773V131.115H373.308V133.797Z" fill="#11C923"/>
<g filter="url(#filter9_d_2253_1443)">
<circle cx="442.002" cy="239.888" r="38.8884" fill="white"/>
</g>
<path d="M436.469 252.016C438.76 252.031 441.031 251.59 443.151 250.72C445.271 249.849 447.197 248.567 448.817 246.947C450.438 245.326 451.72 243.4 452.59 241.28C453.461 239.161 453.901 236.889 453.887 234.598V233.797C455.075 232.927 456.103 231.858 456.926 230.637C455.807 231.126 454.624 231.45 453.412 231.6C454.697 230.834 455.661 229.63 456.125 228.208C454.928 228.926 453.615 229.431 452.245 229.7C451.323 228.717 450.102 228.066 448.772 227.847C447.442 227.627 446.076 227.852 444.887 228.487C443.698 229.122 442.751 230.131 442.193 231.358C441.635 232.586 441.497 233.962 441.8 235.276C439.366 235.157 436.985 234.526 434.811 233.425C432.638 232.324 430.72 230.778 429.184 228.887C428.409 230.231 428.174 231.82 428.527 233.331C428.879 234.842 429.793 236.163 431.083 237.026C430.131 236.989 429.202 236.729 428.37 236.266V236.334C428.361 237.739 428.835 239.105 429.711 240.203C430.587 241.302 431.814 242.067 433.186 242.371C432.301 242.609 431.374 242.646 430.472 242.479C430.87 243.678 431.628 244.724 432.643 245.474C433.658 246.225 434.881 246.643 436.143 246.671C433.985 248.408 431.303 249.365 428.533 249.384C428.047 249.37 427.562 249.33 427.081 249.262C429.885 251.049 433.144 251.991 436.469 251.975" fill="#3C7FEE"/>
<g filter="url(#filter10_d_2253_1443)">
<circle cx="842.002" cy="152.888" r="38.8884" fill="white"/>
</g>
<path d="M851.329 169.845H845.677C840.604 169.845 836.775 167.217 836.775 160.943V150.882H832.111V145.427C834.215 144.86 836.079 143.63 837.428 141.919C838.777 140.209 839.539 138.109 839.601 135.931H844.914V144.579H851.075V150.882H844.914V159.643C844.914 162.271 846.242 163.162 848.334 163.162H851.329V169.845Z" fill="#EF3FFE"/>
<g filter="url(#filter11_d_2253_1443)">
<circle cx="181.142" cy="225.666" r="38.8884" fill="white"/>
</g>
<path d="M197.817 218.189C197.619 217.453 197.231 216.782 196.692 216.243C196.153 215.704 195.482 215.316 194.746 215.118C192.035 214.384 181.142 214.384 181.142 214.384C181.142 214.384 170.248 214.384 167.538 215.118C166.801 215.316 166.13 215.704 165.591 216.243C165.052 216.782 164.664 217.453 164.466 218.189C163.96 220.954 163.714 223.76 163.732 226.571C163.714 229.381 163.96 232.188 164.466 234.952C164.664 235.688 165.052 236.359 165.591 236.899C166.13 237.438 166.801 237.826 167.538 238.024C170.248 238.757 181.142 238.757 181.142 238.757C181.142 238.757 192.035 238.757 194.746 238.024C195.482 237.826 196.153 237.438 196.692 236.899C197.231 236.359 197.619 235.688 197.817 234.952C198.324 232.188 198.569 229.381 198.551 226.571C198.569 223.76 198.324 220.954 197.817 218.189ZM177.66 231.794V221.348L186.7 226.571L177.66 231.794Z" fill="#FE6D3F"/>
<g filter="url(#filter12_d_2253_1443)">
<circle cx="316.787" cy="358.408" r="38.8884" fill="white"/>
</g>
<path d="M307.742 362.524C307.742 363.172 307.549 363.806 307.189 364.345C306.829 364.884 306.317 365.304 305.718 365.552C305.119 365.8 304.46 365.865 303.824 365.738C303.189 365.611 302.605 365.299 302.146 364.841C301.688 364.382 301.376 363.798 301.25 363.162C301.123 362.526 301.188 361.867 301.437 361.269C301.685 360.67 302.105 360.158 302.644 359.798C303.184 359.438 303.817 359.246 304.466 359.246H307.742V362.524ZM309.393 362.524C309.393 361.654 309.738 360.82 310.353 360.206C310.968 359.591 311.801 359.246 312.671 359.246C313.54 359.246 314.374 359.591 314.989 360.206C315.604 360.82 315.949 361.654 315.949 362.524V370.731C315.949 371.6 315.604 372.434 314.989 373.048C314.374 373.663 313.541 374.008 312.671 374.008C311.802 374.008 310.969 373.663 310.354 373.048C309.739 372.434 309.394 371.6 309.394 370.731L309.393 362.524ZM312.671 349.362C312.023 349.362 311.39 349.17 310.851 348.81C310.312 348.449 309.891 347.937 309.643 347.338C309.395 346.739 309.331 346.08 309.457 345.445C309.584 344.809 309.896 344.225 310.354 343.767C310.813 343.308 311.397 342.996 312.033 342.87C312.669 342.744 313.328 342.809 313.927 343.057C314.525 343.305 315.037 343.725 315.397 344.265C315.757 344.804 315.949 345.438 315.949 346.086V349.362H312.671ZM312.671 351.013C313.541 351.013 314.375 351.358 314.989 351.973C315.604 352.588 315.95 353.422 315.95 354.291C315.95 355.16 315.604 355.994 314.989 356.609C314.375 357.224 313.541 357.569 312.671 357.569H304.463C303.594 357.569 302.76 357.224 302.145 356.609C301.531 355.995 301.186 355.161 301.186 354.292C301.186 353.422 301.531 352.589 302.145 351.974C302.76 351.36 303.594 351.014 304.463 351.014L312.671 351.013ZM325.833 354.292C325.833 353.643 326.025 353.01 326.386 352.471C326.746 351.932 327.258 351.512 327.857 351.264C328.456 351.016 329.115 350.951 329.75 351.077C330.386 351.204 330.97 351.516 331.429 351.975C331.887 352.433 332.199 353.017 332.325 353.653C332.452 354.289 332.386 354.948 332.138 355.547C331.89 356.146 331.47 356.657 330.931 357.017C330.391 357.377 329.758 357.569 329.109 357.569H325.833V354.292ZM324.182 354.292C324.182 355.161 323.837 355.995 323.222 356.61C322.607 357.224 321.773 357.57 320.904 357.57C320.035 357.57 319.201 357.224 318.586 356.61C317.971 355.995 317.626 355.161 317.626 354.292V346.083C317.626 345.214 317.971 344.38 318.586 343.766C319.201 343.151 320.034 342.806 320.903 342.806C321.773 342.806 322.606 343.151 323.221 343.766C323.836 344.38 324.181 345.214 324.181 346.083L324.182 354.292ZM320.903 367.453C321.552 367.453 322.185 367.646 322.724 368.006C323.263 368.366 323.683 368.878 323.931 369.477C324.179 370.076 324.244 370.735 324.118 371.371C323.991 372.007 323.679 372.591 323.22 373.049C322.762 373.507 322.178 373.819 321.542 373.945C320.906 374.072 320.247 374.007 319.648 373.758C319.049 373.51 318.538 373.09 318.178 372.551C317.818 372.012 317.626 371.378 317.626 370.73V367.453H320.903ZM320.903 365.802C320.034 365.802 319.2 365.457 318.585 364.842C317.971 364.227 317.625 363.394 317.625 362.524C317.625 361.655 317.971 360.821 318.585 360.206C319.2 359.592 320.034 359.246 320.903 359.246H329.111C329.98 359.246 330.813 359.592 331.428 360.206C332.043 360.821 332.388 361.654 332.388 362.524C332.388 363.393 332.043 364.226 331.428 364.841C330.813 365.456 329.98 365.801 329.111 365.801L320.903 365.802Z" fill="#36C055"/>
<g filter="url(#filter13_d_2253_1443)">
<circle cx="76.0017" cy="379.888" r="38.8884" fill="white"/>
</g>
<g clip-path="url(#clip6_2253_1443)">
<path d="M92.002 379.888C92.002 371.052 84.8385 363.888 76.002 363.888C67.1655 363.888 60.002 371.052 60.002 379.888C60.002 387.874 65.853 394.494 73.502 395.694V384.513H69.4395V379.888H73.502V376.363C73.502 372.353 75.8907 370.138 79.5455 370.138C81.296 370.138 83.127 370.451 83.127 370.451V374.388H81.1095C79.1218 374.388 78.502 375.622 78.502 376.887V379.888H82.9395L82.2301 384.513H78.502V395.694C86.151 394.494 92.002 387.875 92.002 379.888Z" fill="#1877F2"/>
<path d="M82.2301 384.513L82.9395 379.888H78.502V376.887C78.502 375.622 79.1218 374.388 81.1095 374.388H83.127V370.451C83.127 370.451 81.296 370.138 79.5453 370.138C75.8907 370.138 73.502 372.353 73.502 376.363V379.888H69.4395V384.513H73.502V395.694C74.329 395.824 75.1648 395.889 76.002 395.888C76.8391 395.889 77.6749 395.824 78.502 395.694V384.513H82.2301Z" fill="white"/>
</g>
<g filter="url(#filter14_d_2253_1443)">
<circle cx="656.217" cy="407.084" r="38.8884" fill="white"/>
</g>
<path d="M674.021 417.302H671.421C671.421 417.597 671.363 417.889 671.249 418.161C671.136 418.433 670.97 418.68 670.761 418.888C670.552 419.096 670.304 419.26 670.032 419.372C669.759 419.483 669.467 419.54 669.172 419.538C667.677 419.538 666.806 418.42 665.818 416.938C667.741 415.623 669.314 413.857 670.399 411.795C671.484 409.733 672.049 407.438 672.045 405.107C672.162 395.76 664.44 389.65 656.223 389.65C648.007 389.65 640.22 395.864 640.22 404.964C640.22 414.065 648.02 420.292 656.041 420.292C657.395 420.279 658.74 420.069 660.032 419.668C661.528 422.411 663.4 424.53 667.131 424.53C668.081 424.594 669.034 424.447 669.922 424.102C670.81 423.756 671.611 423.219 672.268 422.529C672.926 421.84 673.424 421.014 673.726 420.111C674.029 419.207 674.13 418.248 674.021 417.302ZM663.439 412.817C662.709 411.55 661.654 410.501 660.383 409.779C659.113 409.057 657.672 408.687 656.21 408.709C654.468 408.65 652.756 409.176 651.348 410.204L652.18 412.284C652.543 412.177 652.921 412.133 653.298 412.154C655.664 412.154 657.198 414.143 658.654 416.886C657.841 417.073 657.006 417.156 656.171 417.133C650.438 417.172 648.02 413.064 648.02 405.094C648.02 397.125 650.503 393.004 656.119 393.004C661.736 393.004 664.336 397.112 664.336 405.094C664.4 407.7 664.084 410.302 663.4 412.817H663.439Z" fill="#302E97"/>
<g filter="url(#filter15_d_2253_1443)">
<circle cx="76.0017" cy="130.888" r="38.8884" fill="white"/>
</g>
<g clip-path="url(#clip7_2253_1443)">
<path d="M86.4313 146.61L80.9614 141.141L78.31 143.793C78.0811 144.022 77.7488 144.116 77.432 144.043C77.1153 143.968 76.8607 143.735 76.7582 143.427L71.4546 127.516C71.3419 127.18 71.4298 126.808 71.6807 126.557C71.9306 126.307 72.3033 126.215 72.6402 126.331L88.5502 131.634C88.8588 131.737 89.0913 131.992 89.1664 132.308C89.2406 132.624 89.1462 132.956 88.9164 133.186L86.2651 135.838L91.734 141.307C92.1002 141.674 92.1002 142.267 91.734 142.633L87.7569 146.61C87.3907 146.977 86.7974 146.977 86.4313 146.61Z" fill="#64748B"/>
<path d="M72.1895 122.388C71.6713 122.388 71.252 121.969 71.252 121.451V115.826C71.252 115.308 71.6713 114.888 72.1895 114.888C72.7076 114.888 73.127 115.308 73.127 115.826V121.451C73.127 121.969 72.7076 122.388 72.1895 122.388Z" fill="#64748B"/>
<path d="M67.5495 123.761L63.5715 119.783C63.2053 119.417 63.2053 118.824 63.5715 118.458C63.9377 118.091 64.531 118.091 64.8972 118.458L68.8751 122.435C69.2413 122.802 69.2413 123.395 68.8751 123.761C68.509 124.127 67.9157 124.127 67.5495 123.761Z" fill="#64748B"/>
<path d="M63.5715 135.688C63.2053 135.322 63.2053 134.728 63.5715 134.362L67.5495 130.384C67.9156 130.018 68.509 130.018 68.8751 130.384C69.2413 130.75 69.2413 131.344 68.8751 131.71L64.8972 135.688C64.531 136.054 63.9378 136.054 63.5715 135.688Z" fill="#64748B"/>
<path d="M75.4973 123.761C75.1311 123.395 75.1311 122.802 75.4973 122.435L79.4752 118.458C79.8414 118.091 80.4347 118.091 80.8009 118.458C81.1671 118.824 81.1671 119.417 80.8009 119.783L76.823 123.761C76.4568 124.127 75.8635 124.127 75.4973 123.761Z" fill="#64748B"/>
<path d="M66.5645 128.013H60.9395C60.4213 128.013 60.002 127.594 60.002 127.076C60.002 126.558 60.4213 126.138 60.9395 126.138H66.5645C67.0826 126.138 67.502 126.558 67.502 127.076C67.502 127.594 67.0826 128.013 66.5645 128.013Z" fill="#64748B"/>
</g>
<defs>
<filter id="filter0_d_2253_1443" x="539.113" y="78" width="171.777" height="171.777" filterUnits="userSpaceOnUse" color-interpolation-filters="sRGB">
<feFlood flood-opacity="0" result="BackgroundImageFix"/>
<feColorMatrix in="SourceAlpha" type="matrix" values="0 0 0 0 0 0 0 0 0 0 0 0 0 0 0 0 0 0 127 0" result="hardAlpha"/>
<feOffset dx="10" dy="16"/>
<feGaussianBlur stdDeviation="23.5"/>
<feComposite in2="hardAlpha" operator="out"/>
<feColorMatrix type="matrix" values="0 0 0 0 0.722882 0 0 0 0 0.750382 0 0 0 0 0.795833 0 0 0 0.47 0"/>
<feBlend mode="normal" in2="BackgroundImageFix" result="effect1_dropShadow_2253_1443"/>
<feBlend mode="normal" in="SourceGraphic" in2="effect1_dropShadow_2253_1443" result="shape"/>
</filter>
<filter id="filter1_d_2253_1443" x="799.598" y="341.223" width="171.777" height="171.777" filterUnits="userSpaceOnUse" color-interpolation-filters="sRGB">
<feFlood flood-opacity="0" result="BackgroundImageFix"/>
<feColorMatrix in="SourceAlpha" type="matrix" values="0 0 0 0 0 0 0 0 0 0 0 0 0 0 0 0 0 0 127 0" result="hardAlpha"/>
<feOffset dx="10" dy="16"/>
<feGaussianBlur stdDeviation="23.5"/>
<feComposite in2="hardAlpha" operator="out"/>
<feColorMatrix type="matrix" values="0 0 0 0 0.722882 0 0 0 0 0.750382 0 0 0 0 0.795833 0 0 0 0.47 0"/>
<feBlend mode="normal" in2="BackgroundImageFix" result="effect1_dropShadow_2253_1443"/>
<feBlend mode="normal" in="SourceGraphic" in2="effect1_dropShadow_2253_1443" result="shape"/>
</filter>
<filter id="filter2_d_2253_1443" x="372.113" y="363.555" width="171.777" height="171.777" filterUnits="userSpaceOnUse" color-interpolation-filters="sRGB">
<feFlood flood-opacity="0" result="BackgroundImageFix"/>
<feColorMatrix in="SourceAlpha" type="matrix" values="0 0 0 0 0 0 0 0 0 0 0 0 0 0 0 0 0 0 127 0" result="hardAlpha"/>
<feOffset dx="10" dy="16"/>
<feGaussianBlur stdDeviation="23.5"/>
<feComposite in2="hardAlpha" operator="out"/>
<feColorMatrix type="matrix" values="0 0 0 0 0.722882 0 0 0 0 0.750382 0 0 0 0 0.795833 0 0 0 0.47 0"/>
<feBlend mode="normal" in2="BackgroundImageFix" result="effect1_dropShadow_2253_1443"/>
<feBlend mode="normal" in="SourceGraphic" in2="effect1_dropShadow_2253_1443" result="shape"/>
</filter>
<filter id="filter3_d_2253_1443" x="1121.11" y="291" width="171.777" height="171.777" filterUnits="userSpaceOnUse" color-interpolation-filters="sRGB">
<feFlood flood-opacity="0" result="BackgroundImageFix"/>
<feColorMatrix in="SourceAlpha" type="matrix" values="0 0 0 0 0 0 0 0 0 0 0 0 0 0 0 0 0 0 127 0" result="hardAlpha"/>
<feOffset dx="10" dy="16"/>
<feGaussianBlur stdDeviation="23.5"/>
<feComposite in2="hardAlpha" operator="out"/>
<feColorMatrix type="matrix" values="0 0 0 0 0.722882 0 0 0 0 0.750382 0 0 0 0 0.795833 0 0 0 0.47 0"/>
<feBlend mode="normal" in2="BackgroundImageFix" result="effect1_dropShadow_2253_1443"/>
<feBlend mode="normal" in="SourceGraphic" in2="effect1_dropShadow_2253_1443" result="shape"/>
</filter>
<filter id="filter4_d_2253_1443" x="639.113" y="182" width="171.777" height="171.777" filterUnits="userSpaceOnUse" color-interpolation-filters="sRGB">
<feFlood flood-opacity="0" result="BackgroundImageFix"/>
<feColorMatrix in="SourceAlpha" type="matrix" values="0 0 0 0 0 0 0 0 0 0 0 0 0 0 0 0 0 0 127 0" result="hardAlpha"/>
<feOffset dx="10" dy="16"/>
<feGaussianBlur stdDeviation="23.5"/>
<feComposite in2="hardAlpha" operator="out"/>
<feColorMatrix type="matrix" values="0 0 0 0 0.722882 0 0 0 0 0.750382 0 0 0 0 0.795833 0 0 0 0.47 0"/>
<feBlend mode="normal" in2="BackgroundImageFix" result="effect1_dropShadow_2253_1443"/>
<feBlend mode="normal" in="SourceGraphic" in2="effect1_dropShadow_2253_1443" result="shape"/>
</filter>
<filter id="filter5_d_2253_1443" x="947.113" y="75" width="171.777" height="171.777" filterUnits="userSpaceOnUse" color-interpolation-filters="sRGB">
<feFlood flood-opacity="0" result="BackgroundImageFix"/>
<feColorMatrix in="SourceAlpha" type="matrix" values="0 0 0 0 0 0 0 0 0 0 0 0 0 0 0 0 0 0 127 0" result="hardAlpha"/>
<feOffset dx="10" dy="16"/>
<feGaussianBlur stdDeviation="23.5"/>
<feComposite in2="hardAlpha" operator="out"/>
<feColorMatrix type="matrix" values="0 0 0 0 0.722882 0 0 0 0 0.750382 0 0 0 0 0.795833 0 0 0 0.47 0"/>
<feBlend mode="normal" in2="BackgroundImageFix" result="effect1_dropShadow_2253_1443"/>
<feBlend mode="normal" in="SourceGraphic" in2="effect1_dropShadow_2253_1443" result="shape"/>
</filter>
<filter id="filter6_d_2253_1443" x="144.113" y="0" width="171.777" height="171.777" filterUnits="userSpaceOnUse" color-interpolation-filters="sRGB">
<feFlood flood-opacity="0" result="BackgroundImageFix"/>
<feColorMatrix in="SourceAlpha" type="matrix" values="0 0 0 0 0 0 0 0 0 0 0 0 0 0 0 0 0 0 127 0" result="hardAlpha"/>
<feOffset dx="10" dy="16"/>
<feGaussianBlur stdDeviation="23.5"/>
<feComposite in2="hardAlpha" operator="out"/>
<feColorMatrix type="matrix" values="0 0 0 0 0.722882 0 0 0 0 0.750382 0 0 0 0 0.795833 0 0 0 0.47 0"/>
<feBlend mode="normal" in2="BackgroundImageFix" result="effect1_dropShadow_2253_1443"/>
<feBlend mode="normal" in="SourceGraphic" in2="effect1_dropShadow_2253_1443" result="shape"/>
</filter>
<filter id="filter7_d_2253_1443" x="927.113" y="241" width="171.777" height="171.777" filterUnits="userSpaceOnUse" color-interpolation-filters="sRGB">
<feFlood flood-opacity="0" result="BackgroundImageFix"/>
<feColorMatrix in="SourceAlpha" type="matrix" values="0 0 0 0 0 0 0 0 0 0 0 0 0 0 0 0 0 0 127 0" result="hardAlpha"/>
<feOffset dx="10" dy="16"/>
<feGaussianBlur stdDeviation="23.5"/>
<feComposite in2="hardAlpha" operator="out"/>
<feColorMatrix type="matrix" values="0 0 0 0 0.722882 0 0 0 0 0.750382 0 0 0 0 0.795833 0 0 0 0.47 0"/>
<feBlend mode="normal" in2="BackgroundImageFix" result="effect1_dropShadow_2253_1443"/>
<feBlend mode="normal" in="SourceGraphic" in2="effect1_dropShadow_2253_1443" result="shape"/>
</filter>
<filter id="filter8_d_2253_1443" x="288.113" y="61" width="171.777" height="171.777" filterUnits="userSpaceOnUse" color-interpolation-filters="sRGB">
<feFlood flood-opacity="0" result="BackgroundImageFix"/>
<feColorMatrix in="SourceAlpha" type="matrix" values="0 0 0 0 0 0 0 0 0 0 0 0 0 0 0 0 0 0 127 0" result="hardAlpha"/>
<feOffset dx="10" dy="16"/>
<feGaussianBlur stdDeviation="23.5"/>
<feComposite in2="hardAlpha" operator="out"/>
<feColorMatrix type="matrix" values="0 0 0 0 0.722882 0 0 0 0 0.750382 0 0 0 0 0.795833 0 0 0 0.47 0"/>
<feBlend mode="normal" in2="BackgroundImageFix" result="effect1_dropShadow_2253_1443"/>
<feBlend mode="normal" in="SourceGraphic" in2="effect1_dropShadow_2253_1443" result="shape"/>
</filter>
<filter id="filter9_d_2253_1443" x="366.113" y="170" width="171.777" height="171.777" filterUnits="userSpaceOnUse" color-interpolation-filters="sRGB">
<feFlood flood-opacity="0" result="BackgroundImageFix"/>
<feColorMatrix in="SourceAlpha" type="matrix" values="0 0 0 0 0 0 0 0 0 0 0 0 0 0 0 0 0 0 127 0" result="hardAlpha"/>
<feOffset dx="10" dy="16"/>
<feGaussianBlur stdDeviation="23.5"/>
<feComposite in2="hardAlpha" operator="out"/>
<feColorMatrix type="matrix" values="0 0 0 0 0.722882 0 0 0 0 0.750382 0 0 0 0 0.795833 0 0 0 0.47 0"/>
<feBlend mode="normal" in2="BackgroundImageFix" result="effect1_dropShadow_2253_1443"/>
<feBlend mode="normal" in="SourceGraphic" in2="effect1_dropShadow_2253_1443" result="shape"/>
</filter>
<filter id="filter10_d_2253_1443" x="766.113" y="83" width="171.777" height="171.777" filterUnits="userSpaceOnUse" color-interpolation-filters="sRGB">
<feFlood flood-opacity="0" result="BackgroundImageFix"/>
<feColorMatrix in="SourceAlpha" type="matrix" values="0 0 0 0 0 0 0 0 0 0 0 0 0 0 0 0 0 0 127 0" result="hardAlpha"/>
<feOffset dx="10" dy="16"/>
<feGaussianBlur stdDeviation="23.5"/>
<feComposite in2="hardAlpha" operator="out"/>
<feColorMatrix type="matrix" values="0 0 0 0 0.722882 0 0 0 0 0.750382 0 0 0 0 0.795833 0 0 0 0.47 0"/>
<feBlend mode="normal" in2="BackgroundImageFix" result="effect1_dropShadow_2253_1443"/>
<feBlend mode="normal" in="SourceGraphic" in2="effect1_dropShadow_2253_1443" result="shape"/>
</filter>
<filter id="filter11_d_2253_1443" x="105.254" y="155.777" width="171.777" height="171.777" filterUnits="userSpaceOnUse" color-interpolation-filters="sRGB">
<feFlood flood-opacity="0" result="BackgroundImageFix"/>
<feColorMatrix in="SourceAlpha" type="matrix" values="0 0 0 0 0 0 0 0 0 0 0 0 0 0 0 0 0 0 127 0" result="hardAlpha"/>
<feOffset dx="10" dy="16"/>
<feGaussianBlur stdDeviation="23.5"/>
<feComposite in2="hardAlpha" operator="out"/>
<feColorMatrix type="matrix" values="0 0 0 0 0.722882 0 0 0 0 0.750382 0 0 0 0 0.795833 0 0 0 0.47 0"/>
<feBlend mode="normal" in2="BackgroundImageFix" result="effect1_dropShadow_2253_1443"/>
<feBlend mode="normal" in="SourceGraphic" in2="effect1_dropShadow_2253_1443" result="shape"/>
</filter>
<filter id="filter12_d_2253_1443" x="240.898" y="288.52" width="171.777" height="171.777" filterUnits="userSpaceOnUse" color-interpolation-filters="sRGB">
<feFlood flood-opacity="0" result="BackgroundImageFix"/>
<feColorMatrix in="SourceAlpha" type="matrix" values="0 0 0 0 0 0 0 0 0 0 0 0 0 0 0 0 0 0 127 0" result="hardAlpha"/>
<feOffset dx="10" dy="16"/>
<feGaussianBlur stdDeviation="23.5"/>
<feComposite in2="hardAlpha" operator="out"/>
<feColorMatrix type="matrix" values="0 0 0 0 0.722882 0 0 0 0 0.750382 0 0 0 0 0.795833 0 0 0 0.47 0"/>
<feBlend mode="normal" in2="BackgroundImageFix" result="effect1_dropShadow_2253_1443"/>
<feBlend mode="normal" in="SourceGraphic" in2="effect1_dropShadow_2253_1443" result="shape"/>
</filter>
<filter id="filter13_d_2253_1443" x="0.113281" y="310" width="171.777" height="171.777" filterUnits="userSpaceOnUse" color-interpolation-filters="sRGB">
<feFlood flood-opacity="0" result="BackgroundImageFix"/>
<feColorMatrix in="SourceAlpha" type="matrix" values="0 0 0 0 0 0 0 0 0 0 0 0 0 0 0 0 0 0 127 0" result="hardAlpha"/>
<feOffset dx="10" dy="16"/>
<feGaussianBlur stdDeviation="23.5"/>
<feComposite in2="hardAlpha" operator="out"/>
<feColorMatrix type="matrix" values="0 0 0 0 0.722882 0 0 0 0 0.750382 0 0 0 0 0.795833 0 0 0 0.47 0"/>
<feBlend mode="normal" in2="BackgroundImageFix" result="effect1_dropShadow_2253_1443"/>
<feBlend mode="normal" in="SourceGraphic" in2="effect1_dropShadow_2253_1443" result="shape"/>
</filter>
<filter id="filter14_d_2253_1443" x="580.328" y="337.195" width="171.777" height="171.777" filterUnits="userSpaceOnUse" color-interpolation-filters="sRGB">
<feFlood flood-opacity="0" result="BackgroundImageFix"/>
<feColorMatrix in="SourceAlpha" type="matrix" values="0 0 0 0 0 0 0 0 0 0 0 0 0 0 0 0 0 0 127 0" result="hardAlpha"/>
<feOffset dx="10" dy="16"/>
<feGaussianBlur stdDeviation="23.5"/>
<feComposite in2="hardAlpha" operator="out"/>
<feColorMatrix type="matrix" values="0 0 0 0 0.722882 0 0 0 0 0.750382 0 0 0 0 0.795833 0 0 0 0.47 0"/>
<feBlend mode="normal" in2="BackgroundImageFix" result="effect1_dropShadow_2253_1443"/>
<feBlend mode="normal" in="SourceGraphic" in2="effect1_dropShadow_2253_1443" result="shape"/>
</filter>
<filter id="filter15_d_2253_1443" x="0.113281" y="61" width="171.777" height="171.777" filterUnits="userSpaceOnUse" color-interpolation-filters="sRGB">
<feFlood flood-opacity="0" result="BackgroundImageFix"/>
<feColorMatrix in="SourceAlpha" type="matrix" values="0 0 0 0 0 0 0 0 0 0 0 0 0 0 0 0 0 0 127 0" result="hardAlpha"/>
<feOffset dx="10" dy="16"/>
<feGaussianBlur stdDeviation="23.5"/>
<feComposite in2="hardAlpha" operator="out"/>
<feColorMatrix type="matrix" values="0 0 0 0 0.722882 0 0 0 0 0.750382 0 0 0 0 0.795833 0 0 0 0.47 0"/>
<feBlend mode="normal" in2="BackgroundImageFix" result="effect1_dropShadow_2253_1443"/>
<feBlend mode="normal" in="SourceGraphic" in2="effect1_dropShadow_2253_1443" result="shape"/>
</filter>
<linearGradient id="paint0_linear_2253_1443" x1="2786.9" y1="4270.48" x2="2786.9" y2="391.651" gradientUnits="userSpaceOnUse">
<stop stop-color="#1FAF38"/>
<stop offset="1" stop-color="#60D669"/>
</linearGradient>
<linearGradient id="paint1_linear_2253_1443" x1="2855.49" y1="4408.88" x2="2855.49" y2="390.955" gradientUnits="userSpaceOnUse">
<stop stop-color="#F9F9F9"/>
<stop offset="1" stop-color="white"/>
</linearGradient>
<clipPath id="clip0_2253_1443">
<rect width="25" height="24" fill="white" transform="translate(602.502 135.888)"/>
</clipPath>
<clipPath id="clip1_2253_1443">
<rect width="40" height="40.3125" fill="white" transform="translate(855.486 390.955)"/>
</clipPath>
<clipPath id="clip2_2253_1443">
<rect width="41.6016" height="41.6016" fill="white" transform="translate(427.2 412.642)"/>
</clipPath>
<clipPath id="clip3_2253_1443">
<rect width="21.1862" height="24" fill="white" transform="translate(704.408 239.888)"/>
</clipPath>
<clipPath id="clip4_2253_1443">
<rect width="30.749" height="30.749" fill="white" transform="translate(1007.63 129.514)"/>
</clipPath>
<clipPath id="clip5_2253_1443">
<rect width="24" height="16.875" fill="white" transform="translate(208.002 61.4509)"/>
</clipPath>
<clipPath id="clip6_2253_1443">
<rect width="32" height="32" fill="white" transform="translate(60.002 363.888)"/>
</clipPath>
<clipPath id="clip7_2253_1443">
<rect width="32" height="32" fill="white" transform="translate(60.002 114.888)"/>
</clipPath>
</defs>
</svg>
