<svg width="300" height="300" viewBox="0 0 300 300" fill="none" xmlns="http://www.w3.org/2000/svg">
<path d="M124.523 91.5903C126.626 89.2226 127.611 86.0607 128.111 82.9338C128.612 79.8071 128.685 76.6206 129.257 73.5061C129.541 71.9604 130.63 69.972 131.824 68.9397C132.717 68.1674 134.08 67.8076 135.097 68.4071C135.552 68.6749 135.893 69.1045 136.139 69.5714C136.826 70.8814 136.793 72.4668 136.427 73.9004C135.041 79.3352 132.148 84.5792 128.388 88.7314" fill="#F2AF8F"/>
<path d="M156.127 73.3526C154.383 71.0106 152.639 68.6686 150.896 66.3265C148.386 62.9554 143.86 57.5452 145.674 53.058C146.538 50.9191 149.169 49.4459 151.267 50.4052C154.644 51.9491 153.885 56.9325 153.862 59.1041C153.805 64.5093 155.949 69.9059 159.701 73.7974" fill="#F2AF8F"/>
<path d="M235.297 260.395H189.694V191.86C189.694 186.155 186.278 181.243 181.385 179.05C195.418 179 212.032 178.738 225.844 179.368C230.419 179.368 233.69 183.056 234.995 187.415C235.977 211.884 234.995 236.016 235.297 260.395Z" fill="#F1F5F9"/>
<g opacity="0.68">
<path d="M99.8959 181.497C99.5276 182.536 98.1923 182.699 96.5591 184.403C92.8205 184.926 89.9413 188.138 89.9413 192.024V257.451H94.3858L94.4054 260.396H34.9394C35.2629 236.016 34.2041 211.881 35.2629 187.413C36.6747 183.056 40.2076 179.37 45.1554 179.37C61.0513 178.7 78.0356 178.926 93.7812 178.955C94.8041 178.958 95.8009 179.174 96.7584 179.491C97.5559 179.756 98.7487 180.04 99.435 180.481C99.7848 180.703 100.027 181.122 99.8959 181.497Z" fill="#CBD5E1"/>
</g>
<path d="M189.702 260.398H183.166V191.864C183.166 187.73 179.803 184.367 175.669 184.367H45.5465C41.4129 184.367 38.0498 187.73 38.0498 191.864V260.398H31.5137V191.864C31.5137 184.126 37.8087 177.831 45.5465 177.831H175.669C183.407 177.831 189.702 184.126 189.702 191.864V260.398Z" fill="#F3F3F5"/>
<path d="M189.694 260.651C189.555 260.651 189.443 260.538 189.443 260.399V191.864C189.441 191.778 189.134 182.662 180.928 179.131C180.8 179.076 180.741 178.928 180.796 178.8C180.851 178.672 180.999 178.614 181.127 178.668C189.636 182.329 189.944 191.764 189.946 191.858V260.399C189.946 260.538 189.834 260.651 189.694 260.651Z" fill="#C4C3CE"/>
<path d="M37.9687 257.703C37.8295 257.703 37.7168 257.59 37.7168 257.451V205.765C37.7168 205.626 37.8295 205.513 37.9687 205.513C38.108 205.513 38.2207 205.626 38.2207 205.765V257.451C38.2207 257.59 38.108 257.703 37.9687 257.703Z" fill="#C4C3CE"/>
<path d="M240.684 64.005C240.074 63.0549 239.076 62.3633 238.061 61.9752C237.047 61.5872 236.007 61.4713 234.992 61.4146C232.547 61.2778 230.106 61.4761 228.102 62.4742C224.006 64.5146 223.462 69.2584 225.777 71.8169C226.868 73.0229 228.456 73.5737 229.919 73.7913C231.382 74.0089 235.28 71.7525 237.064 72.5548C238.179 73.056 241.068 75.0825 241.068 75.0825C241.711 74.1626 243.062 71.9071 242.727 70.6429" fill="#2E1212"/>
<path d="M225.42 37.0967C224.455 37.1467 223.725 38.1649 223.22 38.8915C221.822 40.9021 221.763 45.6673 224.214 48.0698C224.448 48.2988 224.724 48.5166 225.05 48.5435C225.536 48.5836 225.95 48.1892 226.208 47.7752C227.481 45.7333 226.588 42.9592 227.546 40.7519" fill="#B15F5A"/>
<path d="M237.496 70.1491C237.469 70.9061 237.558 71.7702 237.438 72.5595L233.339 73.9397L230.389 76.267L229.563 73.6136L226.994 72.5595C226.858 71.7718 226.996 70.9076 227.033 69.9931C227.148 67.2048 227.442 59.1199 227.471 58.8246C227.527 57.4626 227.614 55.9278 227.644 55.2169C227.686 54.4328 227.611 54.0369 228.323 53.6063C228.831 53.3137 229.447 53.1562 230.022 53.2954C230.454 53.403 230.885 53.7087 231.222 54.0046C231.817 54.504 232.126 55.1649 232.598 55.7643C233.082 56.3762 233.65 56.9531 234.351 57.3105C235.404 57.834 236.739 57.6871 237.506 56.6368C237.549 57.2083 237.575 57.92 237.596 58.7181C237.676 62.3262 237.575 67.9086 237.496 70.1491Z" fill="#F2AF8F"/>
<path d="M235.792 61.3472C235.383 61.812 234.829 62.1155 234.269 62.3779C231.842 63.5186 229.206 63.9716 227.273 63.8766C227.472 58.6273 227.491 58.4131 227.613 55.9624C227.759 55.9208 227.905 55.8833 228.054 55.8501L235.792 61.3472Z" fill="#E29074"/>
<path d="M240.534 45.4935C240.482 43.8693 240.112 42.2502 239.94 40.6325C239.745 38.8088 237.602 37.0473 236.02 36.3291C234.436 35.6103 232.632 35.5794 230.895 35.6783C230.14 35.7213 229.376 35.7887 228.664 36.0452C227.093 36.6114 225.979 38.0331 225.292 39.5026C224.903 40.3335 225.012 41.2254 224.945 42.1371C224.868 43.1904 224.783 44.243 224.693 45.2954C224.533 47.1635 224.697 49.1433 224.678 51.0236C224.66 52.7645 224.296 54.4106 224.697 56.1414C225.186 58.2513 226.955 60.0779 228.821 61.0763C230.515 61.9824 232.552 62.0114 234.446 61.6941C236.166 61.4063 236.867 60.9603 238.051 59.7536C239.178 58.6056 240.014 57.6643 240.244 55.9288C240.482 54.1352 240.833 54.8758 240.534 45.4935Z" fill="#F2AF8F"/>
<path d="M239.123 45.8668C239.078 45.7209 239 45.5931 238.944 45.4528C238.74 44.94 238.345 44.415 237.801 44.3102C237.373 44.2276 234.603 44.4594 233.848 44.5543C233.781 44.5627 233.759 44.5809 233.759 44.6589C233.755 45.0005 233.764 45.3423 233.786 45.6833C235.057 45.4995 236.336 45.4845 237.62 45.5486C238.24 45.5795 238.792 45.79 239.205 46.2708C239.152 46.2095 239.151 45.9543 239.123 45.8668Z" fill="#964949"/>
<path d="M225.921 45.5125C225.974 45.3693 226.058 45.2457 226.121 45.1085C226.352 44.6071 226.774 44.1036 227.322 44.0274C227.479 44.0057 227.638 44.0217 227.796 44.0376C227.887 44.0469 231.214 44.3836 231.324 44.5062C231.375 44.5638 231.269 45.533 231.261 45.6091C230 45.3589 228.724 45.2769 227.439 45.2737C226.818 45.2721 226.256 45.4534 225.818 45.9118C225.874 45.8533 225.889 45.5985 225.921 45.5125Z" fill="#964949"/>
<path d="M232.281 51.7506C232.281 51.7001 232.281 51.6935 232.281 51.7439L232.434 45.9031C232.438 45.7643 232.55 45.6668 232.693 45.6577C232.832 45.6614 232.942 45.7771 232.938 45.9163C232.902 47.2846 233.024 42.643 232.785 51.7572C232.777 52.0874 232.281 52.0823 232.281 51.7506Z" fill="#B75958"/>
<path d="M231.81 53.0798C231.438 52.8475 231.05 52.6302 230.657 52.4339C230.532 52.3716 230.482 52.2204 230.544 52.0961C230.607 51.9711 230.758 51.9216 230.882 51.9832C231.289 52.1867 231.691 52.4118 232.077 52.6527C232.362 52.8302 232.088 53.2554 231.81 53.0798Z" fill="#B75958"/>
<path d="M232.984 52.9748C232.922 52.8505 232.971 52.6989 233.095 52.6362C233.388 52.4886 233.677 52.3244 233.955 52.1483C234.072 52.074 234.228 52.1084 234.303 52.2263C234.378 52.3439 234.343 52.4996 234.225 52.5739C233.933 52.759 233.629 52.9312 233.323 53.086C233.2 53.1479 233.048 53.1005 232.984 52.9748Z" fill="#B75958"/>
<path d="M237.046 54.8685C237.028 54.926 236.994 54.9747 236.959 55.0192C236.732 55.3192 236.457 55.5846 236.25 55.8934C235.685 56.773 234.927 57.5663 233.98 57.9747C231.548 59.042 229.576 57.3417 228.099 55.1423C227.642 54.4846 227.867 54.1483 228.488 54.1646C236.975 54.378 236.633 54.3689 236.785 54.4235C236.965 54.4902 237.109 54.6883 237.046 54.8685Z" fill="#361618"/>
<path d="M236.681 54.3929C236.473 54.9206 235.987 55.6355 235.4 55.6531C234.874 55.6722 234.29 55.5744 233.753 55.5603C229.177 55.3794 228.653 55.8422 228.338 54.1701C228.419 54.1598 236.451 54.3461 236.681 54.3929Z" fill="#FCFBFB"/>
<path d="M235.063 57.2873C234.737 57.5682 234.38 57.8026 233.983 57.974C232.478 58.6344 231.085 58.2737 229.838 57.1628C230.853 55.9601 233.692 55.843 235.063 57.2873Z" fill="#CE635A"/>
<path d="M237.896 49.3239C236.815 48.3161 236.2 48.0944 235.056 49.1379C234.954 49.2318 234.795 49.2245 234.701 49.1219C234.607 49.0191 234.614 48.8596 234.717 48.7659C236.125 47.4799 237.045 47.8453 238.239 48.9548C238.341 49.0498 238.347 49.2092 238.252 49.3111C238.157 49.4128 237.998 49.4185 237.896 49.3239Z" fill="#B75958"/>
<path d="M230.005 49.5057C229.489 48.6801 228.519 48.697 228.57 48.7111C228.009 48.7111 227.451 49.0137 227.147 49.4849C227.072 49.6022 226.915 49.6349 226.799 49.5597C226.682 49.4841 226.648 49.3282 226.724 49.2113C227.589 47.8711 229.582 47.8795 230.432 49.2386C230.506 49.3564 230.47 49.5119 230.353 49.5857C230.234 49.6596 230.079 49.6236 230.005 49.5057Z" fill="#B75958"/>
<path d="M238.296 40.7456C237.777 41.0632 237.66 41.9091 237.66 41.9091C238.464 44.9902 238.995 45.4517 239.312 49.0849C239.356 49.5888 239.263 50.25 239.604 50.657C239.705 50.7773 240.717 51.3237 240.772 51.0074C240.852 50.542 241.144 50.0105 241.225 49.5452C241.316 49.0195 241.421 48.4648 241.772 48.1342C242.447 47.4995 243.696 48.0035 243.997 46.9878C244.451 45.4511 244.355 43.6937 244.078 42.8215C243.898 42.2572 243.047 40.6771 242.313 40.5845C241.133 40.4357 238.613 40.541 238.296 40.7456Z" fill="#B15F5A"/>
<path d="M232.796 40.3794C234.714 39.6375 236.298 40.4245 237.796 41.6272C237.834 41.0241 238.257 40.5258 238.51 39.977C239.393 38.0614 238.202 35.2252 234.544 35.6803C234.038 35.7433 233.516 35.7122 233.03 35.8684C231.032 36.5114 228.926 38.6181 227.253 39.5705C226.989 39.7209 225.408 40.7095 225.203 40.5966C227.385 41.8 230.486 41.273 232.796 40.3794Z" fill="#2E1212"/>
<path d="M239.57 53.3583C240.863 49.9947 240.253 49.8302 240.319 47.5472C240.33 47.1469 240.226 46.5945 240.318 46.2074C240.564 45.1797 242.096 45.0437 242.845 45.4985C243.548 45.9245 243.941 46.7299 244.106 47.5349C244.346 48.7142 244.163 49.9755 243.596 51.0372C242.586 52.9286 240.614 53.9669 238.746 54.9274" fill="#F2AF8F"/>
<path d="M241.644 50.4467C241.526 50.3746 241.488 50.2196 241.56 50.1005C242.198 49.0509 242.093 49.3781 242.708 48.355C242.78 48.2359 242.935 48.1983 243.054 48.2689C243.173 48.3408 243.212 48.4956 243.14 48.6149C242.501 49.6767 242.62 49.3267 241.991 50.3623C241.918 50.4818 241.763 50.5186 241.644 50.4467Z" fill="#B75958"/>
<path d="M226.396 55.7694C225.338 55.1923 224.272 54.6102 223.344 53.8409C221.422 52.2477 221.012 50.7431 221.099 48.8509C221.202 46.596 222.587 45.511 223.837 45.639C226.088 45.8695 226.33 47.4881 225.7 49.692" fill="#F2AF8F"/>
<path d="M227.561 41.5988C226.328 42.7253 226.002 43.9644 225.69 45.5706C225.071 48.7499 225.748 49.7039 224.571 50.2603C224.364 49.6501 224.445 49.0207 224.391 48.3961C224.15 45.6124 224.421 42.7357 224.989 40.5923" fill="#B15F5A"/>
<path d="M223.984 50.2716C223.123 49.2911 223.264 49.4633 222.546 48.4052C222.467 48.2903 222.497 48.1336 222.612 48.0551C222.727 47.9773 222.884 48.0061 222.962 48.1212C223.636 49.1322 223.602 49.0675 224.365 49.9415C224.456 50.0465 224.445 50.2057 224.34 50.2967C224.236 50.3868 224.077 50.3783 223.984 50.2716Z" fill="#B75958"/>
<path d="M225.993 42.2797C227.6 42.0399 229.019 41.1695 230.292 40.2025C231.422 39.3437 232.911 38.5871 234.265 38.1367C234.924 37.9174 235.85 37.6656 236.468 38.1265C237.5 38.8951 237.664 40.701 237.66 41.9097C237.662 41.3318 239.28 41.1203 239.889 41.1078C240.601 41.0931 241.414 41.1268 242.028 41.296C242.64 41.4648 243.377 41.7697 243.868 42.3144C243.763 41.7463 243.997 41.0434 244.007 40.4572C244.055 37.7166 242.802 35.4594 240.094 35.0596C239.696 35.0008 239.291 34.961 238.913 34.8229C238.362 34.6213 238.192 34.2259 237.839 33.8298C236.66 32.5106 231.306 29.8789 227.469 29.6901C221.285 29.3857 218.131 34.5488 220.144 39.0806C220.539 39.9689 221.118 41.0238 221.96 41.5396C222.888 42.1082 224.466 42.5076 225.993 42.2797Z" fill="#632C2B"/>
<path d="M235.824 37.7675C236.077 37.1025 236.414 36.1844 236.9 35.6666C237.428 35.1051 238.088 34.7329 238.762 34.6182C238.895 34.5946 239.029 34.6868 239.052 34.8241C239.076 34.9612 238.984 35.0913 238.846 35.1147C238.281 35.2111 237.72 35.5298 237.267 36.0115C236.844 36.463 236.517 37.3625 236.294 37.9477C236.175 38.2591 235.705 38.0786 235.824 37.7675Z" fill="#8D3434"/>
<path d="M172.649 97.6685C175.211 97.6685 178.834 88.9181 178.069 85.0064C177.81 83.6254 177.059 83.3732 176.257 83.8278C174.891 84.5764 173.203 87.3477 172.195 90.6446C172.024 91.206 171.881 91.7515 171.765 92.2732C171.093 95.367 171.419 97.6685 172.649 97.6685Z" fill="#2E1212"/>
<path d="M160.27 82.8359C159.708 84.5122 159.558 86.8387 160.163 88.208C160.901 89.8805 163.713 91.7682 165.55 92.4544C167.001 92.9965 168.54 93.1195 170.036 93.4837C172.254 94.0235 174.211 95.1438 176.132 96.3629C177.543 93.76 179.024 89.2196 178.486 86.4651C176.23 85.0257 172.331 82.4697 170.708 80.2727C169.162 78.1833 167.416 74.4445 166.451 74.3766C166.222 74.3557 166.005 74.4768 165.842 74.6395C165.325 75.1736 165.416 76.029 165.554 76.7593C165.75 77.7899 165.967 78.8164 166.205 79.8345C165.769 79.5114 165.33 79.1929 164.888 78.8779C164.055 78.2844 163.756 77.7094 162.99 78.6218C161.95 79.8597 160.994 80.6803 160.27 82.8359Z" fill="#F2AB83"/>
<path d="M172.943 94.5478C174.041 95.0694 175.092 95.7036 176.131 96.363C177.542 93.76 179.024 89.2197 178.485 86.4652C178.289 86.34 178.093 86.2148 177.896 86.0854C177.212 89.336 175.422 92.3362 172.943 94.5478Z" fill="#E29074"/>
<path d="M195.828 259.645C197.592 261.318 200.033 262.289 202.458 262.15C204.883 262.014 208.02 261.019 208.546 258.65C211.896 243.524 209.205 255.659 212.209 242.102C212.392 241.269 212.579 240.433 212.763 239.601L199.26 236.376C199.173 238.08 199.057 239.768 198.91 241.449C198.353 247.725 197.383 253.677 195.828 259.645Z" fill="#F2AB83"/>
<path d="M198.639 244.131C201.09 246.08 204.108 246.859 207.215 247.372C208.45 247.575 209.7 247.738 210.95 247.758C211.369 245.871 211.787 243.988 212.205 242.1C207.793 241.626 203.278 242.037 198.905 241.447C198.826 242.343 198.738 243.239 198.639 244.131Z" fill="#E29074"/>
<path d="M259.927 259.645C258.163 261.318 255.722 262.289 253.297 262.15C250.872 262.014 247.734 261.019 247.209 258.65C247.192 258.573 243.011 239.688 242.992 239.601L256.494 236.376C256.898 244.224 257.906 251.887 259.927 259.645Z" fill="#F2AB83"/>
<path d="M257.109 244.131C254.658 246.08 251.64 246.859 248.532 247.372C247.298 247.575 246.048 247.738 244.797 247.758C244.379 245.871 243.961 243.987 243.543 242.1C247.955 241.626 252.47 242.036 256.842 241.447C256.922 242.343 257.009 243.239 257.109 244.131Z" fill="#E29074"/>
<path d="M197.445 241.836C197.445 245.629 214.897 245.629 214.897 241.836L227.961 168.312C228.533 165.096 226.493 176.575 230.792 152.39C233.235 173.008 232.067 163.147 232.396 165.926L241.395 241.836C241.395 245.629 259.075 245.629 259.075 241.836C259.075 241.836 251.851 132.866 252.128 133.142H211.075L197.445 241.836Z" fill="#0F172A"/>
<path d="M212.602 144.295C216.572 144.046 220.29 141.586 222.072 138.029C222.748 136.678 223.156 135.198 223.85 133.82C223.913 133.695 224.065 133.645 224.188 133.708C224.313 133.771 224.363 133.922 224.3 134.046C223.629 135.378 223.208 136.886 222.522 138.255C220.662 141.969 216.78 144.538 212.633 144.798C212.296 144.813 212.273 144.316 212.602 144.295Z" fill="#334155"/>
<path d="M249.024 144.661C245.104 143.839 241.199 140.328 239.814 133.277C239.75 132.95 240.245 132.851 240.308 133.18C241.661 140.058 245.437 143.394 249.128 144.168C249.264 144.196 249.351 144.33 249.323 144.466C249.294 144.603 249.159 144.69 249.024 144.661Z" fill="#334155"/>
<path d="M177.086 83.6331C177.09 83.6331 177.09 83.6331 177.094 83.6331L177.086 83.6292V83.6331Z" fill="#8D3434"/>
<path d="M172.643 97.7592L194.031 110.119C197.601 111.842 201.838 111.409 204.986 108.999L216.831 96.2739L217.761 68.9607C217.761 68.9607 209.813 65.6504 202.583 80.7906C198.573 89.1865 196.35 93.467 196.35 93.467L177.556 83.8709C178.412 84.6832 178.392 87.4107 177.401 90.6439C176.218 94.5062 174.108 97.6399 172.67 97.6677L172.643 97.7592Z" fill="#8D3434"/>
<path d="M252.107 128.942C237.903 131.633 223.165 131.545 211.145 128.722C210.711 128.21 210.342 76.5753 210.342 76.5753C210.392 72.6616 211.778 68.8147 215.689 68.6559C218.556 68.5394 224.223 68.6542 224.223 68.6542L230.217 73.905L230.437 76.213L231.925 74.4142L241.452 68.2437C241.452 68.2437 251.488 68.3389 255.001 69.3842C255.001 69.3842 252.16 128.76 252.107 128.942Z" fill="#8D3434"/>
<path d="M230.314 127.967C230.197 127.967 230.091 127.884 230.068 127.764C227.934 117.061 230.042 76.6567 230.063 76.2498C230.071 76.111 230.195 76.0017 230.328 76.0113C230.467 76.0187 230.574 76.1373 230.566 76.2763C230.545 76.6825 228.44 117.024 230.562 127.666C230.589 127.802 230.5 127.935 230.364 127.962C230.347 127.965 230.331 127.967 230.314 127.967Z" fill="#2E1212"/>
<path d="M211.357 101.401C211.218 101.401 211.106 101.289 211.105 101.15L210.951 78.8008C210.95 78.6618 211.062 78.5481 211.201 78.5471C211.202 78.5471 211.203 78.5471 211.203 78.5471C211.341 78.5471 211.454 78.6588 211.455 78.7973L211.609 101.147C211.61 101.286 211.497 101.399 211.359 101.401C211.358 101.401 211.357 101.401 211.357 101.401Z" fill="#2E1212"/>
<path d="M238.611 62.209C239.461 62.7571 239.983 63.8121 239.969 64.7306C239.954 65.6491 239.519 66.4208 238.989 67.0638C237.785 68.5235 236.033 69.4844 234.043 69.7757C236.583 70.9992 238.999 73.0373 241.076 75.0805C242.005 74.2239 243.027 73.0066 243.641 71.8775C244.254 70.7484 244.513 69.3098 244.024 67.8869C243.445 66.2016 241.149 63.505 238.611 62.209Z" fill="#DEDEDE"/>
<path d="M231.934 74.4144C234.499 73.1768 238.115 73.8378 241.076 75.0831C240.965 75.0365 240.056 72.9315 237.301 71.1666C236.528 70.6712 235.706 70.2751 234.87 70.0036C234.557 69.9019 234.087 69.6911 233.823 69.8497C233.513 70.0361 233.336 70.6092 233.178 70.9309C232.724 71.8552 232.147 73.364 231.934 74.4144Z" fill="#2E1212"/>
<path d="M228.219 70.2273C228.056 70.0452 227.84 69.848 227.634 69.8793C227.548 69.8922 227.482 69.944 227.419 69.9953C225.753 71.3551 224.8 73.2029 224.273 75.4128C224.318 75.2252 225.03 75.0246 225.204 74.9487C226.865 74.2262 227.515 74.3074 230.224 73.9041C230.224 72.7782 228.97 71.0696 228.219 70.2273Z" fill="#2E1212"/>
<path d="M224.324 75.2119C224.38 75.1297 226.748 71.6607 227.089 71.1679C227.264 70.9011 227.883 70.335 227.739 69.9323C227.651 69.6929 227.25 69.4425 227.065 69.2682C226.32 68.5567 225.593 67.6163 225.557 66.5849C225.524 65.6215 226.454 63.7053 226.441 63.6184C223.337 65.5403 221.851 70.4125 224.324 75.2119Z" fill="#DEDEDE"/>
<path d="M177.092 83.6331L177.558 83.872C177.422 83.7406 177.267 83.6609 177.092 83.6331Z" fill="#2E1212"/>
<path d="M177.458 267.315C177.31 267.528 177.192 267.768 176.976 267.923C176.843 268.019 176.808 268.135 176.786 268.295C176.709 268.84 176.642 269.392 176.704 269.939C176.758 270.413 174.82 270.24 207.631 270.335C208.845 270.338 209.832 269.355 209.832 268.141C209.832 267.428 209.832 266.715 209.832 266.002C209.832 264.89 209.896 263.615 208.616 263.187C207.908 262.95 207.135 263.079 206.405 263.234C202.222 264.123 201.134 265.118 199.426 264.774C198.643 264.616 197.949 264.145 197.401 263.564C195.353 261.393 196.113 259.193 191.76 260.649C191.76 260.776 189.536 261.393 189.302 261.471C187.498 262.074 186.358 263.144 182.429 264.491C180.641 265.104 178.608 265.659 177.458 267.315Z" fill="#2E1212"/>
<path d="M207.631 268.702C208.845 268.706 209.831 267.722 209.831 266.508C209.831 254.678 209.855 255.808 209.807 255.659C209.625 255.095 208.759 255.241 208.301 255.282C206.089 255.48 204.613 256.978 204.355 258.614C204.282 259.076 204.266 259.622 203.882 259.889C203.473 260.172 202.916 259.952 202.422 260.008C202.812 257.786 201.86 255.312 200.061 253.95C196.512 251.261 194.304 255.191 192.056 257.32C187.197 261.922 181.474 262.921 179.395 264.037C177.367 265.126 176.653 266.582 176.742 268.612L207.631 268.702Z" fill="#FF7E32"/>
<path d="M191.856 257.861C191.853 257.861 191.849 257.861 191.846 257.861C191.743 257.857 191.654 257.791 191.619 257.695C190.478 254.533 188.81 248.003 192.135 248.476C195.361 248.937 193.444 254.796 192.085 257.715C192.043 257.805 191.954 257.861 191.856 257.861ZM191.884 256.914C192.894 254.499 194.649 249.344 192.064 248.975C189.513 248.607 191.083 254.483 191.884 256.914Z" fill="#2E1212"/>
<path d="M191.632 257.725C191.579 257.624 191.601 257.499 191.686 257.423C191.93 257.2 197.708 251.991 200.129 252.317C200.921 252.426 201.399 253.172 201.11 253.865C200.252 255.924 192.762 257.663 191.91 257.855C191.801 257.88 191.685 257.828 191.632 257.725ZM192.786 257.126C194.603 256.664 201.581 254.711 200.599 253.145C199.603 251.552 194.229 255.892 192.786 257.126Z" fill="#2E1212"/>
<path d="M198.427 95.2746L196.204 93.6696C196.091 93.5882 196.066 93.4307 196.147 93.318C196.229 93.2043 196.387 93.18 196.499 93.2612L198.723 94.8662C198.835 94.9476 198.861 95.1051 198.779 95.2178C198.698 95.3303 198.541 95.3562 198.427 95.2746Z" fill="#2E1212"/>
<path d="M194.409 96.525C194.409 96.525 194.408 96.525 194.408 96.525C194.269 96.5248 194.156 96.4119 194.156 96.2728C194.156 96.1338 194.269 96.0211 194.408 96.0211C194.408 96.0211 194.408 96.0211 194.409 96.0211C194.409 96.0211 194.409 96.0211 194.409 96.0211C195.026 96.0211 195.88 94.1152 195.851 93.4477C195.845 93.3087 195.952 93.1909 196.091 93.1847C196.534 93.1591 196.332 93.9315 196.187 94.3527C196.01 94.8654 195.768 95.3533 195.466 95.8029C195.139 96.2889 194.793 96.525 194.409 96.525Z" fill="#2E1212"/>
<path d="M256.295 239.44L248.659 135.155C248.649 135.016 248.753 134.895 248.892 134.885C249.014 134.877 249.151 134.979 249.162 135.118L256.798 239.403C256.808 239.542 256.704 239.663 256.565 239.673C256.43 239.684 256.306 239.581 256.295 239.44Z" fill="#334155"/>
<path d="M199.018 240.403C199.006 240.403 198.994 240.403 198.982 240.401C198.844 240.381 198.749 240.254 198.768 240.116L213.671 135.101C213.69 134.963 213.823 134.867 213.956 134.887C214.093 134.906 214.189 135.034 214.17 135.172L199.267 240.187C199.249 240.313 199.142 240.403 199.018 240.403Z" fill="#334155"/>
<path d="M211.069 133.141C224.753 134.87 238.438 134.87 252.122 133.141C253.147 131.504 253.036 129.912 252.122 128.351C238.286 129.736 224.598 129.768 211.069 128.351C210.112 129.891 210.025 131.482 211.069 133.141Z" fill="#2E1212"/>
<path d="M219.85 109.728C219.85 109.728 232.075 116.552 243.14 120.752C254.202 124.957 258.406 120.112 261.173 114.765C263.944 109.413 264.473 87.4942 261.224 78.133C257.979 68.7718 254.595 69.3212 254.595 69.3212L245.273 85.2006L248.905 104.21L222.609 95.9832C223.027 96.1186 223.35 96.5924 223.557 97.3131C224.754 101.412 222.094 109.728 219.85 109.728Z" fill="#8D3434"/>
<path d="M243.057 120.989C232.101 116.83 219.855 110.019 219.732 109.95C219.611 109.882 219.568 109.729 219.636 109.607C219.703 109.486 219.857 109.443 219.979 109.51C220.101 109.578 232.315 116.373 243.236 120.519C245.625 121.425 249.212 122.395 252.73 121.864C252.86 121.847 252.995 121.938 253.016 122.076C253.037 122.214 252.942 122.342 252.804 122.363C249.565 122.852 246.082 122.138 243.057 120.989Z" fill="#2E1212"/>
<path d="M222.54 96.2248C222.407 96.1832 222.333 96.042 222.375 95.9091C222.417 95.7768 222.556 95.7017 222.691 95.744L248.585 103.845L245.033 85.2489C245.006 85.1124 245.096 84.9802 245.233 84.9541C245.367 84.9293 245.501 85.0174 245.528 85.1544C249.324 105.292 249.283 104.217 249.079 104.399C248.849 104.604 250.098 104.771 222.54 96.2248Z" fill="#2E1212"/>
<path d="M219.856 109.732C222.239 109.732 224.691 101.179 223.563 97.3164C223.106 95.7229 222.141 95.5188 221.119 96.7072C219.581 98.4789 218.678 102.097 218.447 104.567C218.176 107.538 218.73 109.732 219.856 109.732Z" fill="#2E1212"/>
<path d="M200.921 99.3464C200.75 99.852 201.204 100.398 201.726 100.509C202.234 100.62 202.79 100.423 203.251 100.182C203.251 100.182 203.255 100.182 203.259 100.179C205.126 99.2229 206.647 97.5984 208.646 96.9652C209.411 96.7183 208.682 97.6899 208.535 97.897C207.646 99.1216 206.428 100.08 205.771 101.361C205.559 101.778 205.259 102.438 205.552 102.783C205.664 102.914 205.831 102.974 206.002 102.99C206.869 103.071 207.216 102.37 210.713 100.37C210.924 100.867 211.41 101.5 211.752 101.927C213.333 103.866 215.913 104.562 218.441 104.562C220.39 104.562 221.173 104.382 222.977 105.124C223.647 102.928 224.197 99.5014 223.558 97.3116C223.137 97.2106 209.739 93.8849 208.475 93.493C206.005 92.7256 205.796 91.6442 200.499 97.2797C199.874 97.9527 199.05 98.6573 198.572 99.4458C199.138 100.111 200.372 99.9635 200.921 99.3464Z" fill="#F2AB83"/>
<path d="M219.832 104.542C221.249 104.533 221.922 104.691 222.974 105.124C223.644 102.928 224.195 99.5012 223.555 97.3114C223.356 97.2636 223.157 97.2118 222.958 97.1641C222.826 99.8796 221.692 102.555 219.832 104.542Z" fill="#E29074"/>
<path d="M205.648 101.581C205.527 101.514 205.482 101.36 205.549 101.239C205.747 100.878 208.618 97.3757 208.892 97.079C209.772 96.1258 211.112 95.8219 212.188 95.5776C212.514 95.505 212.624 95.9957 212.3 96.0692C211.061 96.3502 209.977 96.6457 209.262 97.421C208.989 97.7165 206.146 101.199 205.991 101.481C205.924 101.602 205.773 101.648 205.648 101.581Z" fill="#B75958"/>
<path d="M200.881 98.6477C201.107 98.1601 201.506 97.789 201.895 97.4507C203.253 96.2707 204.723 95.2041 206.266 94.2805C207.074 93.7958 208.127 93.2894 209.101 93.6752C209.23 93.7264 209.293 93.8727 209.242 94.0022C209.191 94.1316 209.044 94.1951 208.915 94.1437C208.147 93.8386 207.234 94.2878 206.524 94.7125C205.008 95.6211 203.562 96.6703 202.225 97.8311C201.863 98.1463 201.522 98.462 201.337 98.8598C201.186 99.1861 201.146 99.6735 201.415 99.9732C201.65 100.234 202.046 100.281 202.341 100.238C202.7 100.186 203.041 100.015 203.419 99.8138C203.541 99.7488 203.694 99.7946 203.76 99.9179C203.825 100.041 203.779 100.193 203.656 100.259C203.236 100.482 202.853 100.672 202.414 100.737C201.098 100.931 200.346 99.7975 200.881 98.6477Z" fill="#B75958"/>
<path d="M249.935 107.162C249.69 106.093 249.281 105.072 248.719 104.13C248.648 104.01 248.687 103.856 248.807 103.784C248.924 103.714 249.08 103.751 249.152 103.872C249.741 104.86 250.169 105.929 250.426 107.05C250.457 107.185 250.372 107.321 250.236 107.351C250.106 107.382 249.966 107.301 249.935 107.162Z" fill="#2E1212"/>
<path d="M248.795 103.542C248.747 103.411 248.814 103.266 248.945 103.219C249.852 102.888 250.617 102.16 250.992 101.27C251.046 101.142 251.193 101.081 251.322 101.135C251.45 101.189 251.511 101.337 251.456 101.465C251.028 102.482 250.154 103.315 249.117 103.692C248.986 103.74 248.842 103.671 248.795 103.542Z" fill="#2E1212"/>
<path d="M188.554 263.964C188.55 263.964 188.545 263.964 188.541 263.964C187.06 263.887 185.623 263.228 184.599 262.155C184.503 262.054 184.507 261.895 184.608 261.799C184.708 261.703 184.868 261.706 184.963 261.807C185.899 262.788 187.213 263.39 188.566 263.46C188.706 263.468 188.812 263.586 188.805 263.725C188.798 263.86 188.687 263.964 188.554 263.964Z" fill="#2E1212"/>
<path d="M192.64 261.55C192.588 261.537 190.408 261.546 188.685 259.741C188.589 259.64 188.593 259.481 188.694 259.385C188.794 259.289 188.953 259.292 189.049 259.393C189.985 260.374 191.299 260.976 192.652 261.046C192.792 261.054 192.898 261.172 192.891 261.311C192.884 261.446 192.773 261.55 192.64 261.55Z" fill="#2E1212"/>
<path d="M195.677 259.591C195.625 259.578 193.445 259.588 191.722 257.782C191.626 257.682 191.63 257.522 191.731 257.426C191.831 257.33 191.991 257.334 192.086 257.434C193.022 258.415 194.336 259.017 195.689 259.088C195.829 259.095 195.936 259.213 195.928 259.352C195.921 259.487 195.81 259.591 195.677 259.591Z" fill="#2E1212"/>
<path d="M230.995 152.991C230.861 152.991 230.75 152.886 230.743 152.751C230.535 148.506 230.486 144.201 230.597 139.956C230.601 139.817 230.711 139.712 230.856 139.711C230.995 139.715 231.105 139.831 231.101 139.97C230.99 144.202 231.039 148.494 231.246 152.726C231.253 152.866 231.146 152.984 231.007 152.99C231.003 152.991 230.999 152.991 230.995 152.991Z" fill="#334155"/>
<path d="M227.881 135.14H234.121C234.998 135.14 235.709 134.429 235.709 133.552V130.288C235.709 129.411 234.998 128.7 234.121 128.7H227.881C227.004 128.7 226.293 129.411 226.293 130.288V133.552C226.293 134.429 227.004 135.14 227.881 135.14Z" fill="white"/>
<path d="M276.279 265.672C278.146 266.675 278.233 267.592 278.697 267.926C278.83 268.021 278.866 268.138 278.888 268.297C278.928 268.583 279.129 270.027 278.857 270.185C278.818 270.208 278.771 270.213 278.726 270.217C278.196 270.267 279.876 270.245 248.043 270.337C246.828 270.341 245.842 269.358 245.842 268.143C245.842 267.431 245.842 266.718 245.842 266.005C245.842 264.892 245.778 263.618 247.058 263.189C247.766 262.952 248.538 263.081 249.269 263.237C253.452 264.125 254.54 265.121 256.248 264.776C258.69 264.284 259.502 261.317 260.367 260.617C261.333 259.835 262.808 260.281 263.914 260.651C263.914 260.778 266.138 261.395 266.372 261.473C267.189 261.747 267.82 262.074 268.569 262.476C272.201 264.424 274.484 264.709 276.279 265.672Z" fill="#2E1212"/>
<path d="M248.037 268.702C246.823 268.706 245.837 267.722 245.837 266.508C245.837 262.72 245.837 260.401 245.837 256.473C245.837 256.202 245.777 255.922 245.862 255.659C246.043 255.095 246.909 255.241 247.367 255.282C249.58 255.48 251.056 256.978 251.313 258.614C251.386 259.076 251.402 259.622 251.787 259.889C252.195 260.172 252.753 259.952 253.247 260.008C252.856 257.786 253.808 255.312 255.607 253.95C259.157 251.261 261.364 255.191 263.612 257.32C268.472 261.922 274.194 262.921 276.273 264.037C278.301 265.126 279.015 266.582 278.927 268.612L248.037 268.702Z" fill="#FF7E32"/>
<path d="M263.823 257.862C263.725 257.862 263.636 257.805 263.595 257.716C262.231 254.785 260.323 248.936 263.545 248.477C266.871 248.004 265.198 254.544 264.06 257.695C264.025 257.791 263.936 257.857 263.834 257.861C263.83 257.862 263.826 257.862 263.823 257.862ZM263.858 248.958C260.973 248.958 262.682 254.251 263.795 256.915C264.5 254.776 266.105 248.958 263.858 248.958Z" fill="#2E1212"/>
<path d="M263.766 257.855C261.112 257.258 253.21 255.177 254.651 252.877C254.849 252.56 255.151 252.372 255.548 252.317C257.963 251.984 263.747 257.2 263.991 257.423C264.182 257.596 264.016 257.912 263.766 257.855ZM255.617 252.817C255.124 252.884 254.881 253.308 255.032 253.671C255.594 255.021 260.24 256.453 262.89 257.125C261.548 255.978 257.37 252.581 255.617 252.817Z" fill="#2E1212"/>
<path d="M267.113 263.964C266.789 263.964 266.775 263.478 267.101 263.461C268.454 263.391 269.768 262.788 270.704 261.807C270.8 261.707 270.96 261.703 271.06 261.799C271.16 261.895 271.164 262.055 271.068 262.155C270.044 263.228 268.608 263.888 267.126 263.964C267.122 263.964 267.117 263.964 267.113 263.964Z" fill="#2E1212"/>
<path d="M263.029 261.55C262.705 261.55 262.691 261.063 263.017 261.046C264.37 260.976 265.684 260.374 266.62 259.393C266.715 259.292 266.875 259.289 266.976 259.384C267.076 259.481 267.08 259.64 266.984 259.741C265.96 260.813 264.524 261.473 263.042 261.55C263.038 261.55 263.033 261.55 263.029 261.55Z" fill="#2E1212"/>
<path d="M259.992 259.591C259.668 259.591 259.654 259.105 259.98 259.087C261.333 259.017 262.647 258.415 263.583 257.434C263.679 257.333 263.839 257.33 263.938 257.426C264.039 257.522 264.043 257.681 263.947 257.782C262.186 259.627 260.044 259.578 259.992 259.591Z" fill="#2E1212"/>
<path d="M225.942 156.272C225.922 159.955 226.468 163.642 227.557 167.159C227.676 167.548 227.806 167.937 227.963 168.312L230.783 152.452L230.779 152.295C227.588 152.295 227.548 152.255 227.239 152.39C227.024 152.489 226.86 152.67 226.724 152.865C226.038 153.831 225.949 155.087 225.942 156.272Z" fill="#0F172A"/>
<path d="M212.76 240.761C212.745 240.761 212.73 240.76 212.715 240.757C212.578 240.733 212.487 240.602 212.512 240.465C214.016 232.111 227.229 158.812 228.054 157.687C228.245 157.426 228.647 157.702 228.467 157.974C227.732 159.453 218.036 212.622 213.008 240.554C212.986 240.676 212.88 240.761 212.76 240.761Z" fill="#334155"/>
<path d="M165.07 83.3228H173.932C172.55 82.2557 171.41 81.2157 170.712 80.2715C169.166 78.1819 167.421 74.4435 166.456 74.3754C166.226 74.3545 166.009 74.4755 165.847 74.6383C165.329 75.1725 165.421 76.0278 165.559 76.7581C165.755 77.7888 166.21 79.8334 166.21 79.8334C166.21 79.8334 165.451 81.5595 165.07 81.2866L165.07 83.3228Z" fill="#F2AB83"/>
<path d="M102.693 168.643C102.693 174.066 98.2972 178.463 92.8742 178.463H55.3242V158.824L92.1985 158.217C97.6215 158.217 102.693 163.22 102.693 168.643Z" fill="#2E1212"/>
<path d="M111.696 107.22C111.696 107.22 121.401 114.27 120.977 118.422L117.048 120.292L109.26 112.511L109.61 109.202" fill="#2E1212"/>
<path d="M129.44 105.842C129.332 106.555 128.99 107.212 128.604 107.821C127.755 109.162 126.647 110.423 125.354 111.351C124.095 112.255 122.643 112.776 121.294 113.52C119.295 114.622 117.7 116.216 116.165 117.896C114.122 115.753 111.502 111.76 111.301 108.96C111.457 108.788 111.614 108.616 111.769 108.439C112.123 108.054 112.47 107.661 112.81 107.271C114.814 104.954 116.507 102.687 117.185 100.946C118.13 98.525 118.835 94.4595 119.748 94.1413C119.964 94.061 120.205 94.121 120.405 94.2354C121.044 94.6153 121.18 95.4649 121.238 96.2057C121.319 97.2517 121.378 98.2992 121.415 99.3441C121.752 98.918 122.092 98.4955 122.436 98.0757C123.084 97.2848 123.222 96.6517 124.201 97.3314C125.036 97.9113 125.891 98.3994 126.627 99.1171C128.865 101.302 129.675 104.296 129.44 105.842Z" fill="#F2AB83"/>
<path d="M123.429 102.417L114.877 104.738C115.931 103.346 116.759 102.044 117.185 100.95C118.129 98.5283 118.834 94.4633 119.748 94.1447C119.964 94.0644 120.205 94.1244 120.405 94.2389C121.044 94.6188 121.179 95.4683 121.238 96.2091C121.318 97.2552 121.415 99.3475 121.415 99.3475C121.415 99.3475 122.599 100.815 122.895 100.451L123.429 102.417Z" fill="#F2AB83"/>
<path d="M116.943 98.0509L121.27 103.381C121.8 104.035 122.726 104.225 123.471 103.834L124.645 103.219L124.023 102.239L122.934 102.81C122.675 102.946 122.353 102.88 122.167 102.653L117.842 97.3216C117.596 97.0213 117.688 96.5684 118.034 96.3868L119.738 95.4932L119.116 94.5134L117.497 95.3628C117.024 95.6105 116.692 96.0528 116.584 96.576C116.476 97.0979 116.607 97.6366 116.943 98.0509Z" fill="#3E5B38"/>
<path d="M138.658 99.4069L129.203 104.366L130.375 106.601L139.831 101.642L138.658 99.4069Z" fill="#3E5B38"/>
<path d="M116.996 90.5888L125.581 104.7C126.365 105.935 127.966 106.363 129.262 105.683L139.692 100.212C140.988 99.5327 141.547 97.9731 140.977 96.6253L134.542 81.3865L116.996 90.5888Z" fill="#617C5B"/>
<path d="M128.906 96.807C126.36 93.5328 128.258 90.4449 126.135 87.463C125.794 86.9835 125.465 86.6786 125.101 86.5037C124.087 86.0187 122.501 86.5979 122.435 87.7868C122.416 88.1367 121.914 88.0797 121.932 87.7592C122.017 86.1944 123.992 85.4144 125.318 86.0492C125.757 86.2596 126.158 86.6264 126.545 87.1707C128.702 90.1984 126.94 93.4578 129.304 96.4975C129.389 96.6075 129.37 96.7657 129.259 96.8511C129.151 96.9358 128.992 96.9179 128.906 96.807Z" fill="#2E1212"/>
<path d="M126.132 95.7269L126.482 99.2642C126.522 99.671 126.905 99.9536 127.306 99.8719L131.559 99.0038C131.96 98.922 132.202 98.5118 132.079 98.1218L131.015 94.7304C130.909 94.3933 130.565 94.1907 130.219 94.2613L126.681 94.9836C126.334 95.0543 126.098 95.3753 126.132 95.7269Z" fill="#F4BD46"/>
<path d="M117.104 101.267C117.666 99.3274 118.333 97.6514 118.639 96.0196C118.741 95.4776 118.936 94.9019 119.267 94.4612C119.945 93.5605 120.979 94.259 121.218 95.2084C121.791 97.4846 120.773 99.4567 121.575 102.752C121.785 103.615 122.366 104.247 122.455 105.131C122.549 106.051 122.242 107.005 121.63 107.698" fill="#F2AB83"/>
<path d="M120.556 109.115C120.506 108.985 120.57 108.839 120.7 108.789C121.921 108.312 122.654 106.795 122.269 105.542C122.166 105.208 122.002 104.898 121.759 104.413C121.138 103.125 120.748 100.854 121.171 99.2818C121.208 99.1474 121.344 99.0679 121.48 99.1039C121.614 99.14 121.694 99.2783 121.657 99.4126C121.306 100.72 121.55 102.82 122.213 104.194C122.441 104.648 122.634 105.017 122.75 105.394C123.217 106.911 122.361 108.681 120.883 109.258C120.755 109.308 120.608 109.246 120.556 109.115Z" fill="#B75958"/>
<path d="M109.695 111.761C109.675 111.887 109.751 112.006 109.827 112.112C110.545 113.117 111.207 113.636 115.221 117.262C115.616 117.34 116.015 117.394 116.416 117.422C116.784 117.076 116.264 117.68 118.903 115.197C117.617 114.527 116.335 113.604 115.206 112.691C114.02 111.733 112.83 110.696 112.181 109.324C111.828 109.608 111.477 109.896 111.136 110.198C110.677 110.601 110.236 111.03 109.835 111.507C109.773 111.583 109.708 111.663 109.695 111.761Z" fill="#E29074"/>
<path d="M81.356 130.493C83.0029 133.61 84.7009 136.662 87.5337 138.869C90.1858 140.936 93.3257 140.977 95.6172 138.471C97.2626 136.671 101.558 136.759 103.641 134.646C104.225 134.053 104.634 133.315 105.098 132.625C106.957 129.856 109.739 127.814 112.049 125.444C112.634 124.844 113.857 123.892 113.789 122.966C113.74 122.304 113.096 121.614 112.689 121.134C110.502 118.547 108.041 116.326 106.749 115.076C106.43 114.768 106.253 114.41 105.95 114.089C104.646 112.708 102.679 113.727 101.667 115.389C101.295 115.999 101.049 116.704 100.527 117.191C100.257 117.444 99.928 117.623 99.6107 117.814C98.3152 118.592 97.2753 119.636 96.0913 120.553C95.5981 120.936 95.146 121.368 94.6877 121.801C94.356 122.115 93.3496 122.874 93.3018 123.35C93.6292 120.096 92.2192 117.698 90.9483 114.598C90.1671 112.693 89.859 110.678 89.4212 108.671C88.6512 105.141 87.0668 103.083 84.868 100.285C84.4398 99.7405 83.9844 99.1742 83.347 98.9023C83.1441 98.8157 82.92 98.7615 82.7027 98.7994C82.3444 98.8618 82.0684 99.1665 81.9298 99.5027C81.7912 99.8389 81.7639 100.209 81.7216 100.57C81.5891 101.701 80.9721 101.859 79.4445 104.907C75.8962 111.987 74.9656 118.399 81.356 130.493Z" fill="#FF7E32"/>
<path d="M90.5598 129.813C90.425 129.778 90.3443 129.641 90.3792 129.506C90.9535 127.299 91.8373 125.187 93.0065 123.229C93.0778 123.109 93.2329 123.071 93.3519 123.142C93.4715 123.213 93.5109 123.368 93.4395 123.488C92.2944 125.405 91.4293 127.472 90.8674 129.633C90.8317 129.77 90.6909 129.848 90.5598 129.813Z" fill="#D8550F"/>
<path d="M57.2945 93.2954C57.839 92.448 58.7289 91.8311 59.634 91.485C60.5391 91.1388 61.4666 91.0355 62.3717 90.9848C64.5524 90.8629 66.7301 91.0397 68.5175 91.93C72.1714 93.7501 72.6565 97.9815 70.5917 100.264C68.5472 102.523 65.3186 101.942 62.9959 102.484C61.5061 102.832 60.0014 103.625 58.5483 103.619C56.27 103.61 54.8336 101.624 55.4728 99.2163" fill="#2E1212"/>
<path d="M69.2582 104.163C66.5305 104.665 63.7042 104.337 61.0911 103.215C60.5272 102.967 59.9138 102.685 59.332 102.803C59.3981 100.328 59.3305 101.888 59.5969 85.92C59.6175 85.1684 59.5357 84.7924 60.2056 84.3625C60.684 84.0699 61.269 83.9039 61.8224 84.0226C62.198 84.1056 62.534 84.3191 62.8423 84.5601C63.8139 85.1586 64.2928 86.9095 66.0641 87.7542C67.084 88.2285 68.3569 88.0546 69.0645 87.0308C69.1198 87.5763 69.1633 88.2563 69.2028 89.0192C69.4493 94.1084 69.4282 101.203 69.2582 104.163Z" fill="#F2AF8F"/>
<path d="M67.5449 91.5786C67.1654 92.0333 66.6436 92.3375 66.1139 92.6025C63.8216 93.7544 61.3112 94.2538 59.4609 94.2114C59.517 89.3432 59.5322 88.9853 59.5874 86.6334C59.7258 86.59 59.8641 86.5504 60.0064 86.5149L67.5449 91.5786Z" fill="#E29074"/>
<path d="M72.4641 97.2073C72.862 97.0739 73.4721 97.2002 73.901 97.2002C76.8202 97.236 78.9481 97.4242 81.7768 98.2416C82.5226 98.4561 83.3138 98.7015 83.8023 99.3043C84.7388 100.455 84.429 102.807 84.5386 104.218C85.1699 112.376 84.9496 120.671 84.9772 128.853C85.003 136.566 84.8338 144.279 84.4871 151.984C84.4838 152.058 80.3609 151.984 59.8245 151.984C55.3909 151.984 50.8232 152.357 46.4791 151.344C45.109 151.024 44.9342 149.624 44.9152 148.393C44.8337 143.113 45.2986 137.831 44.9813 132.553C44.6769 127.491 44.5691 122.382 44.3684 117.289C44.0413 108.987 43.8439 105.529 44.1516 100.612C44.2205 99.5108 45.7362 96.7622 45.7362 96.7622C45.7362 96.7622 53.0688 97 54.9157 97.0191C55.7282 97.031 56.536 97.0382 57.3439 97.0429C57.6584 97.0429 58.1946 96.9477 58.4854 97.0692C58.757 97.1884 59.0454 97.5601 59.2789 97.7508C60.9534 99.118 64.8483 101.895 64.8745 102.034C65.035 102.886 65.3606 103.702 65.5212 104.555C65.5834 103.988 66.3238 102.082 66.3238 102.082C67.2236 101.6 68.3609 100.849 70.4248 100.078C70.5865 100.018 70.7515 99.9582 70.8905 99.8557C71.7223 99.2422 71.3208 97.5936 72.4641 97.2073Z" fill="#FF7E32"/>
<path d="M65.4082 148.264C65.2689 148.264 65.1562 148.152 65.1562 148.012V104.448C65.1562 104.309 65.2689 104.197 65.4082 104.197C65.5474 104.197 65.6601 104.309 65.6601 104.448V148.012C65.6601 148.152 65.5474 148.264 65.4082 148.264Z" fill="#D8550F"/>
<path d="M86.0076 178.462L83.8215 153.015L44.5294 153.798L42.7922 161.419C40.8026 170.147 47.4353 178.462 56.3867 178.462H86.0076Z" fill="#0F172A"/>
<path d="M75.4318 159.145C75.2965 159.145 75.1843 159.037 75.1798 158.901C75.1754 158.762 75.2846 158.646 75.4234 158.641L84.2845 158.353C84.603 158.315 84.6491 158.846 84.3012 158.857L75.4402 159.145C75.4372 159.145 75.4342 159.145 75.4318 159.145Z" fill="#3F2222"/>
<path d="M44.4922 153.919H84.169C84.8062 152.622 84.8732 150.828 84.7021 148.827L44.9328 148.647L44.4922 153.919Z" fill="#58ADFE"/>
<path d="M77.5865 155.155C77.4512 155.122 77.3685 154.986 77.402 154.851C77.9428 152.652 78.0949 150.396 77.8547 148.145C77.8399 148.007 77.9398 147.883 78.0786 147.868C78.2075 147.854 78.3409 147.953 78.3556 148.092C78.6022 150.401 78.4461 152.716 77.8911 154.971C77.8574 155.109 77.7169 155.189 77.5865 155.155Z" fill="#2E1212"/>
<path d="M58.059 155.398C58.09 147.017 57.9846 147.363 58.1417 147.221C58.2936 147.081 57.6437 147.122 68.727 148.162C68.8565 148.174 68.9549 148.283 68.9549 148.412V154.393C68.9549 154.523 68.8565 154.632 68.727 154.644L58.3351 155.649C58.184 155.663 58.059 155.544 58.059 155.398ZM58.563 147.685V155.121L68.451 154.165V148.641L58.563 147.685Z" fill="white"/>
<path d="M50.0553 154.93C49.8496 152.617 50.0474 150.305 50.6429 148.06C50.7279 147.738 51.2152 147.867 51.1301 148.189C50.5499 150.378 50.357 152.631 50.5573 154.885C50.5696 155.024 50.4672 155.146 50.3284 155.159C50.1961 155.172 50.0682 155.073 50.0553 154.93Z" fill="#2E1212"/>
<path d="M59.1501 91.6941C58.3706 92.1571 57.9263 93.124 57.9392 93.9434C57.9519 94.7627 58.3403 95.451 58.8132 96.0245C59.8868 97.3266 61.4499 98.1837 63.2248 98.4435C60.9595 99.5349 58.8043 101.353 56.9516 103.175C56.123 102.411 55.2111 101.326 54.6637 100.318C54.1163 99.3111 53.8858 98.0279 54.3218 96.7588C55.0037 94.7738 57.206 92.8882 59.1501 91.6941Z" fill="#DEDEDE"/>
<path d="M64.8742 102.031C62.3686 101.602 59.592 102.065 56.9512 103.175C57.0799 103.121 57.1835 102.518 58.4191 101.239C58.9921 100.646 59.6343 100.12 60.318 99.682C61.0077 99.2401 61.7404 98.8868 62.4865 98.6446C62.7658 98.5539 63.1848 98.3658 63.4204 98.5074C63.6972 98.6736 63.8553 99.1848 63.9961 99.4717C64.4008 100.296 64.6834 101.094 64.8742 102.031Z" fill="#2E1212"/>
<path d="M68.4149 98.8464C68.5598 98.6839 68.7528 98.5079 68.9365 98.5359C69.0125 98.5475 69.0718 98.5937 69.1278 98.6394C70.6143 99.8523 71.4643 101.501 71.9339 103.472C71.894 103.304 71.2593 103.125 71.1038 103.058C69.6233 102.414 69.0945 102.493 66.3203 102.08C66.8777 101.328 67.0634 100.36 68.4149 98.8464Z" fill="#2E1212"/>
<path d="M71.8952 103.294C71.8453 103.22 69.7335 100.126 69.4289 99.6864C69.2734 99.4483 68.7206 98.9434 68.8494 98.5842C68.928 98.3706 69.2858 98.1473 69.4505 97.9918C70.1152 97.3571 70.7639 96.5183 70.7955 95.5984C70.8256 94.739 70.3191 93.9088 69.9888 93.132C70.0055 93.0542 70.0222 92.9764 70.0341 92.8989C71.5081 93.8116 72.4918 95.5642 72.8584 97.351C73.2421 99.2106 72.8935 101.357 71.8952 103.294Z" fill="#DEDEDE"/>
<path d="M51.879 133.434C51.879 133.434 50.3797 145.337 46.5382 146.966L43.0059 144.425L46.0687 133.851L49.1371 132.563" fill="#2E1212"/>
<path d="M42.1699 134.329C42.2176 134.337 42.3238 134.795 42.339 134.84C42.8392 136.4 44.8398 142.414 44.8649 142.554C45.0108 143.39 45.2347 143.532 45.7451 143.671C46.3045 143.821 46.8725 143.94 47.4449 144.029C49.4592 144.333 49.5148 143.993 50.6906 144.965C51.4712 145.614 52.4013 146.204 53.4181 146.167C55.2095 146.099 56.5489 144.025 58.4807 144.942C59.3762 145.367 60.0938 146.156 60.4342 147.086C60.5405 147.379 60.638 147.715 60.9155 147.856C61.1605 147.977 61.4728 147.89 61.6787 147.704C61.9432 147.465 62.0234 147.131 62.1297 146.81C62.2532 146.433 62.3573 146.065 62.3118 145.659C62.3834 146.29 62.4896 146.917 62.6284 147.539C62.7368 148.022 62.9211 148.569 63.385 148.749C63.8078 148.911 64.3022 148.673 64.5602 148.302C65.0888 147.536 64.7834 146.532 64.9417 145.659C65.0783 146.422 65.2084 147.188 65.3428 147.949C65.4404 148.519 65.4166 149.362 65.8675 149.785C66.2252 150.123 66.8258 150.117 67.2334 149.844C67.6432 149.573 67.8752 149.085 67.9381 148.597C68.0183 147.936 67.8296 147.231 67.7668 146.574C67.7538 146.438 67.7386 146.303 67.7191 146.169C67.9641 147.248 68.2807 148.309 68.7967 149.282C69.1847 150.026 70.2081 150.824 70.9886 150.019C71.4418 149.549 71.3008 148.79 71.1296 148.166C70.2731 144.959 69.2628 141.518 66.6307 139.497C64.352 137.741 61.3166 137.422 58.459 137.082C51.996 136.333 48.7601 135.716 42.1699 134.329Z" fill="#F2AF8F"/>
<path d="M42.5645 135.527C42.5814 135.578 44.858 142.502 44.867 142.552C45.0129 143.387 45.2368 143.53 45.7473 143.669C46.3067 143.818 46.8747 143.938 47.4471 144.027C47.5273 141.162 48.323 138.318 49.7518 135.835C47.8026 135.51 44.2805 134.765 42.9135 134.48C42.7748 134.821 42.6599 135.172 42.5645 135.527Z" fill="#E29074"/>
<path d="M62.0808 145.982C61.8801 144.493 61.0932 143.101 59.9225 142.161C59.8137 142.074 59.7965 141.916 59.8836 141.807C59.9708 141.698 60.1302 141.682 60.2375 141.768C61.5086 142.788 62.3623 144.299 62.5798 145.915C62.5985 146.053 62.502 146.18 62.3638 146.198C62.2221 146.217 62.0987 146.117 62.0808 145.982Z" fill="#8D3F3F"/>
<path d="M64.8018 146C64.4893 144.322 63.6852 142.701 62.5362 141.438C62.4427 141.335 62.4501 141.176 62.5534 141.082C62.6562 140.989 62.8162 140.996 62.9092 141.099C64.1375 142.45 64.9632 144.113 65.2968 145.908C65.3225 146.045 65.2324 146.176 65.0956 146.202C64.9611 146.227 64.8271 146.139 64.8018 146Z" fill="#8D3F3F"/>
<path d="M67.6976 146.831C67.4044 145.013 66.6436 143.29 65.4965 141.85C65.4094 141.741 65.4277 141.583 65.5364 141.496C65.6446 141.41 65.8036 141.427 65.8902 141.536C67.0914 143.044 67.8881 144.847 68.1947 146.75C68.2168 146.888 68.1238 147.017 67.986 147.039C67.8515 147.062 67.7198 146.97 67.6976 146.831Z" fill="#8D3F3F"/>
<path d="M42.1744 132.608C42.4377 132.023 42.8299 131.499 43.0528 130.894C43.3753 130.02 43.0874 129.867 42.3538 129.404C42.2224 129.321 42.0884 129.235 41.9924 129.113C41.7432 128.796 41.8187 128.345 41.78 127.943C41.7141 127.26 41.2503 126.629 40.6174 126.362C40.006 126.105 38.6316 126.154 37.467 124.768C39.8609 123.089 42.0613 121.152 44.2561 119.22C46.5319 117.217 47.0028 116.916 47.1132 116.255C47.2237 115.594 46.7829 114.776 46.6428 114.13C46.0173 111.242 46.658 111.412 46.8896 108.235C47.6072 98.3878 47.74 98.4615 47.3448 97.7371C46.9278 96.9728 45.7151 96.4086 44.1577 96.9455C41.767 97.7697 40.2178 99.8478 38.5954 101.708C35.8327 104.875 33.1096 108.077 30.427 111.312C26.4688 116.086 21.2308 121.519 21.0067 127.367C20.921 129.604 21.6586 131.417 22.9243 133.202C25.0069 136.139 28.3642 136.877 29.271 137.923C29.5489 138.243 29.7202 138.64 29.9463 138.999C30.7396 140.259 31.9472 140.512 33.2071 141.083C34.7523 141.784 36.3161 142.443 37.8965 143.061C38.0742 143.13 38.1385 143.095 38.2113 142.938C39.1063 141.009 40.441 138.909 40.8235 136.806C41.0904 135.339 41.5631 133.964 42.1744 132.608Z" fill="#FF7E32"/>
<path d="M46.129 146.926L38.1817 143.202C38.1817 143.202 36.5658 136.602 42.9209 129.992L51.8789 133.436C51.8789 133.436 46.2632 136.929 46.129 146.926Z" fill="#DEDEDE"/>
<path d="M37.9393 143.26C37.9226 143.192 36.3646 136.449 42.7416 129.816C42.8386 129.715 42.9985 129.713 43.0979 129.809C43.1983 129.905 43.2012 130.065 43.1048 130.165C36.9178 136.6 38.4127 143.075 38.4284 143.14C38.4619 143.275 38.3788 143.411 38.2439 143.445C38.1099 143.477 37.9726 143.396 37.9393 143.26Z" fill="#D8550F"/>
<path d="M39.0374 129.019C38.8996 129.019 38.7869 128.908 38.7854 128.769C38.7751 127.813 39.0502 126.841 39.5595 126.032C39.6338 125.914 39.7898 125.88 39.9069 125.954C40.0245 126.028 40.06 126.183 39.9856 126.301C39.5275 127.028 39.28 127.903 39.2893 128.764C39.2908 128.903 39.1791 129.017 39.0403 129.019C39.0394 129.019 39.0384 129.019 39.0374 129.019Z" fill="#D8550F"/>
<path d="M32.6115 125.551C32.5116 125.551 32.4171 125.492 32.3778 125.394C32.3256 125.264 32.3881 125.118 32.5175 125.066C34.4244 124.297 36.0365 124.108 37.4473 124.485C37.7688 124.571 37.6397 125.059 37.3164 124.972C36.0173 124.624 34.508 124.807 32.7055 125.533C32.675 125.545 32.643 125.551 32.6115 125.551Z" fill="#D8550F"/>
<path d="M30.2053 139.588C29.6419 139.022 29.3703 138.258 29.1311 137.584C28.7182 136.424 28.2502 135.108 28.3654 133.761C28.3777 133.623 28.5076 133.519 28.638 133.532C28.7763 133.544 28.8792 133.666 28.8673 133.804C28.7616 135.042 29.2098 136.303 29.6055 137.416C29.8274 138.04 30.0789 138.747 30.5626 139.233C30.6605 139.331 30.6605 139.491 30.5616 139.589C30.4624 139.688 30.3031 139.686 30.2053 139.588Z" fill="#D8550F"/>
<path d="M43.8184 144.422C44.2661 144.422 44.629 144.059 44.629 143.611C44.629 143.163 44.2661 142.801 43.8184 142.801C43.3707 142.801 43.0078 143.163 43.0078 143.611C43.0078 144.059 43.3707 144.422 43.8184 144.422Z" fill="#2D1713"/>
<path d="M120.743 118.76L113.649 123.928C113.649 123.928 107.088 122.163 104.359 113.409L111.695 107.22C111.695 107.22 112.048 113.824 120.743 118.76Z" fill="#DEDEDE"/>
<path d="M113.583 124.171C113.516 124.153 106.857 122.268 104.119 113.483C104.078 113.35 104.152 113.209 104.285 113.168C104.418 113.128 104.559 113.201 104.6 113.333C107.256 121.856 113.65 123.667 113.714 123.684C113.848 123.72 113.928 123.859 113.892 123.993C113.856 124.127 113.718 124.207 113.583 124.171Z" fill="#D8550F"/>
<path d="M93.7962 136.904C93.4735 136.844 93.5543 136.353 93.8887 136.409C96.1542 136.831 98.6316 136.245 101.466 135.745C101.601 135.724 101.735 135.813 101.758 135.95C101.782 136.087 101.691 136.218 101.554 136.242L99.5605 136.593C97.6807 136.924 95.7056 137.26 93.7962 136.904Z" fill="#D8550F"/>
<path d="M100.33 120.493C100.326 120.493 100.322 120.493 100.317 120.493C100.178 120.486 100.071 120.368 100.078 120.229C100.159 118.618 100.591 117.008 101.329 115.573C101.392 115.449 101.544 115.401 101.668 115.464C101.791 115.527 101.841 115.679 101.777 115.803C101.072 117.175 100.659 118.714 100.581 120.254C100.575 120.389 100.463 120.493 100.33 120.493Z" fill="#D8550F"/>
<path d="M115.922 118.722C115.781 119.147 116.011 119.606 116.436 119.747C116.861 119.888 117.32 119.658 117.461 119.233C117.602 118.808 117.372 118.349 116.947 118.208C116.522 118.067 116.063 118.298 115.922 118.722Z" fill="#2D1713"/>
<path d="M85.1978 134.548C84.6442 127.177 84.3716 119.69 84.3874 112.296C84.3878 112.157 84.5005 112.044 84.6393 112.044H84.6398C84.779 112.045 84.8917 112.158 84.8912 112.297C84.8755 119.678 85.1476 127.152 85.7007 134.51C85.711 134.648 85.6067 134.769 85.468 134.78C85.3304 134.79 85.2087 134.687 85.1978 134.548Z" fill="#D8550F"/>
<path d="M43.9217 119.439C43.841 119.326 43.8676 119.168 43.9807 119.088C45.6179 117.924 47.1498 116.595 48.5346 115.139C48.6315 115.039 48.7909 115.035 48.8908 115.13C48.9917 115.226 48.9957 115.386 48.8997 115.487C47.4928 116.966 45.9358 118.316 44.2731 119.498C44.1622 119.578 44.004 119.555 43.9217 119.439Z" fill="#D8550F"/>
<path d="M71.7909 76.6334C72.2092 75.9678 73.2068 75.8523 73.8894 76.2421C74.5721 76.6319 74.9686 77.3924 75.146 78.1582C75.4058 79.2801 75.2618 80.4911 74.7461 81.5208C73.8274 83.3552 71.9678 84.3977 70.2051 85.3632" fill="#F2AF8F"/>
<path d="M58.3929 85.5596C57.3662 85.0342 56.3322 84.5042 55.4252 83.7916C53.5468 82.316 53.117 80.8873 53.1524 79.0752C53.1945 76.916 54.4918 75.8434 55.6911 75.9346C57.1466 76.0451 58.1341 76.6837 58.7133 78.7123C58.9187 79.4317 59.0285 80.1747 59.2015 80.9026" fill="#F2AF8F"/>
<path d="M59.7949 63.8122C59.9395 61.4291 62.0056 59.6007 64.396 59.7574C65.8543 59.853 67.1636 60.6716 68.5905 60.9876" fill="#B56764"/>
<path d="M56.4509 77.2219C55.0546 74.9361 53.4555 70.7883 54.0026 68.2317C54.339 66.66 55.4657 65.3485 56.7959 64.4464C58.4306 63.3377 59.6364 63.0051 68.267 59.94C68.9548 59.6957 69.6473 59.4502 70.3682 59.3362C72.8314 58.9467 74.5509 60.4888 73.8094 62.8655C73.5533 63.6865 73.0585 64.4087 72.5706 65.1169C73.7643 65.2372 74.8281 66.1863 75.0832 67.3587C75.6396 69.9164 73.0387 71.4115 72.0541 76.3631C71.8925 77.1757 71.7002 78.6039 71.3231 78.903C71.0519 79.1183 70.9163 79.0554 67.1464 78.9866" fill="#964949"/>
<path d="M71.9208 81.2385C71.6562 73.6652 71.4125 74.8863 70.9822 71.6604C70.8528 70.6904 70.5865 70.0883 69.6414 69.6826C64.9978 67.6891 64.956 67.538 61.0594 66.845C59.2428 66.5219 57.8545 66.6451 57.1253 68.7282C56.8326 69.5645 56.7984 70.4659 56.7671 71.3513C56.7063 73.0705 56.6169 74.7961 56.5163 76.5025C56.4106 78.2932 56.6164 80.1827 56.6454 81.9815C56.6722 83.6471 56.3657 85.2307 56.7926 86.876C57.313 88.8818 59.0507 90.5844 60.8608 91.4925C62.5038 92.3168 64.452 92.2933 66.2563 91.9424C67.8938 91.624 68.553 91.1799 69.6557 89.996C70.7046 88.8697 71.4807 87.9485 71.6573 86.2828C71.7759 85.1629 72.0458 84.815 71.9208 81.2385Z" fill="#F2AF8F"/>
<path d="M55.8166 79.9876C54.9663 79.0614 55.1393 79.2792 54.3935 78.2375C54.3118 78.1246 54.3374 77.9671 54.4506 77.8856C54.5623 77.8045 54.7202 77.8298 54.8019 77.9427C55.4837 78.9076 55.43 78.8226 56.1886 79.6475C56.2826 79.7501 56.2752 79.9096 56.1729 80.0036C56.0671 80.0992 55.9087 80.0883 55.8166 79.9876Z" fill="#B75958"/>
<path d="M72.4903 80.0372C72.3692 79.9681 72.3274 79.8143 72.3968 79.6935C72.9779 78.6755 72.8907 78.9851 73.4504 77.9953C73.5192 77.8738 73.6743 77.8317 73.7939 77.9004C73.9149 77.969 73.9577 78.1228 73.8893 78.2438C73.3037 79.2765 73.4077 78.9397 72.8338 79.9435C72.7875 80.0249 72.6097 80.1059 72.4903 80.0372Z" fill="#B75958"/>
<path d="M70.9311 74.5651C70.8837 74.4268 70.8066 74.3064 70.7496 74.1736C70.5412 73.6883 70.1507 73.1961 69.6277 73.1095C69.4783 73.0848 69.3256 73.0961 69.1746 73.1074C69.0874 73.1139 65.897 73.3526 65.7888 73.4671C65.7379 73.5208 65.8147 74.4505 65.8213 74.5235C67.0331 74.3158 68.2558 74.2693 69.4849 74.2984C70.0788 74.3125 70.6123 74.5 71.019 74.9494C70.9671 74.8922 70.9596 74.6482 70.9311 74.5651Z" fill="#964949"/>
<path d="M57.4458 74.7511C57.4933 74.4252 57.5234 74.493 57.66 74.1748C57.8684 73.6894 58.2589 73.1973 58.7819 73.1107C59.0996 73.0581 62.5275 73.3696 62.6208 73.4683C62.6716 73.522 62.5948 74.4517 62.5882 74.5247C61.3765 74.317 60.1537 74.2705 58.9246 74.2996C58.3308 74.3137 57.7973 74.5012 57.3906 74.9506C57.4185 74.9197 57.4335 74.8355 57.4458 74.7511Z" fill="#964949"/>
<path d="M64.1523 81.8128C64.0131 81.8128 63.9004 81.7001 63.9004 81.5608V75.9707C63.9004 75.8314 64.0131 75.7188 64.1523 75.7188C64.2916 75.7188 64.4043 75.8314 64.4043 75.9707V81.5608C64.4043 81.7001 64.2916 81.8128 64.1523 81.8128Z" fill="#B75958"/>
<path d="M63.49 82.8593C63.1278 82.646 62.7518 82.4479 62.3719 82.2708C62.2459 82.2117 62.1913 82.0619 62.2504 81.9359C62.3094 81.8092 62.4605 81.7558 62.5855 81.8141C62.9791 81.9981 63.3699 82.2036 63.7458 82.4248C63.8654 82.4954 63.9058 82.6499 63.8349 82.7697C63.7645 82.8901 63.6098 82.9295 63.49 82.8593Z" fill="#B75958"/>
<path d="M64.7131 82.3834C64.9882 82.2355 65.2607 82.0713 65.5231 81.8957C65.6387 81.8184 65.7952 81.8489 65.8724 81.9648C65.9502 82.0804 65.9192 82.2369 65.8036 82.3144C65.5275 82.4992 65.2411 82.6717 64.9522 82.8272C64.6531 82.9864 64.4241 82.5388 64.7131 82.3834Z" fill="#B75958"/>
<path d="M68.555 84.4294C68.5391 84.4848 68.5075 84.5323 68.4759 84.5757C68.2664 84.8683 68.0095 85.1291 67.8197 85.4296C67.3064 86.2771 66.6001 87.0608 65.7008 87.4772C64.9696 87.8212 64.1156 87.9279 63.3369 87.7144C62.0143 87.3422 60.8015 86.038 60.0045 84.9156C59.5553 84.3035 59.7479 83.9708 60.3524 83.9708C68.4915 83.9621 68.1474 83.9618 68.2941 84.0103C68.468 84.0697 68.6103 84.2555 68.555 84.4294Z" fill="#361618"/>
<path d="M68.1863 83.985C68.0006 84.4949 67.5539 85.1908 66.9925 85.2224C66.4905 85.2539 65.9291 85.175 65.4152 85.175C62.2795 85.1333 61.2855 85.309 60.7744 85.0089C60.4225 84.8034 60.2881 84.3843 60.2012 83.9811C60.2996 83.9659 67.5931 83.9651 67.6369 83.9691C67.8108 83.985 68.0085 83.9535 68.1863 83.985Z" fill="#FCFBFB"/>
<path d="M66.7155 86.7903C66.4112 87.0671 66.0752 87.3002 65.6996 87.4742C64.9683 87.8182 64.1144 87.9249 63.3356 87.7114C62.7508 87.5468 62.1771 87.1929 61.7148 86.8023C62.6582 85.6231 65.3775 85.4522 66.7155 86.7903Z" fill="#CE635A"/>
<path d="M69.2868 78.1885C69.0724 78.1885 68.9662 77.8946 68.3917 77.5599C67.614 77.1062 67.0633 77.3951 66.415 78.019C66.3156 78.1154 66.1561 78.113 66.0587 78.0121C65.9622 77.912 65.9652 77.7525 66.0656 77.6558C67.3813 76.3891 68.2768 76.7098 69.4531 77.7466C69.6276 77.9004 69.5174 78.1885 69.2868 78.1885Z" fill="#B75958"/>
<path d="M58.5307 78.1299C58.4121 78.0573 58.3747 77.9023 58.447 77.7834C59.241 76.4824 61.1533 76.4191 62.0137 77.7162C62.0904 77.8322 62.059 77.9886 61.9428 78.0654C61.8277 78.1419 61.6707 78.1112 61.5934 77.9948C60.9555 77.0315 59.4957 77.0334 58.8771 78.0462C58.8036 78.1661 58.6477 78.2018 58.5307 78.1299Z" fill="#B75958"/>
<path d="M77.142 249.429C74.5131 251.41 70.9397 251.333 69.4445 250.202C68.7046 249.655 68.6924 248.649 68.5016 247.862C66.4647 235.842 67.0169 240.773 64.8551 231.625C64.8265 231.514 64.802 231.402 64.7774 231.291C64.7528 231.179 64.7242 231.072 64.7036 230.96C64.1204 228.48 63.6008 225.994 63.1328 223.498C63.1348 223.426 70.8433 221.697 71.5443 221.518C72.289 221.334 73.1171 220.993 73.7422 221.41L73.7462 221.41C73.8664 221.493 73.9779 221.606 74.0846 221.752C74.6627 222.575 74.7012 224.166 74.8775 225.214L74.8773 225.219C74.8872 225.29 74.9013 225.354 74.9114 225.417C74.9461 225.588 74.9811 225.751 75.0119 225.922C76.1889 231.814 77.0606 235.03 77.1086 235.08C78.8501 241.357 80.0555 242.397 80.1782 244.519C80.2875 246.404 78.5762 248.35 77.142 249.429Z" fill="#F2AF8F"/>
<path d="M75.0731 225.874C75.054 225.89 75.0326 225.905 75.0135 225.921C71.9955 228.394 68.5379 230.334 64.856 231.623C64.8288 231.513 64.804 231.4 64.7768 231.29C64.1685 228.704 63.6211 226.106 63.1348 223.495C63.1367 223.426 70.845 221.695 71.5445 221.519C72.2911 221.332 73.1188 220.992 73.7434 221.41L73.7458 221.41L74.8771 225.213L74.8769 225.218L75.0731 225.874Z" fill="#FD8471"/>
<path d="M76.2346 251.271C76.2452 251.709 76.6098 252.057 77.0484 252.046C77.487 252.036 77.8345 251.671 77.824 251.232C77.8134 250.794 77.4488 250.446 77.0102 250.457C76.5715 250.467 76.224 250.832 76.2346 251.271Z" fill="white"/>
<path d="M77.1246 235.062C76.902 235.478 76.1846 235.925 75.9054 236.096C73.4255 237.599 69.7301 239.2 66.9216 239.447C66.031 235.883 66.327 237.86 64.8546 231.63C64.8261 231.519 64.8015 231.407 64.777 231.296C64.7524 231.184 64.7238 231.077 64.7031 230.965L77.0972 235.053L77.1246 235.062Z" fill="#E29074"/>
<path d="M54.9044 170.251L62.3929 234.37C69.6251 236.625 75.9903 237.094 80.1228 232.956L76.3914 168.377C76.0684 162.786 71.5208 158.371 65.9224 158.215C59.3491 158.031 54.1416 163.72 54.9044 170.251Z" fill="#0F172A"/>
<path d="M76.9696 178.713C76.8382 178.713 76.7271 178.611 76.7187 178.477L75.9023 165.754C74.3995 158.567 65.1432 158.491 64.8696 158.491C64.5588 158.491 56.9117 158.698 48.7291 158.402C48.5903 158.398 48.4816 158.281 48.4865 158.142C48.4919 158.003 48.5918 157.891 48.7478 157.899C53.7568 158.08 58.876 158.108 64.8568 157.987C64.936 157.995 74.7931 157.986 76.4003 165.687L77.2216 178.445C77.2304 178.584 77.1252 178.704 76.9864 178.713C76.981 178.713 76.9756 178.713 76.9696 178.713Z" fill="#3F2222"/>
<path d="M54.9458 156.142L54.9453 156.158L54.9577 156.131C54.9529 156.135 54.9483 156.138 54.9458 156.142Z" fill="#18142E"/>
<path d="M63.4007 222.92C63.2718 222.92 63.1621 222.821 63.1502 222.69C61.9997 209.861 60.099 197.426 59.0009 184.644C58.9891 184.505 59.0915 184.383 59.2303 184.371C59.3636 184.357 59.4911 184.462 59.5029 184.6C60.6001 197.379 62.4985 209.776 63.6522 222.645C63.6645 222.784 63.5621 222.906 63.4238 222.919C63.416 222.92 63.4086 222.92 63.4007 222.92Z" fill="#3F2222"/>
<path d="M76.1539 223.277C76.0255 223.277 75.9158 223.178 75.9034 223.048C74.729 210.309 74.2476 197.473 73.5512 184.551C73.5335 184.218 74.0376 184.191 74.0542 184.524C74.7449 197.305 75.2271 210.221 76.4054 223.001C76.4182 223.14 76.3163 223.263 76.1776 223.276C76.1696 223.276 76.1618 223.277 76.1539 223.277Z" fill="#3F2222"/>
<path d="M70.7495 257.943C73.6128 259.914 75.3356 261.561 78.5073 261.283C80.8959 261.073 86.895 261.285 91.5598 260.264C91.7746 260.217 92.0012 260.16 92.155 260.003C92.277 259.879 92.3367 259.706 92.3764 259.537C92.6697 258.286 92.0479 256.963 91.1163 256.078C90.3943 255.393 89.5074 254.92 88.6104 254.506C87.8274 254.144 86.8437 254.168 86.1975 253.544C85.5543 252.922 84.8924 252.04 84.3469 251.317C82.8086 249.294 81.6558 247.02 80.593 244.72C79.8975 243.225 79.7281 242.629 79.2118 242.29C78.3542 241.725 76.6339 241.825 75.6336 241.751C74.9455 241.7 74.4468 241.733 73.6384 242.61C72.8428 243.466 71.9316 245.144 70.7819 245.855C69.8403 246.44 68.8279 246.351 67.8286 246.022C67.5243 247.983 67.2878 249.966 66.8401 251.921C66.5856 253.032 66.4413 254.015 66.6213 255.144C66.6394 255.259 66.6631 255.375 66.7236 255.474C67.0107 255.943 69.4845 257.072 70.7495 257.943Z" fill="#2E1212"/>
<path d="M66.6877 252.988C66.7177 253.185 66.7575 253.319 66.9055 253.454C67.4846 253.966 69.5885 254.941 71.075 255.968C71.1467 256.019 72.2567 256.795 72.317 256.837C72.3191 256.837 72.3191 256.837 72.319 256.839C73.0043 257.32 73.696 257.788 74.4203 258.21C75.6479 258.926 76.8215 259.346 78.2388 259.226C82.634 258.848 87.2456 259.067 91.626 258.109C91.8416 258.061 92.0677 258.005 92.2218 257.847C92.3438 257.724 92.4027 257.551 92.4428 257.382C92.7357 256.13 92.1135 254.808 91.1838 253.924C90.4607 253.238 89.5736 252.764 88.6764 252.35C87.8884 251.986 86.9106 252.015 86.2642 251.388C85.6265 250.772 84.9974 249.935 84.4135 249.162C82.5825 246.754 81.3006 243.996 80.0603 241.248C79.8703 240.829 79.6622 240.387 79.2784 240.135C78.4208 239.57 76.7005 239.669 75.7002 239.596C75.4326 239.576 75.1606 239.56 74.9029 239.63C73.4018 240.029 72.4741 242.694 70.8485 243.7C69.9068 244.285 68.8945 244.196 67.8952 243.867C67.5908 245.827 67.3544 247.811 66.9067 249.765C66.6532 250.877 66.5072 251.861 66.6877 252.988Z" fill="#2F66DA"/>
<path d="M66.8285 253.522C67.3631 253.968 67.6182 253.573 71.0805 255.974C71.5313 256.284 71.9905 256.446 72.3184 256.84C73.0037 257.321 73.6954 257.789 74.4197 258.211C75.6473 258.927 76.8209 259.347 78.2382 259.227C82.6334 258.849 87.245 259.068 91.6254 258.11C91.841 258.062 92.0671 258.006 92.2212 257.848C92.3432 257.725 92.4021 257.552 92.4422 257.383C92.7351 256.131 92.1129 254.809 91.1832 253.925C90.4601 253.239 89.573 252.765 88.6758 252.351C87.8791 251.983 86.9141 252.02 86.2636 251.389C85.9821 251.117 85.714 250.819 85.4587 250.506C82.5159 250.669 79.5951 251.236 76.8029 252.187C77.6463 251.177 78.5628 250.228 79.5459 249.353C78.1328 246.128 76.2059 243.127 73.8632 240.498C73.8096 240.484 73.758 240.47 73.7044 240.456C72.6292 241.613 71.4495 244.116 69.5144 244.123C68.5761 244.126 68.1002 242.952 67.8463 243.856C67.4603 245.23 66.6425 249.404 66.5153 250.707C66.4416 251.463 66.2346 253.027 66.8285 253.522Z" fill="#58ADFE"/>
<path d="M80.6562 242.566C80.972 244.361 81.4282 246.121 82.2224 247.757C82.6219 248.594 83.0048 249.063 84.6306 249.454C82.9357 247.22 81.926 245.315 80.6562 242.566Z" fill="#58ADFE"/>
<path d="M78.0297 248.267C79.3174 247.559 80.7753 247.169 82.3571 247.169C82.4964 247.17 82.6086 247.283 82.6076 247.422C82.6067 247.561 82.4939 247.673 82.3557 247.673C82.3414 247.676 82.3242 247.673 82.3079 247.673C80.9006 247.673 79.506 248.03 78.2728 248.708C77.9774 248.869 77.7407 248.426 78.0297 248.267Z" fill="#2E1212"/>
<path d="M77.1802 246.129C78.5034 245.384 80.0023 245.003 81.5229 245.011C81.6621 245.012 81.7738 245.126 81.7728 245.265C81.7719 245.403 81.6591 245.515 81.5209 245.515C81.4928 245.517 81.4717 245.515 81.4476 245.515C80.0416 245.515 78.653 245.878 77.4272 246.568C77.1377 246.733 76.8905 246.292 77.1802 246.129Z" fill="#2E1212"/>
<path d="M74.4501 244.641C74.3841 244.518 74.4299 244.366 74.5524 244.3C76.4928 243.253 78.7687 242.811 80.9565 243.054C81.0948 243.069 81.1947 243.193 81.1794 243.332C81.1641 243.47 81.0342 243.567 80.9013 243.554C78.81 243.322 76.6423 243.745 74.7915 244.743C74.6729 244.808 74.5181 244.766 74.4501 244.641Z" fill="#2E1212"/>
<path d="M103.421 249.429C100.792 251.41 97.219 251.333 95.7238 250.202C95.4681 250.013 95.2972 249.763 95.1742 249.49C94.892 248.817 94.8267 247.946 93.7515 241.969C93.125 238.512 91.4038 234.123 89.4121 223.498C89.4141 223.426 97.1226 221.697 97.8236 221.518C98.5683 221.334 99.3964 220.993 100.021 221.41L100.025 221.41C100.932 222.032 100.946 223.962 101.157 225.214C101.255 225.787 101.946 229.242 102.536 231.746C102.7 232.45 103.337 235.027 103.388 235.08C105.129 241.357 106.335 242.397 106.457 244.519C106.567 246.404 104.855 248.35 103.421 249.429Z" fill="#F2AF8F"/>
<path d="M101.352 225.874C98.4489 228.272 94.9477 230.289 91.1353 231.623C90.7431 230.033 90.0041 226.662 89.4141 223.495C89.416 223.426 97.1243 221.695 97.8238 221.519C98.5704 221.332 99.3981 220.992 100.023 221.41L100.025 221.41L101.156 225.213L101.156 225.218L101.352 225.874Z" fill="#FD8471"/>
<path d="M102.526 251.271C102.536 251.709 102.901 252.057 103.339 252.046C103.778 252.036 104.126 251.671 104.115 251.232C104.104 250.794 103.74 250.446 103.301 250.457C102.863 250.467 102.515 250.832 102.526 251.271Z" fill="white"/>
<path d="M103.404 235.062C102.815 236.161 96.8847 239.123 93.2009 239.447C92.6439 237.218 91.5066 233.796 90.9824 230.965C93.6693 231.851 84.3218 228.769 103.404 235.062Z" fill="#E29074"/>
<path d="M81.1837 170.251L88.6722 234.37C95.9044 236.625 102.27 237.094 106.402 232.956L102.671 168.377C102.348 162.786 97.8001 158.371 92.2016 158.215C85.6284 158.031 80.4209 163.72 81.1837 170.251Z" fill="#0F172A"/>
<path d="M82.0566 178.715C81.9247 178.715 81.8135 178.613 81.8052 178.48L80.9888 165.756C80.9799 165.617 81.0853 165.497 81.224 165.489C81.35 165.486 81.4833 165.585 81.4917 165.724L82.3081 178.447C82.317 178.586 82.2117 178.706 82.0729 178.715C82.0674 178.715 82.062 178.715 82.0566 178.715Z" fill="#3F2222"/>
<path d="M81.2251 156.142L81.2246 156.158L81.237 156.131C81.2323 156.135 81.2276 156.138 81.2251 156.142Z" fill="#18142E"/>
<path d="M89.6873 222.921C89.5608 222.921 89.4521 222.826 89.4373 222.697C87.9448 209.433 86.5207 196.148 85.1434 183.3L85.0991 182.885C85.0843 182.746 85.1842 182.622 85.3225 182.607C85.4584 182.592 85.5853 182.693 85.6001 182.831L85.6444 183.246C87.0217 196.093 88.4458 209.378 89.9383 222.64C89.9536 222.779 89.8542 222.903 89.7159 222.919C89.7065 222.92 89.6967 222.921 89.6873 222.921Z" fill="#3F2222"/>
<path d="M102.435 223.276C102.303 223.276 102.193 223.173 102.184 223.04L98.4262 161.538C98.4179 161.4 98.5237 161.28 98.6625 161.272C98.8008 161.264 98.9208 161.369 98.9292 161.508L102.687 223.009C102.696 223.148 102.59 223.267 102.451 223.276C102.446 223.276 102.441 223.276 102.435 223.276Z" fill="#3F2222"/>
<path d="M97.0348 257.945C99.8981 259.916 101.621 261.563 104.793 261.285C107.181 261.075 113.18 261.287 117.845 260.266C118.337 260.158 118.545 260.034 118.662 259.539C118.955 258.288 118.333 256.965 117.402 256.08C116.68 255.394 115.793 254.922 114.896 254.508C114.113 254.146 113.129 254.17 112.483 253.546C111.839 252.924 111.178 252.042 110.632 251.319C108.801 248.911 107.519 246.154 106.279 243.405C106.089 242.986 105.881 242.544 105.497 242.292C104.639 241.727 102.919 241.827 101.919 241.753C101.651 241.733 101.379 241.717 101.121 241.787C99.6204 242.187 98.6927 244.852 97.0671 245.857C96.1254 246.442 95.1131 246.353 94.1137 246.024C93.8094 247.985 93.573 249.968 93.1252 251.923C92.8708 253.034 92.7265 254.017 92.9064 255.146C92.9246 255.261 92.9483 255.377 93.0087 255.476C93.3046 255.959 95.7253 257.043 97.0348 257.945Z" fill="#2E1212"/>
<path d="M92.9631 252.989C93.0066 253.274 93.0735 253.396 93.3377 253.573C94.8333 254.601 95.7272 254.825 97.3565 255.973C97.7707 256.259 98.1804 256.551 98.5925 256.837C98.5945 256.837 98.5945 256.837 98.5944 256.839C100.594 258.242 102.326 259.412 104.514 259.226C108.91 258.848 113.521 259.067 117.902 258.109C118.394 258 118.601 257.879 118.718 257.382C119.011 256.13 118.389 254.808 117.459 253.924C116.736 253.238 115.849 252.764 114.952 252.35C114.167 251.988 113.186 252.015 112.54 251.388C112.258 251.116 111.99 250.818 111.735 250.505C111.449 250.16 111.176 249.803 110.91 249.453C110.835 249.355 110.761 249.257 110.689 249.162C108.858 246.754 107.576 243.996 106.336 241.248C106.146 240.829 105.938 240.387 105.554 240.135C104.696 239.57 102.976 239.669 101.976 239.596C101.708 239.576 101.436 239.56 101.178 239.63C99.6774 240.029 98.7497 242.694 97.124 243.7C96.1824 244.285 95.1701 244.196 94.1707 243.867C93.8664 245.827 93.6299 247.811 93.1822 249.765C92.9286 250.877 92.7825 251.861 92.9631 252.989Z" fill="#2F66DA"/>
<path d="M97.3565 255.974C97.8074 256.284 98.2666 256.447 98.5945 256.841C100.594 258.244 102.326 259.413 104.514 259.227C108.91 258.85 113.521 259.069 117.902 258.111C118.394 258.001 118.601 257.881 118.718 257.383C119.011 256.131 118.389 254.81 117.459 253.925C116.736 253.239 115.849 252.765 114.952 252.352C114.126 251.97 113.205 252.035 112.54 251.39C112.258 251.118 111.99 250.819 111.735 250.506C108.792 250.669 105.871 251.236 103.079 252.188C103.922 251.178 104.839 250.228 105.822 249.353C104.409 246.128 102.482 243.128 100.139 240.498C100.086 240.484 100.034 240.47 99.9805 240.456C98.9075 241.611 97.7277 244.117 95.7905 244.123C94.8522 244.126 94.3763 242.953 94.1224 243.857C93.7694 245.113 92.9187 249.403 92.7914 250.708C92.7175 251.466 92.5808 252.499 92.8808 253.221C93.1683 253.913 93.5561 253.339 97.3565 255.974Z" fill="#58ADFE"/>
<path d="M106.932 242.566C107.247 244.361 107.704 246.121 108.498 247.757C108.62 248.012 108.752 248.263 108.935 248.478C109.418 249.047 110.173 249.278 110.906 249.454C110.832 249.356 110.758 249.259 110.685 249.163C109.147 247.141 107.994 244.867 106.932 242.566Z" fill="#58ADFE"/>
<path d="M104.217 248.609C104.15 248.487 104.194 248.334 104.316 248.267C105.624 247.548 107.102 247.169 108.594 247.169C108.611 247.169 108.627 247.169 108.643 247.169C108.783 247.17 108.895 247.283 108.894 247.423C108.893 247.561 108.78 247.673 108.642 247.673C108.631 247.676 108.611 247.673 108.594 247.673C107.187 247.673 105.792 248.031 104.559 248.708C104.435 248.776 104.283 248.729 104.217 248.609Z" fill="#2E1212"/>
<path d="M103.361 246.472C103.292 246.351 103.335 246.197 103.457 246.129C104.78 245.384 106.267 245.003 107.8 245.011C107.939 245.012 108.051 245.126 108.05 245.265C108.049 245.403 107.936 245.515 107.798 245.515C107.77 245.517 107.749 245.515 107.724 245.515C106.319 245.515 104.93 245.878 103.704 246.568C103.585 246.636 103.43 246.595 103.361 246.472Z" fill="#2E1212"/>
<path d="M100.727 244.641C100.661 244.518 100.707 244.366 100.83 244.3C102.77 243.253 105.046 242.811 107.234 243.054C107.372 243.069 107.472 243.193 107.457 243.332C107.441 243.47 107.31 243.567 107.179 243.554C105.087 243.322 102.919 243.745 101.069 244.743C100.95 244.808 100.795 244.766 100.727 244.641Z" fill="#2E1212"/>
<path d="M165.689 175.407H149.481L144.295 157.717H160.503L165.689 175.407Z" fill="#64748B"/>
<path d="M163.994 175.407H147.786L142.6 157.717H158.807L163.994 175.407Z" fill="#E2E8F0"/>
<path d="M184.912 124.742V160.501C184.912 162.53 183.266 164.176 181.237 164.176H130.774C128.744 164.176 127.102 162.53 127.102 160.501V124.742C127.102 122.716 128.745 121.07 130.774 121.07H181.237C183.266 121.07 184.912 122.716 184.912 124.742Z" fill="#E2E8F0"/>
<path d="M182.431 124.742V160.501C182.431 162.53 180.788 164.176 178.758 164.176H128.295C126.266 164.176 124.623 162.53 124.623 160.501V124.742C124.623 122.716 126.266 121.07 128.295 121.07H178.758C180.788 121.07 182.431 122.716 182.431 124.742Z" fill="#475569"/>
<path d="M180.718 124.747V160.503C180.718 161.654 179.781 162.59 178.63 162.59H128.167C127.019 162.59 126.082 161.654 126.082 160.503V124.747C126.082 123.596 127.019 122.659 128.167 122.659H178.63C179.781 122.659 180.718 123.596 180.718 124.747Z" fill="white"/>
<path d="M165.059 177.716H136.335C135.71 177.716 135.203 177.21 135.203 176.585V176.131C135.203 175.506 135.71 174.999 136.335 174.999H165.059C165.684 174.999 166.19 175.506 166.19 176.131V176.585C166.19 177.21 165.684 177.716 165.059 177.716Z" fill="#64748B"/>
<path d="M180.714 124.746V126.695H126.078V124.746C126.078 123.595 127.015 122.658 128.163 122.658H178.626C179.777 122.658 180.714 123.595 180.714 124.746Z" fill="#F3F3F5"/>
<path d="M180.714 158.688V160.503C180.714 161.654 179.777 162.591 178.626 162.591H128.163C127.015 162.591 126.078 161.654 126.078 160.503V158.688H180.714Z" fill="#F3F3F5"/>
<path d="M153.447 161.406C153.926 160.927 153.926 160.15 153.447 159.67C152.968 159.191 152.191 159.191 151.711 159.67C151.232 160.15 151.232 160.927 151.711 161.406C152.191 161.885 152.968 161.885 153.447 161.406Z" fill="#2D1713"/>
<path d="M133.465 165.908L121.322 162.429L118.457 172.429L130.6 175.908L133.465 165.908Z" fill="#617C5B"/>
<path d="M127.799 166.056L125.828 164.924L127.946 160.997L129.917 162.129L127.799 166.056Z" fill="white"/>
<path d="M121.898 166.958L121.76 167.443L130.759 170.011L130.897 169.526L121.898 166.958Z" fill="white"/>
<path d="M121.174 168.858L121.035 169.343L130.034 171.911L130.173 171.426L121.174 168.858Z" fill="white"/>
<path d="M185.594 129.657L174.412 135.534L179.251 144.742L190.433 138.866L185.594 129.657Z" fill="#FF7E32"/>
<path d="M181.994 133.236L179.976 134.282L177.816 130.379L179.834 129.332L181.994 133.236Z" fill="#DEDEDE"/>
<path d="M186.246 134.065L177.969 138.432L178.204 138.877L186.481 134.511L186.246 134.065Z" fill="white"/>
<path d="M187.035 135.935L178.758 140.302L178.993 140.748L187.27 136.381L187.035 135.935Z" fill="white"/>
<path d="M170.198 77.4081L167.419 83.6859C167.078 84.4558 166.235 84.8819 165.413 84.6999L164.119 84.4133L164.462 83.3049L165.663 83.5709C165.948 83.634 166.242 83.4858 166.362 83.2179L169.14 76.9398C169.299 76.5855 169.091 76.1724 168.71 76.088L166.831 75.6719L167.174 74.5635L168.96 74.9589C170.052 75.2008 170.651 76.3853 170.198 77.4081Z" fill="#475CB7"/>
<path d="M149.595 84.4178L149.049 86.8818L159.472 89.1912L160.018 86.7272L149.595 84.4178Z" fill="#475CB7"/>
<path d="M168.177 70.2232L163.589 86.0909C163.156 87.4884 161.723 88.3201 160.294 88.0037L148.795 85.4565C147.366 85.14 146.419 83.7812 146.616 82.3311L148.834 65.9385L168.177 70.2232Z" fill="#6885BE"/>
<path d="M157.987 79.4796C157.858 79.4259 157.798 79.2783 157.852 79.1499C158.278 78.1288 158.433 77.0088 158.299 75.9114C158.233 75.3635 158.131 74.8177 158.033 74.2897C157.743 72.7318 157.444 71.1204 158.07 69.4259C158.305 68.7899 158.588 68.3438 158.961 68.0225C160.065 67.0682 162.181 67.2898 162.676 68.7852C162.72 68.9173 162.648 69.0597 162.517 69.1035C162.385 69.1461 162.242 69.0754 162.198 68.9436C161.825 67.8174 160.142 67.6679 159.289 68.4038C158.984 68.6675 158.747 69.0477 158.542 69.6005C157.279 73.0215 159.911 75.5256 158.316 79.3441C158.262 79.4743 158.112 79.5325 157.987 79.4796Z" fill="#2E1212"/>
<path d="M160.708 77.5733L161.297 81.0787C161.365 81.4818 161.069 81.855 160.661 81.881L156.329 82.1574C155.921 82.1834 155.58 81.8508 155.596 81.4424L155.735 77.8905C155.749 77.5374 156.027 77.2519 156.38 77.2294L159.984 76.9995C160.337 76.977 160.649 77.2248 160.708 77.5733Z" fill="#F4BD46"/>
<path d="M170.871 80.5549C169.82 78.8302 168.737 77.3875 168.014 75.8928C167.774 75.3963 167.435 74.8918 167 74.5533C166.11 73.8615 165.295 74.8067 165.313 75.7855C165.356 78.1324 166.855 79.7689 166.944 83.1592C166.968 84.0468 166.573 84.8095 166.718 85.6855C166.869 86.5981 167.415 87.4384 168.187 87.9471" fill="#F2AB83"/>
<path d="M169.318 89.2536C167.74 89.0838 166.452 87.6002 166.504 86.0139C166.517 85.6235 166.601 85.2421 166.708 84.7143C166.987 83.2152 166.673 81.1245 165.992 79.9548C165.921 79.8345 165.962 79.6802 166.082 79.6101C166.201 79.5405 166.356 79.5804 166.427 79.7009C167.247 81.1083 167.465 83.4022 167.203 84.8069C167.128 85.2101 167.021 85.6235 167.008 86.0304C166.964 87.3404 168.069 88.6124 169.372 88.7527C169.51 88.7675 169.61 88.8917 169.596 89.0303C169.581 89.1669 169.459 89.2685 169.318 89.2536Z" fill="#B75958"/>
<path d="M156.173 56.9273C156.245 56.2126 156.406 55.4927 156.775 54.8766C157.421 53.7992 158.5 53.4668 159.02 53.6516C159.415 53.7917 159.623 54.2276 159.698 54.6396C160.121 56.9998 157.598 59.9596 158.139 63.2384C156.758 61.2629 155.922 59.4542 156.173 56.9273Z" fill="#F2AF8F"/>
<path d="M124.038 73.7767C124.213 72.8796 124.878 72.0642 125.882 72.3283C128.369 72.9828 127.373 76.9164 126.607 78.4624C126.045 79.5949 125.363 81.1148 124.61 82.13C125.05 79.607 123.616 75.9393 124.038 73.7767Z" fill="#F2AF8F"/>
<path d="M165.667 154.702H139.556C137.748 154.702 136.283 153.237 136.283 151.43C136.283 149.622 137.748 148.157 139.556 148.157H165.667C167.474 148.157 168.94 149.622 168.94 151.43C168.94 153.237 167.474 154.702 165.667 154.702Z" fill="#004099"/>
<path d="M142.475 153.431V149.286C142.475 149.119 142.727 149.119 142.727 149.286V153.431C142.727 153.597 142.475 153.597 142.475 153.431Z" fill="white"/>
<path d="M144.672 151.489L140.527 151.482C140.361 151.482 140.36 151.23 140.527 151.23C140.592 151.231 144.723 151.237 144.672 151.237C144.839 151.237 144.839 151.489 144.672 151.489Z" fill="white"/>
<path d="M141.039 152.725L143.994 149.818C144.113 149.701 144.289 149.881 144.171 149.998L141.216 152.905C141.097 153.022 140.921 152.842 141.039 152.725Z" fill="white"/>
<path d="M143.994 152.9L141.038 149.995C140.918 149.878 141.096 149.699 141.214 149.816L144.17 152.721C144.22 152.769 144.221 152.849 144.172 152.899C144.122 152.949 144.042 152.948 143.994 152.9Z" fill="white"/>
<path d="M149.154 153.437V149.292C149.154 149.222 149.211 149.166 149.28 149.166C149.35 149.166 149.406 149.222 149.406 149.292V153.437C149.406 153.604 149.154 153.603 149.154 153.437Z" fill="white"/>
<path d="M151.352 151.493L147.207 151.486C147.041 151.486 147.04 151.234 147.207 151.234C147.272 151.234 151.402 151.241 151.352 151.241C151.518 151.241 151.519 151.493 151.352 151.493Z" fill="white"/>
<path d="M147.711 152.728L150.666 149.821C150.785 149.704 150.961 149.884 150.843 150.001L147.888 152.908C147.769 153.024 147.593 152.845 147.711 152.728Z" fill="white"/>
<path d="M150.667 152.904L147.71 149.999C147.59 149.881 147.768 149.702 147.886 149.819L150.843 152.724C150.892 152.773 150.893 152.852 150.845 152.902C150.794 152.953 150.715 152.951 150.667 152.904Z" fill="white"/>
<path d="M155.82 153.437V149.292C155.82 149.222 155.877 149.166 155.946 149.166C156.016 149.166 156.072 149.222 156.072 149.292V153.437C156.072 153.604 155.82 153.603 155.82 153.437Z" fill="white"/>
<path d="M158.016 151.493L153.871 151.486C153.705 151.486 153.704 151.234 153.871 151.234C153.936 151.234 158.066 151.241 158.016 151.241C158.182 151.241 158.183 151.493 158.016 151.493Z" fill="white"/>
<path d="M154.377 152.728L157.332 149.821C157.451 149.704 157.627 149.884 157.509 150.001L154.554 152.908C154.435 153.024 154.259 152.845 154.377 152.728Z" fill="white"/>
<path d="M157.333 152.905L154.376 150C154.326 149.952 154.325 149.872 154.374 149.822C154.423 149.772 154.503 149.772 154.552 149.821L157.509 152.726C157.559 152.774 157.56 152.854 157.511 152.904C157.462 152.953 157.382 152.954 157.333 152.905Z" fill="white"/>
<path d="M162.484 153.437V149.292C162.484 149.222 162.541 149.166 162.61 149.166C162.68 149.166 162.736 149.222 162.736 149.292V153.437C162.736 153.604 162.484 153.603 162.484 153.437Z" fill="white"/>
<path d="M164.68 151.493L160.535 151.486C160.369 151.486 160.368 151.234 160.535 151.234C160.6 151.234 164.73 151.241 164.68 151.241C164.846 151.241 164.847 151.493 164.68 151.493Z" fill="white"/>
<path d="M161.041 152.726L163.996 149.819C164.045 149.77 164.125 149.77 164.174 149.82C164.223 149.87 164.222 149.95 164.173 149.999L161.218 152.906C161.099 153.022 160.923 152.843 161.041 152.726Z" fill="white"/>
<path d="M163.997 152.905L161.04 150C160.99 149.952 160.989 149.872 161.038 149.822C161.087 149.772 161.167 149.772 161.216 149.821L164.173 152.726C164.293 152.843 164.114 153.022 163.997 152.905Z" fill="white"/>
<path d="M166.818 141.099C166.818 141.994 166.093 142.719 165.198 142.719H139.681C138.786 142.719 138.061 141.994 138.061 141.099C138.061 140.204 138.786 139.479 139.681 139.479H165.198C166.093 139.479 166.818 140.204 166.818 141.099Z" fill="#F3F3F5"/>
<path d="M166.818 134.202C166.818 135.097 166.093 135.822 165.198 135.822H139.681C138.786 135.822 138.061 135.097 138.061 134.202C138.061 133.307 138.786 132.582 139.681 132.582H165.198C166.093 132.582 166.818 133.307 166.818 134.202Z" fill="#F3F3F5"/>
</svg>
