<svg width="32" height="33" viewBox="0 0 32 33" fill="none" xmlns="http://www.w3.org/2000/svg">
<circle cx="16" cy="16.3594" r="15.5" fill="#004099" stroke="white"/>
<g clip-path="url(#clip0_2253_8339)">
<path d="M22.0772 12.1839H20.4076L19.4859 10.7925C19.1381 10.2708 18.5294 9.95776 17.9033 9.95776H14.0772C13.4511 9.95776 12.8424 10.2708 12.4946 10.7925L11.5728 12.1839H9.90328C8.84241 12.1839 7.99023 13.036 7.99023 14.0969V20.8447C7.99023 21.9056 8.84241 22.7578 9.90328 22.7578H22.0772C23.1381 22.7578 23.9902 21.9056 23.9902 20.8447V14.0969C23.9902 13.036 23.1381 12.1839 22.0772 12.1839ZM15.9902 21.1925C13.6076 21.1925 11.6772 19.2621 11.6772 16.8795C11.6772 14.4969 13.6076 12.5839 15.9902 12.5839C18.3728 12.5839 20.3033 14.5143 20.3033 16.8969C20.3033 19.2621 18.3728 21.1925 15.9902 21.1925ZM21.8337 14.8795C21.8163 14.8795 21.7989 14.8795 21.7641 14.8795H21.0685C20.7555 14.8621 20.512 14.6012 20.5294 14.2882C20.5468 13.9925 20.7728 13.7665 21.0685 13.7491H21.7641C22.0772 13.7317 22.3381 13.9752 22.3555 14.2882C22.3728 14.6012 22.1468 14.8621 21.8337 14.8795Z" fill="white"/>
<path d="M16.0016 14.4968C14.6798 14.4968 13.6016 15.5751 13.6016 16.8968C13.6016 18.2186 14.6798 19.2794 16.0016 19.2794C17.3233 19.2794 18.4016 18.2012 18.4016 16.8794C18.4016 15.5577 17.3233 14.4968 16.0016 14.4968Z" fill="white"/>
</g>
<defs>
<clipPath id="clip0_2253_8339">
<rect width="16" height="16" fill="white" transform="translate(8 8.35938)"/>
</clipPath>
</defs>
</svg>
