<svg width="49" height="48" viewBox="0 0 49 48" fill="none" xmlns="http://www.w3.org/2000/svg">
<rect x="0.5" width="48" height="48" rx="4" fill="#1E293B"/>
<g clip-path="url(#clip0_2253_1539)">
<path d="M33.0358 24.8096H31.1797C31.3689 25.3275 31.4722 25.8865 31.4722 26.4691V33.484C31.4722 33.7269 31.43 33.9601 31.353 34.1769H34.4215C35.5678 34.1769 36.5002 33.2444 36.5002 32.0982V28.2741C36.5003 26.3638 34.9461 24.8096 33.0358 24.8096Z" fill="white"/>
<path d="M17.5281 26.4691C17.5281 25.8865 17.6314 25.3275 17.8206 24.8096H15.9645C14.0542 24.8096 12.5 26.3638 12.5 28.2741V32.0982C12.5 33.2444 13.4325 34.1769 14.5787 34.1769H17.6473C17.5703 33.96 17.5281 33.7269 17.5281 33.484V26.4691Z" fill="white"/>
<path d="M26.6238 23.0049H22.3806C20.4702 23.0049 18.916 24.5591 18.916 26.4694V33.4843C18.916 33.8669 19.2262 34.1772 19.6089 34.1772H29.3954C29.7781 34.1772 30.0883 33.867 30.0883 33.4843V26.4694C30.0883 24.5591 28.5341 23.0049 26.6238 23.0049Z" fill="white"/>
<path d="M24.5005 13.8174C22.2031 13.8174 20.334 15.6865 20.334 17.984C20.334 19.5423 21.1941 20.9033 22.4643 21.6179C23.0668 21.9568 23.7614 22.1505 24.5005 22.1505C25.2397 22.1505 25.9342 21.9568 26.5367 21.6179C27.807 20.9033 28.6671 19.5423 28.6671 17.984C28.6671 15.6865 26.798 13.8174 24.5005 13.8174Z" fill="white"/>
<path d="M17.1854 17.7061C15.4672 17.7061 14.0693 19.1039 14.0693 20.8221C14.0693 22.5403 15.4672 23.9381 17.1854 23.9381C17.6212 23.9381 18.0362 23.8478 18.4133 23.6855C19.0651 23.4049 19.6026 22.9081 19.9351 22.2858C20.1686 21.8491 20.3014 21.3509 20.3014 20.8221C20.3014 19.1039 18.9036 17.7061 17.1854 17.7061Z" fill="white"/>
<path d="M31.8172 17.7061C30.099 17.7061 28.7012 19.1039 28.7012 20.8221C28.7012 21.3509 28.834 21.8492 29.0674 22.2858C29.4 22.9082 29.9375 23.4049 30.5893 23.6855C30.9663 23.8478 31.3813 23.9381 31.8172 23.9381C33.5354 23.9381 34.9332 22.5403 34.9332 20.8221C34.9332 19.1039 33.5354 17.7061 31.8172 17.7061Z" fill="white"/>
</g>
<defs>
<clipPath id="clip0_2253_1539">
<rect width="24" height="24" fill="white" transform="translate(12.5 12)"/>
</clipPath>
</defs>
</svg>
