<svg width="24" height="24" viewBox="0 0 24 24" fill="none" xmlns="http://www.w3.org/2000/svg">
<circle cx="12" cy="12" r="12" fill="#F8FAFC"/>
<path fill-rule="evenodd" clip-rule="evenodd" d="M9.47023 6.82835C9.52355 6.90962 9.46336 7.04819 9.34299 7.32531C9.29666 7.43198 9.25462 7.54094 9.21711 7.65198C9.1726 7.78369 9.15034 7.84955 9.1033 7.8833C9.05626 7.91706 8.99095 7.91706 8.86033 7.91706H7.3057C6.98186 7.91706 6.71934 8.17898 6.71934 8.50206C6.71934 8.82515 6.98186 9.08706 7.3057 9.08706H14.3834C14.8825 9.07946 15.9746 9.08271 16.3507 9.15653C16.8947 9.22951 17.3752 9.38861 17.7599 9.77243C18.1446 10.1563 18.3041 10.6356 18.3772 11.1784C18.4469 11.6954 18.4469 12.3486 18.4469 13.1408V14.3933C18.4469 15.1855 18.4469 15.8387 18.3772 16.3557C18.3041 16.8985 18.1446 17.3779 17.7599 17.7617C17.3752 18.1455 16.8947 18.3046 16.3507 18.3776C15.8324 18.4471 15.1777 18.4471 14.3837 18.447H10.7813C9.71205 18.4471 8.85023 18.4471 8.17242 18.3562C7.46869 18.2617 6.87618 18.0598 6.40558 17.5903C5.935 17.1208 5.73259 16.5297 5.63797 15.8276C5.54685 15.1514 5.54686 14.2916 5.54688 13.2248V8.50207C5.54688 7.53281 6.33445 6.74708 7.30597 6.74708L8.99462 6.74707C9.27616 6.74707 9.41692 6.74706 9.47023 6.82835ZM15.2969 12.5969C15.9596 12.5969 16.4969 13.1342 16.4969 13.7969C16.4969 14.4596 15.9596 14.9969 15.2969 14.9969C14.6341 14.9969 14.0969 14.4596 14.0969 13.7969C14.0969 13.1342 14.6341 12.5969 15.2969 12.5969Z" fill="#F97316"/>
<path d="M16.4695 8.41578C16.5339 8.42465 16.5894 8.36901 16.5764 8.30533C16.2562 6.73135 14.8643 5.54688 13.1957 5.54688C11.5919 5.54688 10.2437 6.64127 9.85711 8.12403C9.82857 8.23351 9.91387 8.33691 10.027 8.33691H14.3768C14.6342 8.33307 15.0388 8.33203 15.43 8.34133C15.7879 8.34984 16.2056 8.36786 16.4695 8.41578Z" fill="#F97316"/>
</svg>
