<svg width="49" height="48" viewBox="0 0 49 48" fill="none" xmlns="http://www.w3.org/2000/svg">
<rect x="0.5" width="48" height="48" rx="4" fill="#1E293B"/>
<g clip-path="url(#clip0_2253_1565)">
<path d="M32.0868 14.5516C31.7169 14.1808 31.2248 13.9766 30.7013 13.9766H29.8323V14.8479C29.8323 15.8089 29.0514 16.5907 28.0915 16.5907H20.2579C19.298 16.5907 18.517 15.8089 18.517 14.8479V13.9766H17.6452C16.5665 13.9766 15.688 14.8551 15.6868 15.935L15.668 33.0138C15.6674 33.5379 15.8708 34.0307 16.2408 34.4015C16.6108 34.7724 17.1029 34.9766 17.6264 34.9766H30.6824C31.7611 34.9766 32.6396 34.098 32.6408 33.0182L32.6597 15.9393C32.6603 15.4152 32.4568 14.9224 32.0868 14.5516ZM24.3858 20.5118H29.0238C29.3843 20.5118 29.6765 20.8044 29.6765 21.1654C29.6765 21.5263 29.3843 21.8189 29.0238 21.8189H24.3858C24.0252 21.8189 23.733 21.5263 23.733 21.1654C23.733 20.8044 24.0252 20.5118 24.3858 20.5118ZM24.3858 24.8687H29.0238C29.3843 24.8687 29.6765 25.1613 29.6765 25.5222C29.6765 25.8831 29.3843 26.1757 29.0238 26.1757H24.3858C24.0252 26.1757 23.733 25.8831 23.733 25.5222C23.733 25.1613 24.0252 24.8687 24.3858 24.8687ZM24.3858 29.2255H29.0424C29.4029 29.2255 29.6952 29.5181 29.6952 29.8791C29.6952 30.24 29.4029 30.5326 29.0424 30.5326H24.3858C24.0252 30.5326 23.733 30.24 23.733 29.8791C23.733 29.5181 24.0252 29.2255 24.3858 29.2255ZM18.8237 20.5376C19.0786 20.2824 19.4919 20.2824 19.7469 20.5376L20.1018 20.893L21.6073 19.3859C21.8623 19.1307 22.2756 19.1306 22.5305 19.3859C22.7854 19.6411 22.7854 20.0549 22.5305 20.3101L20.5634 22.2793C20.441 22.4019 20.2749 22.4708 20.1018 22.4708C19.9287 22.4708 19.7626 22.4019 19.6402 22.2793L18.8236 21.4618C18.5687 21.2066 18.5687 20.7928 18.8237 20.5376ZM18.8237 25.2272C19.0786 24.972 19.4919 24.972 19.7469 25.2272L20.1018 25.5825L21.6073 24.0754C21.8622 23.8202 22.2756 23.8202 22.5305 24.0754C22.7854 24.3306 22.7854 24.7444 22.5305 24.9996L20.5634 26.9689C20.441 27.0915 20.2749 27.1603 20.1018 27.1603C19.9287 27.1603 19.7626 27.0915 19.6402 26.9689L18.8236 26.1514C18.5687 25.8962 18.5687 25.4824 18.8237 25.2272ZM18.8237 29.5841C19.0786 29.3288 19.4919 29.3288 19.7469 29.5841L20.1018 29.9394L21.6073 28.4323C21.8622 28.1771 22.2756 28.1771 22.5305 28.4323C22.7854 28.6875 22.7854 29.1013 22.5305 29.3565L20.5634 31.3257C20.441 31.4483 20.2749 31.5172 20.1018 31.5172C19.9287 31.5172 19.7626 31.4483 19.6402 31.3257L18.8236 30.5082C18.5687 30.253 18.5687 29.8393 18.8237 29.5841Z" fill="white"/>
<path d="M19.4922 14.8203C19.4922 15.0792 19.7018 15.2891 19.9604 15.2891H28.3885C28.6472 15.2891 28.8568 15.0792 28.8568 14.8203V12.9453C28.8568 12.6864 28.6472 12.4766 28.3885 12.4766H19.9604C19.7018 12.4766 19.4922 12.6864 19.4922 12.9453V14.8203Z" fill="white"/>
</g>
<defs>
<clipPath id="clip0_2253_1565">
<rect width="24" height="24" fill="white" transform="translate(12.1641 12.4766)"/>
</clipPath>
</defs>
</svg>
