<svg width="69" height="68" viewBox="0 0 69 68" fill="none" xmlns="http://www.w3.org/2000/svg">
<rect x="0.459961" y="0.241699" width="67.7093" height="67.7093" rx="11.2849" fill="#F1F5F9"/>
<path d="M47.2789 44.7752C48.4201 43.1897 48.6147 41.1105 47.7895 39.3402C47.2154 38.1101 46.5256 36.629 45.857 35.1972C45.163 33.709 43.9075 32.5579 42.3657 31.9965C40.8225 31.4351 39.1199 31.5099 37.6331 32.2039C36.8108 32.5862 36.2352 32.8556 36.2352 32.8556C35.5257 33.015 34.9121 32.8993 34.6046 32.2406C34.0587 31.0669 33.1897 29.2063 32.5169 27.7619C32.2559 27.2033 31.7848 26.7716 31.2064 26.5614C30.6281 26.3513 29.9905 26.3781 29.4319 26.639C28.8747 26.8986 28.443 27.3697 28.2328 27.9481C28.0212 28.5264 28.0495 29.1654 28.3104 29.7226C29.9834 33.3126 33.2137 40.2387 33.2137 40.2387C33.2137 40.2387 31.4222 39.4981 29.8254 38.8394C29.1892 38.577 28.4741 38.5855 27.8435 38.862C27.2144 39.1399 26.7249 39.6632 26.4893 40.3092C26.4893 40.3107 26.4879 40.3121 26.4879 40.3135C26.021 41.5957 26.6727 43.0148 27.9493 43.4958C30.1301 44.3182 33.0712 45.4255 33.0712 45.4255C35.4269 46.2832 36.0406 46.5724 36.9278 48.258C37.3031 48.8364 38.0479 49.0508 38.6742 48.7588C41.3162 47.557 47.2789 44.7752 47.2789 44.7752Z" fill="#004099"/>
<path fill-rule="evenodd" clip-rule="evenodd" d="M28.9611 23.713C29.208 24.2434 28.9795 24.8725 28.4505 25.1194C27.9215 25.3662 27.291 25.1377 27.0441 24.6073L25.8211 21.9836C25.5743 21.4546 25.8028 20.8241 26.3318 20.5772C26.8607 20.3304 27.4913 20.5603 27.7381 21.0893L28.9611 23.713Z" fill="#004099"/>
<path fill-rule="evenodd" clip-rule="evenodd" d="M33.753 23.4324C33.5541 23.9811 32.9461 24.2646 32.3974 24.0657C31.8487 23.8654 31.5651 23.2575 31.7655 22.7087L32.7557 19.9877C32.9546 19.4389 33.5626 19.1568 34.1113 19.3557C34.66 19.556 34.9436 20.1626 34.7433 20.7113L33.753 23.4324Z" fill="#004099"/>
<path fill-rule="evenodd" clip-rule="evenodd" d="M24.4788 26.1019C25.0276 26.3008 25.3111 26.9088 25.1108 27.4575C24.9119 28.0062 24.3039 28.2898 23.7552 28.0894L21.0341 27.0992C20.4854 26.9003 20.2019 26.2923 20.4022 25.7436C20.6011 25.1949 21.209 24.9113 21.7578 25.1116L24.4788 26.1019Z" fill="#004099"/>
<path fill-rule="evenodd" clip-rule="evenodd" d="M24.4518 30.2388C24.9808 29.992 25.6113 30.2219 25.8582 30.7509C26.105 31.2799 25.8751 31.9104 25.3461 32.1573L22.7224 33.3803C22.1934 33.6271 21.5628 33.3986 21.316 32.8696C21.0691 32.3392 21.2991 31.7101 21.828 31.4632L24.4518 30.2388Z" fill="#004099"/>
<path fill-rule="evenodd" clip-rule="evenodd" d="M37.5719 24.1204C38.1009 23.8736 38.7314 24.1021 38.9783 24.6325C39.2251 25.1614 38.9952 25.7906 38.4662 26.0374L35.8425 27.2618C35.3135 27.5087 34.683 27.2788 34.4361 26.7498C34.1892 26.2208 34.4192 25.5903 34.9482 25.3434L37.5719 24.1204Z" fill="#004099"/>
</svg>
