<svg width="24" height="25" viewBox="0 0 24 25" fill="none" xmlns="http://www.w3.org/2000/svg">
<g clip-path="url(#clip0_2253_5874)">
<path d="M14.5781 24.1182H5.625C3.55719 24.1182 1.875 22.436 1.875 20.3682V7.66504C1.875 5.59723 3.55719 3.91504 5.625 3.91504H14.5781C16.6459 3.91504 18.3281 5.59723 18.3281 7.66504V20.3682C18.3281 22.436 16.6459 24.1182 14.5781 24.1182ZM5.625 5.79004C4.59119 5.79004 3.75 6.63123 3.75 7.66504V20.3682C3.75 21.402 4.59119 22.2432 5.625 22.2432H14.5781C15.6119 22.2432 16.4531 21.402 16.4531 20.3682V7.66504C16.4531 6.63123 15.6119 5.79004 14.5781 5.79004H5.625ZM22.0781 18.0244V3.86816C22.0781 1.80035 20.3959 0.118164 18.3281 0.118164H7.92188C7.40405 0.118164 6.98438 0.537842 6.98438 1.05566C6.98438 1.57349 7.40405 1.99316 7.92188 1.99316H18.3281C19.3619 1.99316 20.2031 2.83435 20.2031 3.86816V18.0244C20.2031 18.5422 20.6228 18.9619 21.1406 18.9619C21.6584 18.9619 22.0781 18.5422 22.0781 18.0244Z" fill="#64748B"/>
</g>
<defs>
<clipPath id="clip0_2253_5874">
<rect width="24" height="24" fill="white" transform="translate(0 0.118164)"/>
</clipPath>
</defs>
</svg>
