<svg width="20" height="20" viewBox="0 0 20 20" fill="none" xmlns="http://www.w3.org/2000/svg">
<path d="M15.7363 18.3516H4.26758C2.82617 18.3516 1.65234 17.1797 1.65234 15.7363V4.24805C1.65234 2.81641 2.81641 1.65234 4.24805 1.65234H9.71875V2.82422H4.24805C3.46289 2.82422 2.82422 3.46289 2.82422 4.24805V15.7383C2.82422 16.5332 3.4707 17.1816 4.26758 17.1816H15.7383C16.5332 17.1816 17.1816 16.5352 17.1816 15.7383V10.2852H18.3535V15.7363C18.3516 17.1797 17.1797 18.3516 15.7363 18.3516Z" fill="#64748B"/>
<path d="M18.3418 6.54492H17.1699V2.83398H13.459V1.66211H18.3418V6.54492Z" fill="#64748B"/>
<path d="M17.3516 1.82227L18.1801 2.65078L10.4335 10.3974L9.60494 9.56889L17.3516 1.82227Z" fill="#64748B"/>
</svg>
