<svg width="24" height="24" viewBox="0 0 24 24" fill="none" xmlns="http://www.w3.org/2000/svg">
<circle cx="12" cy="12" r="12" fill="#F8FAFC"/>
<path fill-rule="evenodd" clip-rule="evenodd" d="M16.1632 8.19904C16.1517 8.05696 16.1323 7.92751 16.0996 7.80569C15.8827 6.99818 15.2506 6.36745 14.4412 6.15107C14.1411 6.07087 13.7948 6.07106 13.3284 6.07132L7.38409 6.07134C6.41257 6.07134 5.625 6.85708 5.625 7.82633V12.5491C5.62499 13.1956 5.62498 13.7662 5.64527 14.2658C5.65189 14.4291 5.6552 14.5107 5.69551 14.558C5.70454 14.5687 5.71051 14.5744 5.72148 14.583C5.77039 14.6213 5.87192 14.6213 6.075 14.6213C6.16429 14.6222 6.39098 14.6339 6.60796 14.7029C6.7248 14.7374 6.84812 14.7844 6.97549 14.8466C7.02653 14.8716 7.05207 14.8841 7.07133 14.8887C7.12802 14.9023 7.17698 14.8918 7.22317 14.8563C7.23887 14.8442 7.25521 14.8246 7.28788 14.7854C7.66165 14.3374 8.11364 13.8434 8.60877 13.4092C9.08848 12.9885 9.69243 12.5489 10.3742 12.3074C11.1551 12.0308 12.0124 12.4397 12.289 13.2206C12.5655 14.0014 12.1567 14.8587 11.3758 15.1352C11.2108 15.1937 10.9412 15.3539 10.5868 15.6647C10.2481 15.9617 9.90601 16.3303 9.59153 16.7072C9.45148 16.8751 9.32332 17.0458 9.20751 17.2072C9.03986 17.4409 8.95604 17.5577 9.00448 17.6548C9.05292 17.7519 9.19613 17.7552 9.48255 17.7617C9.89693 17.7713 10.355 17.7713 10.8591 17.7713H14.4618C15.2558 17.7713 15.9106 17.7713 16.4288 17.7018C16.9729 17.6288 17.4533 17.4697 17.8381 17.0859C18.2228 16.7021 18.3822 16.2227 18.4553 15.68C18.5251 15.163 18.525 14.5097 18.525 13.7176V12.4651C18.525 11.6729 18.5251 11.0197 18.4553 10.5027C18.3822 9.95988 18.2228 9.48052 17.8381 9.0967C17.4533 8.71288 16.9729 8.55377 16.4288 8.4808C16.337 8.46849 16.2911 8.46234 16.2599 8.44401C16.2284 8.42554 16.2079 8.40391 16.1911 8.37149C16.1745 8.33932 16.1707 8.29256 16.1632 8.19904ZM13.2475 7.24133C13.8305 7.24133 14.007 7.24636 14.1373 7.2812C14.542 7.38938 14.8582 7.70475 14.9666 8.10851C14.9896 8.19401 15.001 8.23676 14.9842 8.28785C14.973 8.32177 14.9417 8.36248 14.9119 8.38205C14.8669 8.41154 14.8094 8.41148 14.6945 8.41139L14.4616 8.41132H7.38383C7.05998 8.41132 6.79746 8.14941 6.79746 7.82633C6.79746 7.50324 7.05998 7.24133 7.38383 7.24133H13.2475ZM15.375 11.9213C16.0378 11.9213 16.575 12.4586 16.575 13.1213C16.575 13.7841 16.0378 14.3213 15.375 14.3213C14.7122 14.3213 14.175 13.7841 14.175 13.1213C14.175 12.4586 14.7122 11.9213 15.375 11.9213Z" fill="#3B82F6"/>
<path d="M11.4402 13.5219C11.5508 13.8343 11.3872 14.1772 11.0749 14.2878C10.7547 14.4012 10.3849 14.6454 9.99301 14.989C9.60739 15.3271 9.23231 15.7333 8.90005 16.1316C8.56894 16.5285 8.28769 16.9087 8.08906 17.1901C7.98995 17.3305 7.91195 17.4456 7.85917 17.5248L7.78105 17.644C7.66508 17.8264 7.45984 17.9325 7.24393 17.9215C7.02797 17.9104 6.83466 17.784 6.73795 17.5906C6.47354 17.0617 6.23635 16.8512 6.11679 16.7715C6.0662 16.7377 6.03202 16.7242 6.01844 16.7196C5.7134 16.6913 5.47461 16.4347 5.47461 16.1223C5.47461 15.7909 5.74324 15.5223 6.07461 15.5223C6.12405 15.5227 6.24685 15.5317 6.34257 15.5641C6.46729 15.5997 6.61779 15.6633 6.78243 15.773C6.947 15.8827 7.11959 16.0344 7.29284 16.2419C7.48195 15.9834 7.71501 15.6789 7.97858 15.3629C8.33456 14.9362 8.75359 14.4798 9.20179 14.0868C9.64378 13.6992 10.1474 13.3432 10.6743 13.1566C10.9867 13.0461 11.3295 13.2096 11.4402 13.5219Z" fill="#3B82F6"/>
</svg>
