<svg width="69" height="68" viewBox="0 0 69 68" fill="none" xmlns="http://www.w3.org/2000/svg">
<rect x="0.59668" y="0.241699" width="67.7093" height="67.7093" rx="11.2849" fill="#F1F5F9"/>
<path d="M35.5306 43.0392C35.5306 42.5429 35.5773 42.0574 35.6657 41.5863H24.0633C23.5764 41.5863 23.1816 41.1916 23.1816 40.7047C23.1816 40.2178 23.5764 39.8231 24.0633 39.8231H36.2187C36.56 39.0644 37.0181 38.3692 37.5701 37.7606C37.4802 37.7915 37.3842 37.809 37.2839 37.809H24.0633C22.8994 37.7679 22.8913 36.0903 24.0633 36.0457H37.2838C37.8776 36.0344 38.3202 36.6579 38.117 37.2137C39.1722 36.2567 40.4875 35.582 41.9428 35.309V25.5955C41.9428 24.03 40.6677 22.8252 39.1724 22.8252H36.7032C36.5866 24.8585 34.8961 26.4771 32.8342 26.4771H28.5129C26.451 26.4771 24.7605 24.8585 24.6439 22.8252H22.1746C20.6793 22.8252 19.4043 24.0302 19.4043 25.5955V46.3707C19.4043 47.9327 20.6768 49.1409 22.1746 49.1409H38.439C36.6656 47.6976 35.5306 45.4986 35.5306 43.0392ZM24.0633 28.4912H37.2839C37.7708 28.4912 38.1655 28.8859 38.1655 29.3728C38.1655 29.8597 37.7708 30.2544 37.2839 30.2544H24.0633C22.8988 30.213 22.8919 28.5355 24.0633 28.4912ZM24.0633 32.2685H37.2839C37.7708 32.2685 38.1655 32.6632 38.1655 33.1501C38.1655 33.637 37.7708 34.0317 37.2839 34.0317H24.0633C22.8988 33.9903 22.8919 32.3128 24.0633 32.2685ZM28.7849 45.3637H24.0633C22.8963 45.3211 22.8942 43.6439 24.0633 43.6004H28.7849C29.2718 43.6004 29.6665 43.9951 29.6665 44.482C29.6665 44.9689 29.2718 45.3637 28.7849 45.3637Z" fill="#004099"/>
<path d="M28.5134 24.7116H32.8346C35.7352 24.5817 35.5814 20.4146 32.6771 20.4861C32.0281 18.577 29.3191 18.5782 28.6708 20.4861C25.7782 20.4093 25.6026 24.5744 28.5134 24.7116Z" fill="#004099"/>
<path d="M43.3957 36.936C40.0312 36.936 37.2939 39.6733 37.2939 43.0378C37.6007 51.1215 49.1919 51.1193 49.4975 43.0377C49.4975 39.6733 46.7603 36.936 43.3957 36.936ZM45.8497 42.4407L43.4091 44.8812C43.0649 45.2256 42.5067 45.2256 42.1624 44.8814L40.9419 43.6613C40.1465 42.8055 41.3315 41.6187 42.1885 42.4143L42.7856 43.0111L44.603 41.1939C45.4593 40.3983 46.6452 41.5844 45.8497 42.4407Z" fill="#004099"/>
</svg>
