<svg width="24" height="25" viewBox="0 0 24 25" fill="none" xmlns="http://www.w3.org/2000/svg">
<circle cx="12" cy="12.9219" r="12" fill="#F1F5F9"/>
<g clip-path="url(#clip0_2253_3123)">
<path d="M16.3694 13.3279H15.4414C15.536 13.5869 15.5877 13.8664 15.5877 14.1577V17.6651C15.5877 17.7865 15.5665 17.9031 15.5281 18.0115H17.0623C17.6354 18.0115 18.1017 17.5453 18.1017 16.9722V15.0601C18.1017 14.105 17.3246 13.3279 16.3694 13.3279Z" fill="#64748B"/>
<path d="M8.61559 14.1577C8.61559 13.8663 8.66727 13.5869 8.76186 13.3279H7.83383C6.87866 13.3279 6.10156 14.105 6.10156 15.0601V16.9722C6.10156 17.5453 6.56781 18.0116 7.14092 18.0116H8.67519C8.63673 17.9031 8.61559 17.7865 8.61559 17.6651V14.1577Z" fill="#64748B"/>
<path d="M13.1605 12.4253H11.0389C10.0837 12.4253 9.30664 13.2024 9.30664 14.1576V17.665C9.30664 17.8563 9.46175 18.0114 9.65309 18.0114H14.5463C14.7377 18.0114 14.8928 17.8563 14.8928 17.665V14.1576C14.8928 13.2024 14.1157 12.4253 13.1605 12.4253Z" fill="#64748B"/>
<path d="M12.1028 7.83228C10.9541 7.83228 10.0195 8.76682 10.0195 9.91557C10.0195 10.6947 10.4496 11.3753 11.0847 11.7325C11.3859 11.902 11.7332 11.9988 12.1028 11.9988C12.4724 11.9988 12.8197 11.902 13.1209 11.7325C13.756 11.3753 14.1861 10.6947 14.1861 9.91557C14.1861 8.76685 13.2515 7.83228 12.1028 7.83228Z" fill="#64748B"/>
<path d="M8.44473 9.77393C7.58563 9.77393 6.88672 10.4728 6.88672 11.3319C6.88672 12.191 7.58563 12.8899 8.44473 12.8899C8.66265 12.8899 8.87017 12.8448 9.05868 12.7637C9.3846 12.6233 9.65333 12.375 9.81962 12.0638C9.93634 11.8455 10.0027 11.5963 10.0027 11.3319C10.0027 10.4729 9.30383 9.77393 8.44473 9.77393Z" fill="#64748B"/>
<path d="M15.7611 9.77417C14.902 9.77417 14.2031 10.4731 14.2031 11.3322C14.2031 11.5966 14.2695 11.8457 14.3862 12.0641C14.5525 12.3752 14.8213 12.6236 15.1472 12.7639C15.3357 12.8451 15.5432 12.8902 15.7611 12.8902C16.6202 12.8902 17.3191 12.1913 17.3191 11.3322C17.3191 10.4731 16.6202 9.77417 15.7611 9.77417Z" fill="#64748B"/>
</g>
<defs>
<clipPath id="clip0_2253_3123">
<rect width="12" height="12" fill="white" transform="translate(6.10156 6.92188)"/>
</clipPath>
</defs>
</svg>
