<svg width="33" height="33" viewBox="0 0 33 33" fill="none" xmlns="http://www.w3.org/2000/svg">
<g clip-path="url(#clip0_2253_2296)">
<path fill-rule="evenodd" clip-rule="evenodd" d="M24.5609 5.79834C25.9994 5.79834 27.1673 6.96626 27.1673 8.40476V24.5253C27.1673 25.9638 25.9994 27.1317 24.5609 27.1317H20.1247V19.0935H22.8997L23.4277 15.651H20.1247V13.417C20.1247 12.4752 20.5861 11.5571 22.0656 11.5571H23.5673V8.6263C23.5673 8.6263 22.2044 8.39371 20.9014 8.39371C18.1811 8.39371 16.4031 10.0424 16.4031 13.0272V15.651H13.3792V19.0935H16.4031V27.1317H8.4404C7.0019 27.1317 5.83398 25.9638 5.83398 24.5253V8.40476C5.83398 6.96626 7.00186 5.79834 8.4404 5.79834L24.5609 5.79834Z" fill="#1777F2"/>
</g>
<defs>
<clipPath id="clip0_2253_2296">
<rect width="21.3333" height="21.3333" fill="white" transform="translate(5.83398 5.79834)"/>
</clipPath>
</defs>
</svg>
