<svg width="65" height="65" viewBox="0 0 65 65" fill="none" xmlns="http://www.w3.org/2000/svg">
<circle cx="32.7617" cy="32.5078" r="32" fill="#F1F5F9"/>
<path d="M39.1107 29.5183L37.631 30.1161C37.4405 30.1933 37.2402 30.2323 37.0362 30.2323C36.599 30.2323 36.176 30.0478 35.8767 29.7261C35.579 29.4066 35.4252 28.9723 35.456 28.5351L35.5677 26.9436L34.541 25.7226C34.313 25.4511 34.199 25.1188 34.1832 24.7783H24.4535C22.691 24.7783 21.251 26.2183 21.251 27.9883V36.9133C21.251 38.6833 22.691 40.1158 24.4535 40.1158H26.891L26.8385 41.6083C26.8235 42.2158 27.146 42.7708 27.686 43.0558C27.9185 43.1758 28.166 43.2358 28.421 43.2358C28.751 43.2358 29.081 43.1233 29.3585 42.9133L33.0785 40.1158H37.3685C39.131 40.1158 40.571 38.6833 40.571 36.9133V30.1086L39.1107 29.5183ZM31.2837 34.8283H27.347C26.9742 34.8283 26.672 34.5261 26.672 34.1533C26.672 33.7806 26.9742 33.4783 27.347 33.4783H31.2837C31.6565 33.4783 31.9587 33.7806 31.9587 34.1533C31.9587 34.5261 31.6565 34.8283 31.2837 34.8283ZM34.7735 31.4188H27.3485C26.9757 31.4188 26.6735 31.1166 26.6735 30.7438C26.6735 30.3711 26.9757 30.0688 27.3485 30.0688H34.7735C35.1462 30.0688 35.4485 30.3711 35.4485 30.7438C35.4485 31.1166 35.1462 31.4188 34.7735 31.4188Z" fill="#3366AD"/>
<path d="M39.501 22.0212L40.5877 23.7605L42.5775 24.2562C42.9075 24.3387 43.0372 24.7378 42.819 24.9987L41.5005 26.5693L41.6437 28.6145C41.6677 28.9535 41.328 29.201 41.0122 29.0735L39.111 28.3047L37.2097 29.0735C36.8947 29.201 36.5542 28.9542 36.5782 28.6145L36.7215 26.5693L35.403 24.9987C35.184 24.7385 35.3145 24.3387 35.6445 24.2562L37.6342 23.7605L38.721 22.0212C38.9002 21.7325 39.321 21.7325 39.501 22.0212Z" fill="#3366AD"/>
</svg>
