<svg width="25" height="24" viewBox="0 0 25 24" fill="none" xmlns="http://www.w3.org/2000/svg">
<path d="M4.81592 6.82561H12.4212C12.6504 7.86894 13.5821 8.65221 14.6933 8.65221C15.8045 8.65221 16.7362 7.86897 16.9654 6.82561H19.8014C20.0773 6.82561 20.3009 6.60195 20.3009 6.32609C20.3009 6.05023 20.0773 5.82657 19.8014 5.82657H16.9652C16.7355 4.78377 15.8025 4 14.6933 4C13.5835 4 12.651 4.78365 12.4214 5.82657H4.81592C4.54006 5.82657 4.31641 6.05023 4.31641 6.32609C4.31641 6.60195 4.54006 6.82561 4.81592 6.82561ZM13.3663 6.3274C13.3663 6.32562 13.3663 6.32381 13.3663 6.32203C13.3685 5.59252 13.9638 4.99906 14.6933 4.99906C15.4218 4.99906 16.0171 5.59171 16.0203 6.32088L16.0204 6.32821C16.0192 7.05897 15.4244 7.65321 14.6933 7.65321C13.9626 7.65321 13.3679 7.05957 13.3663 6.32924L13.3663 6.3274ZM19.8014 17.1744H16.9652C16.7355 16.1316 15.8025 15.3478 14.6933 15.3478C13.5835 15.3478 12.651 16.1315 12.4214 17.1744H4.81592C4.54006 17.1744 4.31641 17.398 4.31641 17.6739C4.31641 17.9498 4.54006 18.1734 4.81592 18.1734H12.4212C12.6504 19.2167 13.5821 20 14.6933 20C15.8045 20 16.7362 19.2167 16.9654 18.1734H19.8014C20.0773 18.1734 20.3009 17.9498 20.3009 17.6739C20.3009 17.398 20.0773 17.1744 19.8014 17.1744ZM14.6933 19.001C13.9626 19.001 13.3679 18.4073 13.3663 17.677L13.3663 17.6752C13.3663 17.6734 13.3663 17.6716 13.3663 17.6698C13.3685 16.9403 13.9638 16.3468 14.6933 16.3468C15.4218 16.3468 16.0171 16.9395 16.0203 17.6686L16.0204 17.6759C16.0193 18.4068 15.4244 19.001 14.6933 19.001ZM19.8014 11.5005H12.1961C11.9669 10.4572 11.0352 9.67391 9.92401 9.67391C8.81283 9.67391 7.88111 10.4572 7.65189 11.5005H4.81592C4.54006 11.5005 4.31641 11.7241 4.31641 12C4.31641 12.2759 4.54006 12.4995 4.81592 12.4995H7.65214C7.88183 13.5423 8.8148 14.3261 9.92401 14.3261C11.0338 14.3261 11.9664 13.5424 12.1959 12.4995H19.8014C20.0773 12.4995 20.3009 12.2759 20.3009 12C20.3009 11.7241 20.0773 11.5005 19.8014 11.5005ZM11.251 11.9987C11.251 12.0005 11.251 12.0023 11.251 12.0041C11.2488 12.7336 10.6535 13.327 9.92401 13.327C9.19549 13.327 8.60019 12.7344 8.59704 12.0052L8.59695 11.9979C8.59804 11.2671 9.19293 10.6729 9.92401 10.6729C10.6547 10.6729 11.2494 11.2666 11.2511 11.9969L11.251 11.9987Z" fill="#64748B"/>
</svg>
