<svg width="33" height="32" viewBox="0 0 33 32" fill="none" xmlns="http://www.w3.org/2000/svg">
<g clip-path="url(#clip0_2256_1109)">
<path d="M26 26H7C5.6 26 4.5 24.9 4.5 23.5V11.5C4.5 10.1 5.6 9 7 9H26C27.4 9 28.5 10.1 28.5 11.5V23.5C28.5 24.9 27.4 26 26 26ZM7 10C6.2 10 5.5 10.7 5.5 11.5V23.5C5.5 24.3 6.2 25 7 25H26C26.8 25 27.5 24.3 27.5 23.5V11.5C27.5 10.7 26.8 10 26 10H7Z" fill="#94A3B8"/>
<path d="M20 10C19.7 10 19.5 9.8 19.5 9.5V7.5C19.5 7.2 19.3 7 19 7H14C13.7 7 13.5 7.2 13.5 7.5V9.5C13.5 9.8 13.3 10 13 10C12.7 10 12.5 9.8 12.5 9.5V7.5C12.5 6.7 13.2 6 14 6H19C19.8 6 20.5 6.7 20.5 7.5V9.5C20.5 9.8 20.3 10 20 10Z" fill="#94A3B8"/>
<path d="M16.5002 17.9999C16.4002 17.9999 16.4002 17.9999 16.3002 17.9999L4.80023 13.9999C4.60023 13.8999 4.40023 13.5999 4.50023 13.2999C4.60023 13.0999 4.90023 12.8999 5.20023 12.9999L16.5002 16.9999L27.8002 12.9999C28.1002 12.8999 28.3002 12.9999 28.4002 13.2999C28.5002 13.5999 28.4002 13.7999 28.1002 13.8999L16.6002 17.8999C16.6002 17.9999 16.6002 17.9999 16.5002 17.9999Z" fill="#94A3B8"/>
</g>
<defs>
<clipPath id="clip0_2256_1109">
<rect width="24" height="24" fill="white" transform="translate(4.5 4)"/>
</clipPath>
</defs>
</svg>
