<svg width="33" height="32" viewBox="0 0 33 32" fill="none" xmlns="http://www.w3.org/2000/svg">
<g clip-path="url(#clip0_2283_3229)">
<path d="M27.0748 16.1011V12.728C27.0748 11.5842 26.1876 10.654 25.0666 10.5638L21.9341 5.09228C21.6438 4.58624 21.175 4.22456 20.6141 4.07438C20.0559 3.92521 19.4721 4.00355 18.9725 4.29436L8.23385 10.5462H6.34782C5.14455 10.5462 4.16602 11.5247 4.16602 12.728V25.8187C4.16602 27.022 5.14449 28.0005 6.34782 28.0005H24.893C26.0963 28.0005 27.0748 27.022 27.0748 25.8187V22.4455C27.7083 22.2196 28.1657 21.6198 28.1657 20.9097V17.637C28.1657 16.9268 27.7083 16.3271 27.0748 16.1011ZM23.799 10.5462H19.0449L22.6105 8.47029L23.799 10.5462ZM22.0686 7.52362L16.8768 10.5462H14.7234L21.5301 6.58319L22.0686 7.52362ZM19.5216 5.23715C19.7682 5.09279 20.0564 5.05444 20.3318 5.12797C20.6104 5.20253 20.8426 5.38258 20.987 5.63452L20.9881 5.63651L12.5554 10.5462H10.402L19.5216 5.23715ZM25.9839 25.8187C25.9839 26.42 25.4943 26.9096 24.893 26.9096H6.34782C5.74646 26.9096 5.25694 26.42 5.25694 25.8187V12.728C5.25694 12.1266 5.74646 11.6371 6.34782 11.6371H24.893C25.4943 11.6371 25.9839 12.1266 25.9839 12.728V16.0007H22.7112C20.9065 16.0007 19.4385 17.4687 19.4385 19.2733C19.4385 21.078 20.9065 22.546 22.7112 22.546H25.9839V25.8187ZM27.0748 20.9097C27.0748 21.2106 26.8303 21.4551 26.5293 21.4551H22.7112C21.5079 21.4551 20.5294 20.4767 20.5294 19.2733C20.5294 18.0701 21.5079 17.0915 22.7112 17.0915H26.5293C26.8303 17.0915 27.0748 17.336 27.0748 17.637V20.9097Z" fill="#64748B"/>
<path d="M22.711 18.1824C22.1096 18.1824 21.6201 18.6719 21.6201 19.2732C21.6201 19.8746 22.1096 20.3641 22.711 20.3641C23.3123 20.3641 23.8019 19.8746 23.8019 19.2732C23.8019 18.6719 23.3124 18.1824 22.711 18.1824Z" fill="#64748B"/>
</g>
<defs>
<clipPath id="clip0_2283_3229">
<rect width="24" height="24" fill="white" transform="translate(4.16699 4)"/>
</clipPath>
</defs>
</svg>
