<svg width="33" height="33" viewBox="0 0 33 33" fill="none" xmlns="http://www.w3.org/2000/svg">
<path d="M27.1672 16.7208C27.1672 16.0004 27.0961 15.2567 26.9775 14.5596H16.7109V18.6728H22.5911C22.354 19.9974 21.5715 21.1593 20.4097 21.9029L23.9189 24.5754C25.9817 22.693 27.1672 19.9509 27.1672 16.7208Z" fill="#4280EF"/>
<path d="M16.7115 27.1314C19.6515 27.1314 22.1174 26.1787 23.9194 24.552L20.4103 21.9028C19.4381 22.5535 18.1815 22.9253 16.7115 22.9253C13.8662 22.9253 11.4715 21.043 10.5942 18.5332L6.99023 21.2521C8.83964 24.8541 12.5859 27.1314 16.7115 27.1314Z" fill="#34A353"/>
<path d="M10.5938 18.5103C10.1433 17.1857 10.1433 15.745 10.5938 14.4204L6.98986 11.6782C5.44869 14.6992 5.44869 18.2547 6.98986 21.2525L10.5938 18.5103Z" fill="#F6B704"/>
<path d="M16.7115 10.0282C18.2526 10.0049 19.7701 10.5859 20.8845 11.6316L23.9905 8.56413C22.0226 6.75152 19.4144 5.77551 16.7115 5.79875C12.5859 5.79875 8.83964 8.07612 6.99023 11.6781L10.5942 14.4202C11.4715 11.8872 13.8662 10.0282 16.7115 10.0282Z" fill="#E54335"/>
</svg>
