<svg width="69" height="68" viewBox="0 0 69 68" fill="none" xmlns="http://www.w3.org/2000/svg">
<rect x="0.733398" y="0.241699" width="67.7093" height="67.7093" rx="11.2849" fill="#F1F5F9"/>
<path d="M27.853 48.424H38.2698C40.6657 48.424 42.6102 46.4795 42.6102 44.0836V40.16C44.6936 38.7537 46.0825 36.3752 46.0825 33.6668C46.0825 30.9584 44.6936 28.5799 42.6102 27.1737V23.25C42.6102 20.8541 40.6657 18.9097 38.2698 18.9097H27.853C25.4572 18.9097 23.5127 20.8541 23.5127 23.25V44.0836C23.5127 46.4795 25.4572 48.424 27.853 48.424ZM44.3463 33.6668C44.3463 37.0176 41.6206 39.7433 38.2698 39.7433C34.9191 39.7433 32.1934 37.0176 32.1934 33.6668C32.1934 30.3161 34.9191 27.5903 38.2698 27.5903C41.6206 27.5903 44.3463 30.3161 44.3463 33.6668ZM27.853 20.6458H38.2698C39.3983 20.6458 40.3532 21.375 40.7178 22.3819H25.4051C25.7697 21.375 26.7245 20.6458 27.853 20.6458ZM40.7178 44.9517C40.3532 45.9587 39.3983 46.6878 38.2698 46.6878H27.853C26.7245 46.6878 25.7697 45.9587 25.4051 44.9517H40.7178Z" fill="#004099"/>
<path d="M35.9973 33.1738C35.7152 32.8917 35.2779 32.8917 34.9958 33.1738C34.7136 33.4559 34.7136 33.8932 34.9958 34.1753L37.1117 36.2912C37.4079 36.5875 37.9016 36.5593 38.1555 36.2348L40.9768 32.7083C41.2166 32.398 41.1742 31.9607 40.8639 31.7209C40.5536 31.4811 40.1163 31.5234 39.8765 31.8337L37.549 34.7396L35.9832 33.1879L35.9973 33.1738Z" fill="#004099"/>
</svg>
