<svg width="24" height="25" viewBox="0 0 24 25" fill="none" xmlns="http://www.w3.org/2000/svg">
<circle cx="12" cy="12.9219" r="12" fill="#F1F5F9"/>
<path fill-rule="evenodd" clip-rule="evenodd" d="M12.3969 16.4073V16.9057C12.3969 17.3053 12.1977 17.6503 11.8516 17.8501C11.6851 17.9463 11.4992 17.9999 11.3065 18C11.1137 18.0001 10.9279 17.9464 10.7612 17.8501L8.54529 16.5708C8.19914 16.3709 8 16.026 8 15.6263V9.09058C8 8.4892 8.48922 8 9.09058 8H13.9709C14.5723 8 15.0615 8.48916 15.0615 9.09058V10.4683C15.0615 10.6659 14.9011 10.8264 14.7034 10.8264C14.5057 10.8264 14.3454 10.666 14.3454 10.4683V9.09058C14.3454 8.88408 14.1774 8.71605 13.9709 8.71605H9.69447L11.8516 9.9617C12.1976 10.1615 12.3969 10.5064 12.3969 10.906V15.6912H13.9709C14.1774 15.6912 14.3454 15.5232 14.3454 15.3167V14.109C14.3454 13.9112 14.5056 13.7509 14.7034 13.7509C14.9011 13.7509 15.0615 13.9113 15.0615 14.109V15.3167C15.0615 15.9181 14.5723 16.4073 13.9709 16.4073H12.3969ZM15.7149 12.5617L15.3206 12.956C15.1807 13.0958 15.1808 13.3225 15.3206 13.4624C15.3879 13.5297 15.4786 13.5671 15.5738 13.5671C15.669 13.5671 15.7596 13.5298 15.827 13.4624L16.8325 12.4567C16.9723 12.3169 16.9723 12.0904 16.8325 11.9506L15.827 10.9451C15.6872 10.8053 15.4605 10.8053 15.3206 10.9451C15.1808 11.0848 15.1808 11.3116 15.3206 11.4513L15.7149 11.8455H13.0731C12.8753 11.8455 12.7151 12.0059 12.7151 12.2037C12.7151 12.4015 12.8753 12.5617 13.0731 12.5617H15.7149V12.5617Z" fill="#64748B"/>
</svg>
