<svg width="33" height="33" viewBox="0 0 33 33" fill="none" xmlns="http://www.w3.org/2000/svg">
<g clip-path="url(#clip0_2253_1061)">
<path d="M28.0841 18.0586H25.6094C25.8616 18.7492 25.9994 19.4945 25.9994 20.2713V29.6245C25.9994 29.9484 25.9431 30.2592 25.8405 30.5484H29.9318C31.4601 30.5484 32.7035 29.305 32.7035 27.7767V22.6779C32.7035 20.1308 30.6313 18.0586 28.0841 18.0586Z" fill="#004099"/>
<path d="M7.4072 20.2713C7.4072 19.4945 7.54501 18.7492 7.79726 18.0586H5.32251C2.77538 18.0586 0.703125 20.1308 0.703125 22.678V27.7768C0.703125 29.3051 1.94644 30.5484 3.47476 30.5484H7.56614C7.46358 30.2592 7.4072 29.9484 7.4072 29.6245V20.2713Z" fill="#004099"/>
<path d="M19.5348 15.6523H13.8772C11.3301 15.6523 9.25781 17.7246 9.25781 20.2717V29.6249C9.25781 30.1351 9.67144 30.5487 10.1817 30.5487H23.2303C23.7406 30.5487 24.1542 30.1351 24.1542 29.6249V20.2717C24.1542 17.7246 22.082 15.6523 19.5348 15.6523Z" fill="#004099"/>
<path d="M16.7038 3.40234C13.6406 3.40234 11.1484 5.89447 11.1484 8.95779C11.1484 11.0356 12.2953 12.8503 13.9889 13.8031C14.7922 14.2549 15.7183 14.5132 16.7038 14.5132C17.6893 14.5132 18.6155 14.2549 19.4188 13.8031C21.1125 12.8503 22.2592 11.0355 22.2592 8.95779C22.2592 5.89454 19.7671 3.40234 16.7038 3.40234Z" fill="#004099"/>
<path d="M6.94766 8.58203C4.65672 8.58203 2.79297 10.4458 2.79297 12.7367C2.79297 15.0277 4.65672 16.8914 6.94766 16.8914C7.52879 16.8914 8.08217 16.771 8.58485 16.5547C9.45398 16.1805 10.1706 15.5181 10.614 14.6884C10.9253 14.1061 11.1024 13.4418 11.1024 12.7367C11.1024 10.4458 9.23861 8.58203 6.94766 8.58203Z" fill="#004099"/>
<path d="M26.4594 8.58203C24.1684 8.58203 22.3047 10.4458 22.3047 12.7367C22.3047 13.4419 22.4818 14.1062 22.793 14.6884C23.2364 15.5182 23.9531 16.1805 24.8222 16.5547C25.3249 16.771 25.8783 16.8914 26.4594 16.8914C28.7503 16.8914 30.6141 15.0277 30.6141 12.7367C30.6141 10.4458 28.7503 8.58203 26.4594 8.58203Z" fill="#004099"/>
</g>
<defs>
<clipPath id="clip0_2253_1061">
<rect width="32" height="32" fill="white" transform="translate(0.703125 0.976562)"/>
</clipPath>
</defs>
</svg>
