<svg width="73" height="72" viewBox="0 0 73 72" fill="none" xmlns="http://www.w3.org/2000/svg">
<circle cx="36.5" cy="36" r="36" fill="#E6ECF5"/>
<g clip-path="url(#clip0_2253_7291)">
<path d="M43.8569 48C43.1594 51.4185 40.1294 54 36.5084 54C32.8874 54 29.8559 51.4185 29.1599 48H43.8569ZM49.2584 28.5C52.1534 28.5 54.5084 26.145 54.5084 23.25C54.5084 20.355 52.1534 18 49.2584 18C46.3634 18 44.0084 20.355 44.0084 23.25C44.0084 26.145 46.3634 28.5 49.2584 28.5ZM49.8929 31.482C49.7684 31.4865 49.6469 31.5 49.5209 31.5C44.8214 31.5 40.9994 27.7995 40.9994 23.25C40.9994 21.894 41.3459 20.616 41.9474 19.4865C40.1159 18.534 38.0339 18 35.8484 18C29.8049 18 24.5729 22.0635 23.2619 27.774L20.2949 37.0605C19.0349 41.0025 22.0799 45 26.3429 45H45.9224C50.3114 45 53.3684 40.782 51.8744 36.7875L49.8929 31.482Z" fill="#003A8B"/>
<circle cx="49.2578" cy="23.25" r="5.25" fill="#003A8B"/>
</g>
<defs>
<clipPath id="clip0_2253_7291">
<rect width="36" height="36" fill="white" transform="translate(18.5 18)"/>
</clipPath>
</defs>
</svg>
