<svg width="25" height="25" viewBox="0 0 25 25" fill="none" xmlns="http://www.w3.org/2000/svg">
<path fill-rule="evenodd" clip-rule="evenodd" d="M11.8795 1.32812C8.48396 1.32812 5.85678 4.30415 6.27795 7.67349L6.3573 8.30834C6.47342 9.23729 6.13409 10.1652 5.44608 10.8001C4.0204 12.1157 3.62431 14.2096 4.47096 15.9551L4.57431 16.1681C5.36348 17.7951 7.01278 18.8281 8.82101 18.8281H17.0418C18.6015 18.8281 20.0532 18.0313 20.8906 16.7155C22.0727 14.858 21.7596 12.4213 20.1463 10.9231L20.1025 10.8823C19.3639 10.1965 19.0003 9.19725 19.1253 8.19713L19.1899 7.6802C19.6116 4.3073 16.9816 1.32812 13.5824 1.32812H11.8795ZM7.76636 7.48744C7.45711 5.01338 9.38621 2.82812 11.8795 2.82812H13.5824C16.0793 2.82812 18.0112 5.01653 17.7015 7.49415L17.6369 8.01108C17.4521 9.48987 17.9897 10.9673 19.0817 11.9815L19.1256 12.0222C20.2085 13.0279 20.4186 14.6634 19.6252 15.9101C19.0631 16.7933 18.0887 17.3281 17.0418 17.3281H8.82101C7.58744 17.3281 6.46229 16.6234 5.92392 15.5135L5.82057 15.3004C5.26249 14.1499 5.52358 12.7696 6.46333 11.9024C7.5071 10.9393 8.02188 9.53158 7.84572 8.12228L7.76636 7.48744Z" fill="#64748B"/>
<path d="M10.5629 20.6281C10.3144 20.2968 9.8443 20.2296 9.51293 20.4781C9.18156 20.7267 9.11441 21.1968 9.36294 21.5281L9.66294 21.9281C11.3129 24.1281 14.6129 24.1281 16.2629 21.9281L16.5629 21.5281C16.8115 21.1968 16.7443 20.7267 16.4129 20.4781C16.0816 20.2296 15.6115 20.2968 15.3629 20.6281L15.0629 21.0281C14.0129 22.4281 11.9129 22.4281 10.8629 21.0281L10.5629 20.6281Z" fill="#64748B"/>
</svg>
