<svg width="33" height="33" viewBox="0 0 33 33" fill="none" xmlns="http://www.w3.org/2000/svg">
<g clip-path="url(#clip0_2253_1092)">
<path d="M30.5209 27.1584H25.43C22.222 27.1584 19.612 24.5484 19.612 21.3404C19.612 18.1323 22.222 15.5223 25.43 15.5223H30.5209C30.9229 15.5223 31.2481 15.197 31.2481 14.795V12.6132C31.2481 11.0882 30.0652 9.84789 28.5706 9.72762L24.3939 2.43228C24.0068 1.75757 23.3818 1.27533 22.6339 1.07508C21.8896 0.876196 21.1112 0.980649 20.4451 1.36839L6.1269 9.70417H3.61219C2.00783 9.70417 0.703125 11.0088 0.703125 12.6132V30.0675C0.703125 31.6719 2.00776 32.9766 3.61219 32.9766H28.3391C29.9434 32.9766 31.2481 31.6719 31.2481 30.0675V27.8857C31.2481 27.4837 30.9229 27.1584 30.5209 27.1584ZM25.2958 6.9363L26.8805 9.70417H20.5417L25.2958 6.9363ZM9.01776 9.70417L21.1772 2.62544C21.5061 2.43297 21.8903 2.38183 22.2575 2.47987C22.629 2.57928 22.9386 2.81935 23.1311 3.15527L23.1326 3.15793L11.8889 9.70417H9.01776Z" fill="#004099"/>
<path d="M30.5208 16.9766H25.43C23.0237 16.9766 21.0664 18.9339 21.0664 21.3401C21.0664 23.7464 23.0237 25.7037 25.43 25.7037H30.5208C31.7239 25.7037 32.7026 24.725 32.7026 23.5219V19.1583C32.7026 17.9552 31.7239 16.9766 30.5208 16.9766ZM25.43 22.7946C24.6282 22.7946 23.9755 22.1419 23.9755 21.3401C23.9755 20.5383 24.6282 19.8856 25.43 19.8856C26.2318 19.8856 26.8845 20.5383 26.8845 21.3401C26.8845 22.1419 26.2318 22.7946 25.43 22.7946Z" fill="#004099"/>
</g>
<defs>
<clipPath id="clip0_2253_1092">
<rect width="32" height="32" fill="white" transform="translate(0.703125 0.976562)"/>
</clipPath>
</defs>
</svg>
