<svg width="24" height="24" viewBox="0 0 24 24" fill="none" xmlns="http://www.w3.org/2000/svg">
<circle cx="12" cy="12" r="12" fill="#F8FAFC"/>
<path d="M14.9002 9.66452C16.3494 11.0672 17.3272 12.9458 17.6593 14.9341C17.8293 15.952 17.4364 16.8451 16.7613 17.4689C16.0929 18.0865 15.1453 18.4469 14.157 18.4469H9.84066C8.85234 18.4469 7.90472 18.0865 7.23635 17.4689C6.56122 16.8451 6.16837 15.952 6.33835 14.9341C6.74042 12.5267 7.99089 10.7353 9.08177 9.67965C9.13725 9.62596 9.19275 9.57334 9.25524 9.52771C9.39027 9.42913 9.63166 9.33143 9.79725 9.30836C9.87966 9.29687 9.93891 9.29688 10.0574 9.29688H13.9402C14.0587 9.29688 14.118 9.29687 14.2004 9.30836C14.366 9.33143 14.6074 9.42913 14.7424 9.52771C14.8096 9.57677 14.8398 9.60603 14.9002 9.66452Z" fill="#00B795"/>
<path d="M11.1831 5.94074C11.3309 5.79249 11.6099 5.54688 11.9982 5.54688C12.3866 5.54688 12.6656 5.79249 12.8133 5.94074C12.9924 6.12046 13.1352 6.3891 13.3625 6.50934C13.5504 6.60875 13.7928 6.51218 13.9803 6.46334C14.1591 6.41681 14.4315 6.34634 14.7203 6.38477C14.8457 6.40147 15.0104 6.44137 15.1379 6.55493C15.2889 6.68942 15.3133 6.85676 15.2912 6.98324C15.2643 7.13711 15.1691 7.26339 15.0755 7.38349L14.5401 8.07281C14.4021 8.25096 14.2655 8.43404 14.0822 8.56869C13.9463 8.66843 13.7744 8.69687 13.6059 8.69687H10.3906C10.222 8.69687 10.0502 8.66843 9.91434 8.56869C9.73098 8.43404 9.59439 8.25096 9.4564 8.07281L8.921 7.38349C8.82745 7.26339 8.73215 7.13711 8.70528 6.98324C8.68319 6.85676 8.70757 6.68942 8.85862 6.55493C8.98616 6.44137 9.15078 6.40147 9.27624 6.38477C9.56496 6.34634 9.83742 6.41681 10.0162 6.46334C10.2037 6.51218 10.4461 6.60875 10.634 6.50934C10.8614 6.3891 11.004 6.12046 11.1831 5.94074Z" fill="#00B795"/>
</svg>
