<svg width="73" height="72" viewBox="0 0 73 72" fill="none" xmlns="http://www.w3.org/2000/svg">
<circle cx="36.5" cy="36" r="36" fill="#F1F5F9"/>
<g clip-path="url(#clip0_2253_7309)">
<path d="M24.6082 45H48.0922C48.8149 45 49.5271 44.826 50.1683 44.4925C50.8095 44.1591 51.361 43.6761 51.7761 43.0845C52.1912 42.4928 52.4577 41.8098 52.553 41.0934C52.6483 40.377 52.5697 39.6481 52.3237 38.9685L48.0457 27.141C47.3151 24.5126 45.7436 22.1958 43.5716 20.545C41.3997 18.8942 38.7468 18.0003 36.0187 18C33.1788 18 30.4237 18.9684 28.2085 20.7454C25.9932 22.5224 24.4502 25.0017 23.8342 27.774L20.3092 39.174C20.1016 39.8471 20.055 40.5594 20.173 41.2538C20.2909 41.9482 20.5703 42.6051 20.9885 43.1719C21.4066 43.7386 21.952 44.1993 22.5807 44.5168C23.2094 44.8343 23.9039 44.9998 24.6082 45Z" fill="#94A3B8"/>
<path d="M29.1562 48C29.5005 49.6954 30.4203 51.2197 31.7599 52.3146C33.0994 53.4094 34.7762 54.0075 36.5063 54.0075C38.2363 54.0075 39.9131 53.4094 41.2526 52.3146C42.5922 51.2197 43.512 49.6954 43.8562 48H29.1562Z" fill="#94A3B8"/>
</g>
<defs>
<clipPath id="clip0_2253_7309">
<rect width="36" height="36" fill="white" transform="translate(18.5 18)"/>
</clipPath>
</defs>
</svg>
