<svg width="65" height="65" viewBox="0 0 65 65" fill="none" xmlns="http://www.w3.org/2000/svg">
<circle cx="32.7617" cy="32.5078" r="32" fill="#F1F5F9"/>
<g clip-path="url(#clip0_2253_1378)">
<path d="M42.7368 24.4224H22.2594C21.2882 24.4224 20.498 25.2125 20.498 26.1837V38.8966C20.498 39.8678 21.2882 40.658 22.2594 40.658H42.7367C43.708 40.658 44.498 39.8678 44.498 38.8966V26.1837C44.4981 25.2125 43.708 24.4224 42.7368 24.4224ZM27.8807 34.9936H30.2598C30.5453 34.9936 30.7766 35.225 30.7766 35.5104C30.7766 35.7958 30.5453 36.0272 30.2598 36.0272H27.8807C27.5952 36.0272 27.3639 35.7958 27.3639 35.5104C27.3639 35.225 27.5953 34.9936 27.8807 34.9936ZM22.7331 29.8098C22.7331 29.5243 22.9644 29.293 23.2498 29.293H26.3459C26.6313 29.293 26.8627 29.5244 26.8627 29.8098V32.0482C26.8627 32.3337 26.6313 32.565 26.3459 32.565H23.2498C22.9644 32.565 22.7331 32.3337 22.7331 32.0482V29.8098ZM23.2498 34.9936H25.629C25.9145 34.9936 26.1458 35.225 26.1458 35.5104C26.1458 35.7958 25.9144 36.0272 25.629 36.0272H23.2498C22.9644 36.0272 22.7331 35.7958 22.7331 35.5104C22.7331 35.225 22.9645 34.9936 23.2498 34.9936ZM31.7434 38.3253H23.2498C22.9644 38.3253 22.7331 38.094 22.7331 37.8085C22.7331 37.5231 22.9644 37.2917 23.2498 37.2917H31.7434C32.0289 37.2917 32.2602 37.5231 32.2602 37.8085C32.2602 38.094 32.0289 38.3253 31.7434 38.3253ZM34.8907 36.0272H32.5115C32.2261 36.0272 31.9947 35.7958 31.9947 35.5104C31.9947 35.225 32.2261 34.9936 32.5115 34.9936H34.8907C35.1761 34.9936 35.4075 35.225 35.4075 35.5104C35.4075 35.7958 35.1761 36.0272 34.8907 36.0272ZM39.5215 36.0272H37.1424C36.8569 36.0272 36.6256 35.7958 36.6256 35.5104C36.6256 35.225 36.8569 34.9936 37.1424 34.9936H39.5215C39.807 34.9936 40.0383 35.225 40.0383 35.5104C40.0383 35.7958 39.8069 36.0272 39.5215 36.0272ZM41.7463 28.4777H36.1349C35.8495 28.4777 35.6181 28.2463 35.6181 27.9609C35.6181 27.6754 35.8495 27.4441 36.1349 27.4441H41.7463C42.0318 27.4441 42.2631 27.6754 42.2631 27.9609C42.2631 28.2463 42.0317 28.4777 41.7463 28.4777Z" fill="#3366AD"/>
</g>
<defs>
<clipPath id="clip0_2253_1378">
<rect width="24" height="24" fill="white" transform="translate(20.5 20.543)"/>
</clipPath>
</defs>
</svg>
