<svg width="24" height="25" viewBox="0 0 24 25" fill="none" xmlns="http://www.w3.org/2000/svg">
<circle cx="12" cy="12.9219" r="12" fill="#F1F5F9"/>
<g clip-path="url(#clip0_2253_3146)">
<path d="M16.9538 11.3618C16.7349 11.33 16.5261 11.2493 16.3428 11.1256C16.1595 11.0019 16.0065 10.8385 15.8951 10.6475C15.7838 10.4564 15.7169 10.2428 15.6996 10.0223C15.6823 9.8019 15.7149 9.58039 15.795 9.37431C15.846 9.23958 15.8535 9.09229 15.8165 8.95308C15.7795 8.81387 15.6999 8.68973 15.5888 8.59806C15.0983 8.18618 14.54 7.86263 13.9388 7.64181C13.8019 7.59095 13.6524 7.5846 13.5117 7.62365C13.3709 7.66271 13.2461 7.74517 13.155 7.85931C13.0179 8.03468 12.8426 8.17652 12.6425 8.27406C12.4423 8.37161 12.2226 8.42231 12 8.42231C11.7774 8.42231 11.5577 8.37161 11.3576 8.27406C11.1574 8.17652 10.9822 8.03468 10.845 7.85931C10.7539 7.74517 10.6291 7.66271 10.4884 7.62365C10.3476 7.5846 10.1982 7.59095 10.0613 7.64181C9.50613 7.84568 8.9871 8.13684 8.52376 8.50431C8.40696 8.59677 8.32284 8.7242 8.2837 8.86793C8.24456 9.01166 8.25247 9.16415 8.30626 9.30306C8.39279 9.51459 8.42854 9.74346 8.41065 9.97131C8.39275 10.1992 8.32171 10.4196 8.20321 10.6151C8.08471 10.8105 7.92206 10.9754 7.72831 11.0966C7.53455 11.2179 7.31508 11.292 7.08751 11.3131C6.93976 11.3289 6.80099 11.3917 6.69162 11.4923C6.58226 11.5929 6.50808 11.7259 6.48001 11.8718C6.41018 12.2174 6.37501 12.5692 6.37501 12.9218C6.37449 13.217 6.39833 13.5118 6.44626 13.8031C6.47011 13.9536 6.54291 14.0922 6.6534 14.1972C6.76389 14.3023 6.90591 14.3681 7.05751 14.3843C7.29008 14.4061 7.51404 14.4834 7.71065 14.6095C7.90725 14.7356 8.07078 14.9071 8.18754 15.1094C8.30431 15.3117 8.37091 15.539 8.38178 15.7724C8.39265 16.0057 8.34746 16.2383 8.25001 16.4506C8.18623 16.5886 8.17041 16.7441 8.20506 16.8922C8.23971 17.0403 8.32284 17.1726 8.44126 17.2681C8.9288 17.6725 9.48172 17.9908 10.0763 18.2093C10.1523 18.2356 10.2321 18.2496 10.3125 18.2506C10.4228 18.2503 10.5315 18.2236 10.6293 18.1727C10.7272 18.1218 10.8115 18.0482 10.875 17.9581C11.0087 17.7633 11.1878 17.6042 11.3969 17.4944C11.6061 17.3846 11.8388 17.3275 12.075 17.3281C12.3039 17.3283 12.5295 17.3821 12.7339 17.4849C12.9383 17.5878 13.1159 17.737 13.2525 17.9206C13.3434 18.0427 13.4721 18.1314 13.6186 18.1727C13.7651 18.2141 13.9212 18.2059 14.0625 18.1493C14.6061 17.9305 15.1122 17.6281 15.5625 17.2531C15.6756 17.1595 15.7562 17.0326 15.7925 16.8904C15.8289 16.7482 15.8193 16.5982 15.765 16.4618C15.6768 16.253 15.6383 16.0266 15.6527 15.8003C15.667 15.5741 15.7337 15.3543 15.8475 15.1583C15.9614 14.9623 16.1192 14.7954 16.3086 14.6708C16.4979 14.5463 16.7137 14.4674 16.9388 14.4406C17.0847 14.4204 17.2204 14.3543 17.3263 14.2518C17.4321 14.1493 17.5026 14.0158 17.5275 13.8706C17.5877 13.5578 17.6204 13.2403 17.625 12.9218C17.6251 12.5859 17.5937 12.2507 17.5313 11.9206C17.5059 11.7785 17.4365 11.6481 17.3328 11.5478C17.2292 11.4475 17.0965 11.3824 16.9538 11.3618ZM13.875 12.9218C13.875 13.2926 13.765 13.6552 13.559 13.9635C13.353 14.2718 13.0602 14.5122 12.7175 14.6541C12.3749 14.796 11.9979 14.8331 11.6342 14.7608C11.2705 14.6884 10.9364 14.5099 10.6742 14.2476C10.412 13.9854 10.2334 13.6513 10.161 13.2876C10.0887 12.9239 10.1258 12.5469 10.2677 12.2043C10.4096 11.8617 10.65 11.5688 10.9583 11.3628C11.2667 11.1568 11.6292 11.0468 12 11.0468C12.4973 11.0468 12.9742 11.2444 13.3258 11.596C13.6775 11.9476 13.875 12.4245 13.875 12.9218Z" fill="#64748B"/>
</g>
<defs>
<clipPath id="clip0_2253_3146">
<rect width="12" height="12" fill="white" transform="translate(6 6.92188)"/>
</clipPath>
</defs>
</svg>
