<svg width="245" height="234" viewBox="0 0 245 234" fill="none" xmlns="http://www.w3.org/2000/svg">
<ellipse cx="122.304" cy="121.414" rx="84.9368" ry="84.6709" fill="#23A512"/>
<ellipse cx="26.7515" cy="36.9462" rx="10.8101" ry="10.7763" fill="#23A512"/>
<ellipse cx="236.005" cy="79.282" rx="8.49368" ry="8.46709" fill="#23A512"/>
<ellipse cx="158.016" cy="4.61841" rx="4.63292" ry="4.61841" fill="#23A512"/>
<ellipse cx="239.863" cy="150.866" rx="4.63292" ry="4.61841" fill="#23A512"/>
<ellipse cx="213.613" cy="198.592" rx="4.63292" ry="4.61841" fill="#23A512"/>
<ellipse cx="86.978" cy="227.842" rx="6.17722" ry="6.15788" fill="#23A512"/>
<ellipse cx="8.22153" cy="173.957" rx="7.72153" ry="7.69736" fill="#23A512"/>
<rect width="64.1006" height="63.9" transform="translate(90.4492 88.6621)" fill="#23A512"/>
<path d="M141.196 93.9873H103.804C99.3956 93.9873 95.791 97.5819 95.791 101.975V139.25C95.791 143.643 99.3956 147.237 103.804 147.237H141.196C145.604 147.237 149.208 143.643 149.208 139.25V101.975C149.208 97.5819 145.604 93.9873 141.196 93.9873ZM134.412 115.846L121.057 129.159C120.523 129.665 119.855 129.931 119.161 129.931C118.467 129.931 117.8 129.665 117.265 129.159L110.588 122.503C109.547 121.464 109.547 119.761 110.588 118.722C111.628 117.683 113.339 117.683 114.38 118.722L119.161 123.514L130.619 112.066C131.66 111.027 133.371 111.027 134.412 112.066C135.452 113.105 135.452 114.808 134.412 115.846Z" fill="white"/>
</svg>
