<svg width="24" height="25" viewBox="0 0 24 25" fill="none" xmlns="http://www.w3.org/2000/svg">
<circle cx="12" cy="12.9219" r="12" fill="#F1F5F9"/>
<g clip-path="url(#clip0_2253_3153)">
<path d="M16.2096 16.3517C15.9679 15.6325 15.0047 15.1822 14.3179 14.8804C14.0489 14.7626 13.3041 14.5627 13.2145 14.2239C13.1825 14.1019 13.1868 13.9868 13.2131 13.8765C13.1717 13.8844 13.1297 13.8891 13.0863 13.8891H12.6388C12.2815 13.8891 11.9913 13.5985 11.9913 13.2415C11.9913 12.8847 12.2817 12.5947 12.6388 12.5947H13.0863C13.2341 12.5947 13.3743 12.6447 13.4873 12.734C13.653 12.7119 13.8129 12.6765 13.9619 12.6301C14.1576 12.22 14.3103 11.7297 14.3445 11.3077C14.4905 9.5019 13.3835 8.44542 11.7963 8.62806C10.6422 8.7609 9.95282 9.62142 9.8783 10.7293C9.80294 11.8585 10.2216 12.6925 10.6663 13.3042C10.8611 13.5717 11.0657 13.7437 11.0343 14.066C10.9978 14.4471 10.5903 14.5533 10.2988 14.6704C9.95342 14.8091 9.58142 15.0196 9.40574 15.1169C8.80058 15.4511 8.13638 15.8536 7.9871 16.4042C7.6565 17.6243 8.77298 17.9939 9.6947 18.1646C10.4857 18.3105 11.3777 18.322 12.1114 18.322C13.4385 18.322 15.8248 18.2689 16.2096 17.2713C16.3191 16.9882 16.2721 16.5371 16.2096 16.3517Z" fill="#64748B"/>
<path d="M13.3699 13.0591C13.3092 12.9666 13.2054 12.9052 13.087 12.9052H12.6395C12.4528 12.9052 12.3022 13.056 12.3022 13.2418C12.3022 13.4283 12.4528 13.5793 12.6395 13.5793H13.087C13.2177 13.5793 13.3285 13.5048 13.3845 13.3971C14.0083 13.348 14.551 13.1574 14.9319 12.876C15.0193 12.9324 15.1228 12.9654 15.2344 12.9654H15.2625C15.5735 12.9654 15.825 12.7137 15.825 12.4023V11.2781C15.825 11.0542 15.6937 10.861 15.5044 10.7712C15.4218 8.96605 13.9275 7.52197 12.102 7.52197C10.2766 7.52197 8.78199 8.96605 8.69979 10.7712C8.51007 10.8611 8.37891 11.0542 8.37891 11.2781V12.4023C8.37891 12.7137 8.63067 12.9654 8.94099 12.9654H8.96943C9.27999 12.9654 9.53187 12.7137 9.53187 12.4023V11.2781C9.53187 11.0574 9.40431 10.8671 9.21891 10.7751C9.29919 9.25405 10.5613 8.04169 12.102 8.04169C13.6421 8.04169 14.9049 9.25405 14.9848 10.7751C14.7996 10.8672 14.6722 11.0574 14.6722 11.2781V12.4023C14.6722 12.4769 14.6867 12.5464 14.7123 12.6113C14.3844 12.8459 13.9072 13.0131 13.3699 13.0591Z" fill="#64748B"/>
</g>
<defs>
<clipPath id="clip0_2253_3153">
<rect width="12" height="12" fill="white" transform="translate(6.10156 6.92188)"/>
</clipPath>
</defs>
</svg>
