<svg width="33" height="33" viewBox="0 0 33 33" fill="none" xmlns="http://www.w3.org/2000/svg">
<g clip-path="url(#clip0_2253_1084)">
<path d="M20.7035 9.64307C19.9675 9.64307 19.3701 9.04573 19.3701 8.30973V6.30973H14.0368V8.30973C14.0368 9.04573 13.4395 9.64307 12.7035 9.64307C11.9675 9.64307 11.3701 9.04573 11.3701 8.30973V6.30973C11.3701 4.83907 12.5661 3.64307 14.0368 3.64307H19.3701C20.8408 3.64307 22.0368 4.83907 22.0368 6.30973V8.30973C22.0368 9.04573 21.4395 9.64307 20.7035 9.64307Z" fill="#004099"/>
<path d="M17.6498 21.4831C17.4098 21.5764 17.0631 21.6431 16.7031 21.6431C16.3431 21.6431 15.9965 21.5764 15.6765 21.4564L0.703125 16.4697V26.6431C0.703125 28.6697 2.34313 30.3097 4.36979 30.3097H29.0365C31.0631 30.3097 32.7031 28.6697 32.7031 26.6431V16.4697L17.6498 21.4831Z" fill="#004099"/>
<path d="M32.7031 11.3097V14.3631L17.0231 19.5897C16.9165 19.6297 16.8098 19.6431 16.7031 19.6431C16.5965 19.6431 16.4898 19.6297 16.3831 19.5897L0.703125 14.3631V11.3097C0.703125 9.28307 2.34313 7.64307 4.36979 7.64307H29.0365C31.0631 7.64307 32.7031 9.28307 32.7031 11.3097Z" fill="#004099"/>
</g>
<defs>
<clipPath id="clip0_2253_1084">
<rect width="32" height="32" fill="white" transform="translate(0.703125 0.976562)"/>
</clipPath>
</defs>
</svg>
