<svg width="24" height="25" viewBox="0 0 24 25" fill="none" xmlns="http://www.w3.org/2000/svg">
<circle cx="12" cy="12.9219" r="12" fill="#F1F5F9"/>
<path fill-rule="evenodd" clip-rule="evenodd" d="M13.4706 10.4197C13.4706 11.6759 12.4522 12.6943 11.1959 12.6943C9.93969 12.6943 8.92129 11.6759 8.92129 10.4197C8.92129 9.16342 9.93969 8.14502 11.1959 8.14502C12.4522 8.14502 13.4706 9.16342 13.4706 10.4197ZM12.5607 13.6654C12.1552 13.6273 11.701 13.6042 11.1959 13.6042C9.07686 13.6042 7.85308 14.0111 7.35912 14.2233C7.19512 14.2937 7.10156 14.4576 7.10156 14.6361C7.10156 16.3275 8.47267 17.6986 10.164 17.6986H12.2279C12.8554 17.6986 13.4388 17.5098 13.9245 17.186C13.1401 16.9837 12.5607 16.2715 12.5607 15.4239V13.6654ZM15.4033 12.8802C15.3199 12.7111 15.0788 12.7111 14.9953 12.8802L14.5838 13.7141C14.5506 13.7813 14.4866 13.8278 14.4125 13.8386L13.4921 13.9723C13.3055 13.9994 13.231 14.2287 13.3661 14.3603L14.032 15.0095C14.0857 15.0617 14.1101 15.137 14.0974 15.2108L13.9402 16.1275C13.9084 16.3133 14.1034 16.455 14.2703 16.3673L15.0935 15.9345C15.1598 15.8996 15.2389 15.8996 15.3052 15.9345L16.1284 16.3673C16.2953 16.455 16.4903 16.3133 16.4584 16.1275L16.3012 15.2108C16.2886 15.137 16.313 15.0617 16.3666 15.0095L17.0326 14.3603C17.1676 14.2287 17.0931 13.9994 16.9066 13.9723L15.9862 13.8386C15.9121 13.8278 15.8481 13.7813 15.8149 13.7141L15.4033 12.8802Z" fill="#64748B"/>
</svg>
