<svg width="20" height="20" viewBox="0 0 20 20" fill="none" xmlns="http://www.w3.org/2000/svg">
<path d="M10.625 16.875V13.125H13.125L10 9.375L6.875 13.125H9.375V16.875H6.25V16.8438C6.145 16.85 6.045 16.875 5.9375 16.875C4.6943 16.875 3.50201 16.3811 2.62294 15.5021C1.74386 14.623 1.25 13.4307 1.25 12.1875C1.25 9.7825 3.06875 7.8225 5.4025 7.55375C5.60712 6.48412 6.17806 5.51922 7.01714 4.82501C7.85622 4.1308 8.91097 3.75067 10 3.75C11.0892 3.7506 12.1441 4.13068 12.9834 4.82488C13.8227 5.51908 14.3939 6.48401 14.5988 7.55375C16.9325 7.8225 18.7487 9.7825 18.7487 12.1875C18.7487 13.4307 18.2549 14.623 17.3758 15.5021C16.4967 16.3811 15.3045 16.875 14.0612 16.875C13.9562 16.875 13.855 16.85 13.7487 16.8438V16.875H10.625Z" fill="#004099"/>
</svg>
