<svg width="25" height="24" viewBox="0 0 25 24" fill="none" xmlns="http://www.w3.org/2000/svg">
<path d="M22.0449 11.045C22.349 11.4713 22.501 11.6845 22.501 12C22.501 12.3155 22.349 12.5287 22.0449 12.955C20.6789 14.8706 17.1902 19 12.501 19C7.81176 19 4.32307 14.8706 2.95702 12.955C2.65299 12.5287 2.50098 12.3155 2.50098 12C2.50098 11.6845 2.65299 11.4713 2.95702 11.045C4.32307 9.12944 7.81176 5 12.501 5C17.1902 5 20.6789 9.12944 22.0449 11.045Z" stroke="#004099" stroke-width="1.79167"/>
<path d="M15.501 12C15.501 10.3431 14.1578 9 12.501 9C10.8441 9 9.50098 10.3431 9.50098 12C9.50098 13.6569 10.8441 15 12.501 15C14.1578 15 15.501 13.6569 15.501 12Z" stroke="#004099" stroke-width="1.79167"/>
</svg>
