<svg width="143" height="49" viewBox="0 0 143 49" fill="none" xmlns="http://www.w3.org/2000/svg">
<g clip-path="url(#clip0_8_8)">
<path d="M36.6553 0.554688H12.6553C6.02786 0.554688 0.655273 5.92727 0.655273 12.5547V36.5547C0.655273 43.1821 6.02786 48.5547 12.6553 48.5547H36.6553C43.2827 48.5547 48.6553 43.1821 48.6553 36.5547V12.5547C48.6553 5.92727 43.2827 0.554688 36.6553 0.554688Z" fill="#0582FF"/>
<path d="M32.9025 39.5547H25.3905C22.4325 39.5547 20.0355 37.1577 20.0355 34.1997V18.8487C20.0355 17.8647 19.2375 17.0637 18.2505 17.0637H12.8955V9.55469H31.1175C34.0755 9.55469 36.4725 11.9517 36.4725 14.9097V17.0637H22.1925C25.1505 17.0637 27.5475 19.4607 27.5475 22.4187V34.1967C27.5475 37.1547 29.9445 39.5517 32.9025 39.5517V39.5547Z" fill="white"/>
<path d="M36.475 34.1986C36.475 36.1696 34.876 37.7686 32.905 37.7686C30.934 37.7686 29.335 36.1696 29.335 34.1986V27.0586C29.335 29.0296 30.934 30.6286 32.905 30.6286C34.876 30.6286 36.475 32.2276 36.475 34.1986Z" fill="white"/>
<path d="M64.6475 18.8509H60.6553V16.1484H72.0499V18.8509H68.0813V29.6767H64.6475V18.8509Z" fill="white"/>
<path d="M80.1893 26.8443C80.1893 27.885 80.2627 29.4079 80.3229 29.6779H77.201C77.1224 29.4761 77.0621 28.9466 77.0569 28.7447C76.6453 29.324 75.9507 29.9164 74.2154 29.9164C71.7907 29.9164 70.6846 28.3411 70.6846 26.6739C70.6846 24.3096 72.5902 23.2375 75.6283 23.2375H76.9835V22.6687C76.9835 21.9897 76.7344 21.4052 75.6361 21.4052C74.6217 21.4052 74.3753 21.8272 74.2652 22.535H71.159C71.3084 20.687 72.4382 19.1719 75.7488 19.1876C78.7266 19.206 80.1945 20.3567 80.1945 22.8233V26.8417L80.1893 26.8443ZM76.9808 25.1012H76.0005C74.467 25.1012 73.9664 25.5966 73.9664 26.4433C73.9664 27.0933 74.3491 27.649 75.2482 27.649C76.7895 27.649 76.9808 26.5743 76.9808 25.3764V25.1012Z" fill="white"/>
<path d="M84.5214 26.548C84.7075 27.2662 85.3104 27.6646 86.2462 27.6646C87.1322 27.6646 87.4624 27.3763 87.4624 26.8494C87.4624 26.2859 87.0247 26.0814 85.6669 25.7537C82.2042 24.9228 81.6799 23.8271 81.6799 22.3723C81.6799 20.9175 82.7363 19.1875 86.0286 19.1875C89.3209 19.1875 90.3773 20.9149 90.4638 22.3147H87.389C87.3104 21.9844 87.1059 21.3631 85.9028 21.3631C85.1217 21.3631 84.8543 21.696 84.8543 22.0892C84.8543 22.527 85.161 22.7288 86.794 23.1036C90.2121 23.8874 90.7443 25.0696 90.7443 26.603C90.7443 28.3252 89.4598 29.9189 86.1282 29.9189C82.7966 29.9189 81.5541 28.3619 81.3418 26.548H84.5214Z" fill="white"/>
<path d="M95.2345 23.5376C95.9239 22.5258 97.0274 21.1155 98.3433 19.4274H102.094L98.6709 23.2702C98.781 23.5114 102.286 29.4406 102.393 29.6766H98.6683C98.6421 29.5927 96.4507 25.4354 96.4324 25.3777L95.2319 26.5573V29.6766H91.9238V15.375H95.2319V23.5376H95.2345Z" fill="white"/>
<path d="M103.081 15.375H106.389V20.4025C106.818 19.8023 107.642 19.1889 109.227 19.1889C111.972 19.1889 113.382 21.4379 113.382 24.3711C113.382 27.3043 111.846 29.9203 108.934 29.9203C107.461 29.9203 106.829 29.4826 106.344 28.8115C106.344 29.0946 106.286 29.4302 106.231 29.6792H103.06C103.081 28.5914 103.081 27.4616 103.081 26.3633V15.375ZM110.027 24.4419C110.027 22.8351 109.508 21.7079 108.142 21.7079C106.777 21.7079 106.25 22.6332 106.25 24.6123C106.25 26.2375 106.677 27.4249 108.119 27.4249C109.393 27.4249 110.027 26.2401 110.027 24.4419Z" fill="white"/>
<path d="M124.077 26.6093C124.077 27.5713 124.077 28.6959 124.095 29.6788H120.85C120.808 29.4115 120.79 28.8715 120.771 28.5832C120.132 29.5766 119.246 29.9226 117.987 29.9226C115.809 29.9226 114.577 28.57 114.577 26.1165V19.4297H117.883V25.4979C117.883 26.5333 118.194 27.3328 119.235 27.3328C120.276 27.3328 120.763 26.7561 120.763 24.9684V19.4297H124.071V26.6067L124.077 26.6093Z" fill="white"/>
<path d="M125.694 22.2596C125.694 21.316 125.694 20.3513 125.673 19.4286H128.913C128.955 19.6777 128.997 20.6895 128.997 21.1403C129.419 20.0604 130.459 19.1927 132.216 19.1875V22.2832C130.132 22.1993 129.002 22.6528 129.002 25.3658V29.6751H125.694V22.257V22.2596Z" fill="white"/>
<path d="M142.73 28.2911C142.73 31.6017 141.545 33.7302 137.446 33.7302C133.346 33.7302 132.79 31.5493 132.698 30.4326H136.033C136.198 31.0172 136.599 31.4497 137.587 31.4497C139.189 31.4497 139.477 30.4851 139.477 28.6371V28.1836C138.948 28.9962 138.135 29.5204 136.68 29.5204C133.957 29.5204 132.468 27.2871 132.468 24.5872C132.468 21.4076 134.355 19.1953 136.932 19.1953C138.62 19.1953 139.333 19.9764 139.477 20.4221C139.498 20.1809 139.571 19.599 139.592 19.4338H142.751C142.73 20.3539 142.73 21.3211 142.73 22.3723V28.2963V28.2911ZM135.86 24.43C135.86 26.063 136.609 26.9935 137.713 26.9935C139.207 26.9935 139.582 25.9372 139.582 24.3644C139.582 22.7917 139.367 21.6881 137.771 21.6881C136.746 21.6881 135.86 22.464 135.86 24.4273V24.43Z" fill="white"/>
</g>
<defs>
<clipPath id="clip0_8_8">
<rect width="143" height="49" fill="white"/>
</clipPath>
</defs>
</svg>
